<?xml version="1.0" encoding="iso-8859-1"?>
<!-- Generator: Adobe Illustrator 19.0.0, SVG Export Plug-In . SVG Version: 6.00 Build 0)  -->
<svg version="1.1" id="Capa_1" xmlns="http://www.w3.org/2000/svg" xmlns:xlink="http://www.w3.org/1999/xlink" x="0px" y="0px"
	 viewBox="0 0 512 512" style="enable-background:new 0 0 512 512;" xml:space="preserve">
<g>
	<g>
		<path d="M502.299,91.968l-241-91c-3.416-1.29-7.182-1.29-10.598,0l-241,91c-5.848,2.208-9.713,7.81-9.701,14.06
			c0.012,6.25,3.897,11.838,9.752,14.025l241,90c1.692,0.632,3.471,0.948,5.248,0.948c1.777,0,3.556-0.316,5.248-0.948l241-90
			c5.854-2.187,9.74-7.775,9.752-14.025S508.147,94.175,502.299,91.968z M95.656,120.109l-37.989-14.187l37.574-14.186L133.28,106
			L95.656,120.109z M175.822,150.046l-37.357-13.95L176,122.02L213.28,136L175.822,150.046z M176,89.98l-38.187-14.32l37.152-14.028
			L213.28,76L176,89.98z M256,179.989l-37.369-13.955L256,152.02l37.369,14.013L256,179.989z M218.72,106L256,92.02L293.28,106
			L256,119.98L218.72,106z M256,59.98l-38.462-14.423L256,31.034l38.462,14.523L256,59.98z M336.177,150.047L298.72,136L336,122.02
			l37.535,14.076L336.177,150.047z M336,89.98L298.72,76l38.315-14.368l37.152,14.028L336,89.98z M416.344,120.109L378.72,106
			l38.04-14.265l37.573,14.187L416.344,120.109z"/>
	</g>
</g>
<g>
	<g>
		<path d="M497,151c-8.284,0-15,6.716-15,15v219.386l-91-33.983V211c0-8.284-6.716-15-15-15s-15,6.716-15,15v129.2l-90-33.61V256
			c0-8.284-6.716-15-15-15c-8.284,0-15,6.716-15,15v50.589l-90,33.61V211c0-8.284-6.716-15-15-15s-15,6.716-15,15v140.403
			l-91,33.983V166c0-8.284-6.716-15-15-15s-15,6.716-15,15v241c0,6.295,3.996,11.906,9.752,14.052l241,90
			c1.692,0.632,3.471,0.948,5.248,0.948c1.777,0,3.556-0.316,5.248-0.948l241-90C507.993,418.911,512,413.319,512,407V166
			C512,157.716,505.284,151,497,151z M95.656,421.109L57.876,407l37.781-14.109L133.28,407L95.656,421.109z M175.822,451.046
			l-37.357-13.95L176,423.02L213.28,437L175.822,451.046z M176,390.98l-37.535-14.076l0.565-0.21
			c1.521-0.312,2.953-0.859,4.268-1.594l32.525-12.146L213.28,377L176,390.98z M256,480.989l-37.369-13.955L256,453.02
			l37.369,14.013L256,480.989z M218.72,407L256,393.02L293.28,407L256,420.98L218.72,407z M256,360.98l-37.369-14.013L256,333.012
			l37.369,13.955L256,360.98z M336.177,451.047L298.72,437L336,423.02l37.535,14.076L336.177,451.047z M336,390.98L298.72,377
			l37.458-14.046l32.525,12.146c1.315,0.734,2.747,1.282,4.268,1.594l0.565,0.211L336,390.98z M416.344,421.109L378.72,407
			l37.624-14.109L454.124,407L416.344,421.109z"/>
	</g>
</g>
<g>
</g>
<g>
</g>
<g>
</g>
<g>
</g>
<g>
</g>
<g>
</g>
<g>
</g>
<g>
</g>
<g>
</g>
<g>
</g>
<g>
</g>
<g>
</g>
<g>
</g>
<g>
</g>
<g>
</g>
</svg>
