<?xml version="1.0" encoding="iso-8859-1"?>
<!-- Generator: Adobe Illustrator 19.0.0, SVG Export Plug-In . SVG Version: 6.00 Build 0)  -->
<svg version="1.1" id="Capa_1" xmlns="http://www.w3.org/2000/svg" xmlns:xlink="http://www.w3.org/1999/xlink" x="0px" y="0px"
	 viewBox="0 0 512 512" style="enable-background:new 0 0 512 512;" xml:space="preserve">
<g>
	<g>
		<path d="M347,0H45C20.187,0,0,20.187,0,45v8.377c0,19.126,12.024,36.064,30,42.417v320.411c-17.976,6.353-30,23.291-30,42.417V467
			c0,24.813,20.187,45,45,45h302c24.813,0,45-20.187,45-45V45C392,20.187,371.813,0,347,0z M302,482H45c-8.271,0-15-6.729-15-15
			v-8.377c0-6.467,4.122-12.186,10.256-14.23c15.296-5.099,120.691-40.23,159.192-53.064c0.014-0.004,0.027-0.009,0.041-0.014
			l0.254-0.084c6.1-2.033,10.257-7.8,10.257-14.23V135c0-6.422-4.16-12.198-10.257-14.23l-0.254-0.084
			c-0.014-0.004-0.027-0.01-0.041-0.014C186.496,116.355,65.29,75.953,40.256,67.609C34.122,65.563,30,59.844,30,53.378V45
			c0-8.271,6.729-15,15-15h257v62.574c0,4.006-1.561,7.773-4.395,10.606l-12.425,12.427c-8.5,8.5-13.181,19.8-13.181,31.819v217.147
			c0,12.02,4.681,23.32,13.18,31.819l12.427,12.427c2.833,2.833,4.394,6.6,4.394,10.606V482z M90,195v122
			c0,28.507,15.99,53.347,39.47,66.032L60,406.189V105.812l69.47,23.156C105.99,141.653,90,166.493,90,195z M165,150h15v212h-15
			c-24.813,0-45-20.187-45-45V195C120,170.187,140.187,150,165,150z M362,467c0,8.271-6.729,15-15,15h-15v-62.574
			c0-12.02-4.681-23.32-13.18-31.819l-12.427-12.427c-2.833-2.833-4.394-6.6-4.394-10.606V147.426c0-4.006,1.561-7.773,4.395-10.606
			l12.425-12.427c8.5-8.5,13.181-19.8,13.181-31.819V30h15c8.271,0,15,6.729,15,15V467z"/>
	</g>
</g>
<g>
	<g>
		<path d="M507.606,64.394c-5.857-5.858-15.355-5.858-21.213,0l-60,60c-5.858,5.858-5.858,15.355,0,21.213
			c5.857,5.858,15.355,5.859,21.213,0l60-60C513.465,79.749,513.465,70.252,507.606,64.394z"/>
	</g>
</g>
<g>
	<g>
		<path d="M507.606,426.394l-60-60c-5.857-5.858-15.355-5.858-21.213,0c-5.858,5.858-5.858,15.355,0,21.213l60,60
			c5.857,5.858,15.355,5.859,21.213,0C513.464,441.749,513.464,432.252,507.606,426.394z"/>
	</g>
</g>
<g>
	<g>
		<path d="M497,241h-60c-8.284,0-15,6.716-15,15c0,8.284,6.716,15,15,15h60c8.284,0,15-6.716,15-15C512,247.716,505.284,241,497,241
			z"/>
	</g>
</g>
<g>
</g>
<g>
</g>
<g>
</g>
<g>
</g>
<g>
</g>
<g>
</g>
<g>
</g>
<g>
</g>
<g>
</g>
<g>
</g>
<g>
</g>
<g>
</g>
<g>
</g>
<g>
</g>
<g>
</g>
</svg>
