<?xml version="1.0" encoding="iso-8859-1"?>
<!-- Generator: Adobe Illustrator 19.0.0, SVG Export Plug-In . SVG Version: 6.00 Build 0)  -->
<svg version="1.1" id="Capa_1" xmlns="http://www.w3.org/2000/svg" xmlns:xlink="http://www.w3.org/1999/xlink" x="0px" y="0px"
	 viewBox="0 0 512.001 512.001" style="enable-background:new 0 0 512.001 512.001;" xml:space="preserve">
<g>
	<g>
		<path d="M497.001,331.001c-8.284,0-15,6.716-15,15v38.386l-58.18-21.727c-1.064-0.543-2.185-0.973-3.351-1.251l-159.221-59.46
			c-3.385-1.264-7.111-1.264-10.496,0L91.538,361.405c-1.171,0.279-2.297,0.71-3.365,1.256L30,384.387v-38.386
			c0-8.284-6.716-15-15-15s-15,6.716-15,15v60c0,0.025,0.004,0.048,0.004,0.073c0.032,6.341,4.063,11.837,9.697,13.96l241,91
			c1.708,0.645,3.503,0.967,5.299,0.967c1.796,0,3.591-0.322,5.299-0.967l241-91c5.704-2.149,9.666-7.643,9.698-13.959
			c0-0.025,0.004-0.048,0.004-0.073v-60C512.001,337.717,505.285,331.001,497.001,331.001z M336.178,361.954l37.74,14.093
			L336.5,389.993l-37.663-14.036L336.178,361.954z M256,332.012l37.369,13.955L256,359.98l-37.369-14.013L256,332.012z M256,392.009
			l37.546,13.992L256,419.993l-37.546-13.992L256,392.009z M94.758,420.084l-37.09-14.005l37.504-14.006l37.374,13.928
			L94.758,420.084z M174.965,450.368l-37.535-14.173l38.07-14.188l37.663,14.037L174.965,450.368z M175.5,389.993l-37.418-13.945
			l37.741-14.093l37.341,14.002L175.5,389.993z M256,480.967l-38.462-14.523L256,452.02l38.462,14.423L256,480.967z
			 M337.035,450.368l-38.198-14.324l37.663-14.036l38.07,14.188L337.035,450.368z M417.242,420.084l-37.788-14.083l37.374-13.928
			l37.504,14.006L417.242,420.084z"/>
	</g>
</g>
<g>
	<g>
		<path d="M384.398,58.973l-122-57.539c-4.067-1.918-8.78-1.91-12.84,0.021l-121,57.539C123.311,61.498,120,66.818,120,72.514
			c0,0.009-0.001,0.017-0.001,0.026v136.64c0,5.756,3.294,11.005,8.479,13.508l121,58.42c4.002,1.937,8.804,2.022,13,0.021
			l122-58.42c5.207-2.494,8.521-7.755,8.521-13.529V72.54c0-0.005,0-0.009,0-0.014C393,66.832,389.691,61.47,384.398,58.973z
			 M241,243.702l-91-43.936V96.868l91,45.741V243.702z M256.027,116.586l-86.884-43.673l86.883-41.315l87.603,41.316
			L256.027,116.586z M363,199.731l-92,44.055V142.642l92-45.865V199.731z"/>
	</g>
</g>
<g>
	<g>
		<path d="M15,150.001c-8.284,0-15,6.716-15,15v30c0,8.284,6.716,15,15,15s15-6.716,15-15v-30C30,156.717,23.284,150.001,15,150.001
			z"/>
	</g>
</g>
<g>
	<g>
		<path d="M15,240.001c-8.284,0-15,6.716-15,15v30c0,8.284,6.716,15,15,15s15-6.716,15-15v-30C30,246.717,23.284,240.001,15,240.001
			z"/>
	</g>
</g>
<g>
	<g>
		<path d="M15,60.001c-8.284,0-15,6.716-15,15v30c0,8.284,6.716,15,15,15s15-6.716,15-15v-30C30,66.717,23.284,60.001,15,60.001z"/>
	</g>
</g>
<g>
	<g>
		<path d="M497,150.001c-8.284,0-15,6.716-15,15v30c0,8.284,6.716,15,15,15s15-6.716,15-15v-30
			C512,156.717,505.284,150.001,497,150.001z"/>
	</g>
</g>
<g>
	<g>
		<path d="M497,240.001c-8.284,0-15,6.716-15,15v30c0,8.284,6.716,15,15,15s15-6.716,15-15v-30
			C512,246.717,505.284,240.001,497,240.001z"/>
	</g>
</g>
<g>
	<g>
		<path d="M497,60.001c-8.284,0-15,6.716-15,15v30c0,8.284,6.716,15,15,15s15-6.716,15-15v-30C512,66.717,505.284,60.001,497,60.001
			z"/>
	</g>
</g>
<g>
	<g>
		<path d="M75,90.001c-8.284,0-15,6.716-15,15v30c0,8.284,6.716,15,15,15s15-6.716,15-15v-30C90,96.717,83.284,90.001,75,90.001z"/>
	</g>
</g>
<g>
	<g>
		<path d="M75,180.001c-8.284,0-15,6.716-15,15v30c0,8.284,6.716,15,15,15s15-6.716,15-15v-30C90,186.717,83.284,180.001,75,180.001
			z"/>
	</g>
</g>
<g>
	<g>
		<path d="M75,270.001c-8.284,0-15,6.716-15,15v31c0,8.284,6.716,15,15,15s15-6.716,15-15v-31C90,276.717,83.284,270.001,75,270.001
			z"/>
	</g>
</g>
<g>
	<g>
		<path d="M75,0.001c-8.284,0-15,6.716-15,15v30c0,8.284,6.716,15,15,15s15-6.716,15-15v-30C90,6.717,83.284,0.001,75,0.001z"/>
	</g>
</g>
<g>
	<g>
		<path d="M437,90.001c-8.284,0-15,6.716-15,15v30c0,8.284,6.716,15,15,15s15-6.716,15-15v-30C452,96.717,445.284,90.001,437,90.001
			z"/>
	</g>
</g>
<g>
	<g>
		<path d="M437,180.001c-8.284,0-15,6.716-15,15v30c0,8.284,6.716,15,15,15s15-6.716,15-15v-30
			C452,186.717,445.284,180.001,437,180.001z"/>
	</g>
</g>
<g>
	<g>
		<path d="M437,270.001c-8.284,0-15,6.716-15,15v31c0,8.284,6.716,15,15,15s15-6.716,15-15v-31
			C452,276.717,445.284,270.001,437,270.001z"/>
	</g>
</g>
<g>
	<g>
		<path d="M437,0.001c-8.284,0-15,6.716-15,15v30c0,8.284,6.716,15,15,15s15-6.716,15-15v-30C452,6.717,445.284,0.001,437,0.001z"/>
	</g>
</g>
<g>
</g>
<g>
</g>
<g>
</g>
<g>
</g>
<g>
</g>
<g>
</g>
<g>
</g>
<g>
</g>
<g>
</g>
<g>
</g>
<g>
</g>
<g>
</g>
<g>
</g>
<g>
</g>
<g>
</g>
</svg>
