<?xml version="1.0" encoding="iso-8859-1"?>
<!-- Generator: Adobe Illustrator 19.0.0, SVG Export Plug-In . SVG Version: 6.00 Build 0)  -->
<svg version="1.1" id="Capa_1" xmlns="http://www.w3.org/2000/svg" xmlns:xlink="http://www.w3.org/1999/xlink" x="0px" y="0px"
	 viewBox="0 0 512 512" style="enable-background:new 0 0 512 512;" xml:space="preserve">
<g>
	<g>
		<path d="M497,181H256c-8.284,0-15,6.716-15,15v225h-92.99l-4.286-30H196c8.284,0,15-6.716,15-15V256c0-8.284-6.716-15-15-15H15
			c-8.284,0-15,6.716-15,15v120c0,8.284,6.716,15,15,15h51.276l-4.286,30c-10.057,0-36.948,0-46.99,0c-8.284,0-15,6.716-15,15
			s6.716,15,15,15h15v46c0,8.284,6.716,15,15,15h421c8.284,0,15-6.716,15-15v-46h16c8.284,0,15-6.716,15-15V196
			C512,187.716,505.284,181,497,181z M30,361v-90h151v90H30z M117.705,421h-25.41l4.286-30h16.838L117.705,421z M451,482H60v-31
			c7.822,0,368.849,0,391,0V482z M361,406c0-8.271,6.729-15,15-15s15,6.729,15,15s-6.729,15-15,15S361,414.271,361,406z M482,421
			c-22.29,0-41.581,0-63.58,0c1.665-4.695,2.58-9.742,2.58-15c0-24.813-20.187-45-45-45s-45,20.187-45,45
			c0,5.258,0.915,10.305,2.58,15H271V271h60v15c0,3.978,1.58,7.793,4.394,10.606l30,30c2.928,2.93,6.767,4.394,10.606,4.394
			s7.678-1.464,10.606-4.394l30-30C419.42,293.793,421,289.978,421,286v-15h61V421z M361,279.787V271h30v8.787l-15,15L361,279.787z
			 M482,241H271v-30h211V241z"/>
	</g>
</g>
<g>
	<g>
		<path d="M497,0H15C6.716,0,0,6.716,0,15s6.716,15,15,15h45v32.899C34.151,69.576,15,93.094,15,121
			c0,6.853,1.149,13.582,3.418,19.999C20.536,146.992,26.203,151,32.561,151h84.879c6.357,0,12.024-4.008,14.143-10.001
			C133.851,134.582,135,127.853,135,121c0-27.906-19.151-51.424-45-58.101V30h151v32.899c-25.849,6.677-45,30.195-45,58.101
			c0,6.853,1.149,13.582,3.418,19.999c2.118,5.994,7.785,10.001,14.143,10.001h84.879c6.357,0,12.024-4.008,14.143-10.001
			C314.851,134.582,316,127.853,316,121c0-27.906-19.151-51.424-45-58.101V30h150v32.899c-25.849,6.677-45,30.195-45,58.101
			c0,6.853,1.149,13.582,3.418,19.999c2.118,5.994,7.785,10.001,14.143,10.001h84.879c6.357,0,12.024-4.008,14.143-10.001
			C494.851,134.582,496,127.853,496,121c0-27.906-19.151-51.424-45-58.101V30h46c8.284,0,15-6.716,15-15S505.284,0,497,0z M105,121
			H45c0-16.542,13.458-30,30-30S105,104.458,105,121z M286,121h-60c0-16.542,13.458-30,30-30S286,104.458,286,121z M466,121h-60
			c0-16.542,13.458-30,30-30S466,104.458,466,121z"/>
	</g>
</g>
<g>
</g>
<g>
</g>
<g>
</g>
<g>
</g>
<g>
</g>
<g>
</g>
<g>
</g>
<g>
</g>
<g>
</g>
<g>
</g>
<g>
</g>
<g>
</g>
<g>
</g>
<g>
</g>
<g>
</g>
</svg>
