<?xml version="1.0" encoding="iso-8859-1"?>
<!-- Generator: Adobe Illustrator 19.0.0, SVG Export Plug-In . SVG Version: 6.00 Build 0)  -->
<svg version="1.1" id="Capa_1" xmlns="http://www.w3.org/2000/svg" xmlns:xlink="http://www.w3.org/1999/xlink" x="0px" y="0px"
	 viewBox="0 0 512 512" style="enable-background:new 0 0 512 512;" xml:space="preserve">
<g>
	<g>
		<path d="M489.886,383.815L380.785,277.761c7.801-16.472,5.086-37.091-8.885-51.061c-4.046-4.046-8.682-7.147-13.629-9.327
			l13.453-13.454c37.834,13.48,80.682,4.169,109.526-24.674c31.416-31.416,39.663-79.445,20.521-119.517
			c-2.1-4.394-6.2-7.495-10.999-8.318c-4.8-0.823-9.7,0.734-13.143,4.178L428.217,105l-21.213-21.213l49.411-49.411
			c3.443-3.443,5.001-8.343,4.178-13.142s-3.925-8.9-8.318-11c-40.071-19.142-88.1-10.895-119.517,20.521
			c-28.876,28.875-38.177,71.787-24.629,109.653l-52.527,53.825L157.007,93.724V57.426c0-5.674-3.202-10.863-8.274-13.408
			L64.16,1.593c-5.777-2.898-12.762-1.771-17.332,2.801L4.402,46.82c-4.57,4.57-5.699,11.555-2.801,17.333l42.427,84.573
			c2.544,5.072,7.732,8.274,13.407,8.274h36.112l98.52,100.789l-51.645,50.35c-37.868-13.552-80.782-4.25-109.658,24.627
			C-0.653,364.181-8.9,412.21,10.242,452.281c2.1,4.394,6.2,7.495,10.999,8.318c4.798,0.823,9.7-0.734,13.143-4.178l49.411-49.411
			l21.214,21.213l-49.411,49.412c-3.443,3.443-5.001,8.343-4.178,13.142c0.823,4.799,3.925,8.9,8.318,11
			c40.247,19.225,88.239,10.756,119.516-20.521c28.843-28.843,38.155-71.692,24.674-109.526l10.142-10.143
			c2.218,5.006,5.353,9.616,9.341,13.604c14.108,14.109,34.905,16.694,51.392,8.718l109.25,106.198
			c29.108,29.022,76.629,29.279,105.986-0.079c29.242-29.242,29.242-76.822,0-106.064
			C489.987,383.914,489.936,383.864,489.886,383.815z M336.509,154.281c4.394-4.502,5.511-11.267,2.8-16.942
			c-13.673-28.621-7.78-62.928,14.663-85.372c16.965-16.965,40.707-24.475,63.648-21.223L375.185,73.18
			c-5.858,5.857-5.858,15.355,0,21.213l42.425,42.427c5.854,5.855,15.357,5.857,21.213,0l42.437-42.436
			c3.249,22.942-4.259,46.685-21.223,63.649c-22.443,22.443-56.75,28.335-85.372,14.664c-5.734-2.742-12.576-1.568-17.073,2.928
			l-60.697,60.702l-20.279-20.672L336.509,154.281z M66.691,126.999L33.271,60.377l27.116-27.115l66.621,33.421v26.956l-33.36,33.36
			H66.691z M120.953,142.119l20.952-20.952l133.777,136.373l-21.191,21.193L120.953,142.119z M175.632,357.6
			c-4.495,4.495-5.669,11.336-2.929,17.072c13.673,28.62,7.78,62.928-14.663,85.372c-16.966,16.965-40.713,24.473-63.647,21.222
			l42.436-42.435c5.854-5.853,5.858-15.356,0-21.213l-42.427-42.426c-5.857-5.858-15.355-5.858-21.213,0l-42.436,42.436
			c-3.249-22.941,4.259-46.685,21.223-63.648c22.443-22.443,56.75-28.336,85.372-14.664c5.676,2.71,12.435,1.594,16.937-2.795
			l58.752-57.279l20.242,20.708L175.632,357.6z M265.835,353.978c-5.851,5.85-15.365,5.848-21.214,0
			c-5.863-5.863-5.863-15.349,0-21.213l84.852-84.852c5.848-5.848,15.364-5.848,21.214,0c5.863,5.863,5.863,15.349,0,21.213
			L265.835,353.978z M468.824,468.815c-17.547,17.545-46.093,17.545-63.64,0c-0.05-0.05-0.101-0.1-0.151-0.149L297.805,364.433
			l63.636-63.636L468.89,405.243C486.368,422.794,486.346,451.293,468.824,468.815z"/>
	</g>
</g>
<g>
</g>
<g>
</g>
<g>
</g>
<g>
</g>
<g>
</g>
<g>
</g>
<g>
</g>
<g>
</g>
<g>
</g>
<g>
</g>
<g>
</g>
<g>
</g>
<g>
</g>
<g>
</g>
<g>
</g>
</svg>
