<?xml version="1.0" encoding="iso-8859-1"?>
<!-- Generator: Adobe Illustrator 19.0.0, SVG Export Plug-In . SVG Version: 6.00 Build 0)  -->
<svg version="1.1" id="Capa_1" xmlns="http://www.w3.org/2000/svg" xmlns:xlink="http://www.w3.org/1999/xlink" x="0px" y="0px"
	 viewBox="0 0 512 512" style="enable-background:new 0 0 512 512;" xml:space="preserve">
<g>
	<g>
		<circle cx="346" cy="256" r="15"/>
	</g>
</g>
<g>
	<g>
		<circle cx="346" cy="316" r="15"/>
	</g>
</g>
<g>
	<g>
		<circle cx="346" cy="376" r="15"/>
	</g>
</g>
<g>
	<g>
		<path d="M361,92.507V91h15c8.284,0,15-6.716,15-15V15c0-8.284-6.716-15-15-15H136c-8.284,0-15,6.716-15,15v61
			c0,8.284,6.716,15,15,15h15v1.507C116.81,99.476,91,129.781,91,166c0,39.067,0,268.739,0,301c0,24.813,20.187,45,45,45h240
			c24.813,0,45-20.187,45-45c0-39.067,0-268.739,0-301C421,129.781,395.19,99.476,361,92.507z M331,30h30v31
			c-10.492,0-19.508,0-30,0V30z M271,30h30v31h-30V30z M211,30h30v31h-30V30z M151,30h30v31c-10.492,0-19.508,0-30,0V30z M391,467
			c0,8.271-6.729,15-15,15H136c-8.271,0-15-6.729-15-15v-15h270V467z M391,422H121V211h270V422z M391,181H121v-15
			c0-24.813,20.187-45,45-45c8.284,0,15-6.716,15-15V91h150v15c0,8.284,6.716,15,15,15c24.813,0,45,20.187,45,45V181z"/>
	</g>
</g>
<g>
	<g>
		<path d="M286,241H166c-8.284,0-15,6.716-15,15v60c0,8.284,6.716,15,15,15h120c8.284,0,15-6.716,15-15v-60
			C301,247.716,294.284,241,286,241z M271,301h-90v-30h90V301z"/>
	</g>
</g>
<g>
	<g>
		<path d="M286,361H166c-8.284,0-15,6.716-15,15s6.716,15,15,15h120c8.284,0,15-6.716,15-15S294.284,361,286,361z"/>
	</g>
</g>
<g>
</g>
<g>
</g>
<g>
</g>
<g>
</g>
<g>
</g>
<g>
</g>
<g>
</g>
<g>
</g>
<g>
</g>
<g>
</g>
<g>
</g>
<g>
</g>
<g>
</g>
<g>
</g>
<g>
</g>
</svg>
