<?xml version="1.0" encoding="iso-8859-1"?>
<!-- Generator: Adobe Illustrator 19.0.0, SVG Export Plug-In . SVG Version: 6.00 Build 0)  -->
<svg version="1.1" id="Capa_1" xmlns="http://www.w3.org/2000/svg" xmlns:xlink="http://www.w3.org/1999/xlink" x="0px" y="0px"
	 viewBox="0 0 512 512" style="enable-background:new 0 0 512 512;" xml:space="preserve">
<g>
	<g>
		<path d="M406,0H106C81.187,0,61,20.187,61,45v422c0,24.813,20.187,45,45,45h300c24.813,0,45-20.187,45-45V45
			C451,20.187,430.813,0,406,0z M421,467c0,8.271-6.729,15-15,15H106c-8.271,0-15-6.729-15-15v-15h330V467z M421,422H91V90h330V422z
			 M421,60H91V45c0-8.271,6.729-15,15-15h300c8.271,0,15,6.729,15,15V60z"/>
	</g>
</g>
<g>
	<g>
		<path d="M352.519,191.574l-89.8-51.846c-4.652-2.687-10.39-2.679-15.036,0.021l-89.219,51.846
			c-4.594,2.672-7.464,7.645-7.464,12.969v103.692c0,5.344,2.843,10.284,7.464,12.969l87.608,50.91
			c2.271,1.688,5.031,2.744,8.034,2.922c0.166,0.012,0.332,0.018,0.498,0.025c0.133,0.004,0.262,0.02,0.396,0.02
			c0.029,0,0.057-0.004,0.086-0.004c0.044,0,0.089,0.004,0.133,0.004c2.589,0,5.18-0.67,7.5-2.01l89.8-51.846
			c4.641-2.68,7.4-7.632,7.4-12.99V204.564C359.919,199.114,357.037,194.181,352.519,191.574z M240,333.909l-59-34.286v-68.994
			l59,34.285V333.909z M255.243,239.075l-59.389-34.511l59.389-34.511l59.775,34.511L255.243,239.075z M330.019,299.596L270,334.248
			v-69.051l60.019-34.652V299.596z"/>
	</g>
</g>
<g>
</g>
<g>
</g>
<g>
</g>
<g>
</g>
<g>
</g>
<g>
</g>
<g>
</g>
<g>
</g>
<g>
</g>
<g>
</g>
<g>
</g>
<g>
</g>
<g>
</g>
<g>
</g>
<g>
</g>
</svg>
