<?xml version="1.0" encoding="iso-8859-1"?>
<!-- Generator: Adobe Illustrator 19.0.0, SVG Export Plug-In . SVG Version: 6.00 Build 0)  -->
<svg version="1.1" id="Capa_1" xmlns="http://www.w3.org/2000/svg" xmlns:xlink="http://www.w3.org/1999/xlink" x="0px" y="0px"
	 viewBox="0 0 512 512" style="enable-background:new 0 0 512 512;" xml:space="preserve">
<g>
	<g>
		<path d="M509.481,217.68l-60-90c-2.781-4.173-7.465-6.68-12.48-6.68H331V75c0-8.284-6.716-15-15-15H90V15c0-8.284-6.716-15-15-15
			H60C26.916,0,0,26.916,0,60v392c0,33.084,26.916,60,60,60h256c8.284,0,15-6.716,15-15v-45c18.967,0,121.091,0,136,0
			c8.284,0,15-6.716,15-15V241h15c5.532,0,10.615-3.045,13.225-7.922C512.835,228.201,512.55,222.283,509.481,217.68z M30,60
			c0-16.542,13.458-30,30-30v362c-10.92,0-21.17,2.933-30,8.052V60z M301,482H60c-16.542,0-30-13.458-30-30s13.458-30,30-30
			c3.438,0,6.804,0.573,10.001,1.703c4.591,1.623,9.684,0.916,13.66-1.896C87.637,418.996,90,414.43,90,409.561V90h211v31H196
			c-5.015,0-9.699,2.506-12.481,6.68l-60,90c-3.068,4.603-3.354,10.521-0.744,15.398c2.61,4.877,7.693,7.922,13.225,7.922h15v196
			c0,8.284,6.716,15,15,15c15.8,0,113.591,0,135,0V482z M362,422h-91V301h91V422z M452,422h-60V286c0-8.284-6.716-15-15-15H256
			c-8.284,0-15,6.716-15,15v136h-60V241h271V422z M467,211H166h-1.972l40-60h224.945l40,60H467z"/>
	</g>
</g>
<g>
</g>
<g>
</g>
<g>
</g>
<g>
</g>
<g>
</g>
<g>
</g>
<g>
</g>
<g>
</g>
<g>
</g>
<g>
</g>
<g>
</g>
<g>
</g>
<g>
</g>
<g>
</g>
<g>
</g>
</svg>
