<?xml version="1.0" encoding="iso-8859-1"?>
<!-- Generator: Adobe Illustrator 19.0.0, SVG Export Plug-In . SVG Version: 6.00 Build 0)  -->
<svg version="1.1" id="Capa_1" xmlns="http://www.w3.org/2000/svg" xmlns:xlink="http://www.w3.org/1999/xlink" x="0px" y="0px"
	 viewBox="0 0 512 512" style="enable-background:new 0 0 512 512;" xml:space="preserve">
<g>
	<g>
		<path d="M451,0C432.685,0,111.512,0,91,0c-8.284,0-15,6.716-15,15s6.716,15,15,15h75v15c0,19.555,12.541,36.228,30,42.42V136
			c0,2.86,0.864,5.84,2.519,8.32l0.028,0.042c0.01,0.014,0.019,0.029,0.028,0.043L256,230.542V272h-14.586
			c-44.516,0-81.588,32.489-88.75,75H151c-57.897,0-105,47.103-105,105v15c0,8.284,6.716,15,15,15h47.58
			c6.192,17.458,22.865,30,42.42,30s36.228-12.542,42.42-30h110.16c6.192,17.458,22.865,30,42.42,30
			c19.555,0,36.228-12.542,42.42-30H436c8.284,0,15-6.716,15-15v-45c0-36.587-26.331-67.139-61.04-73.698
			C383.344,305.153,345.971,272,301,272h-15v-41.458l57.42-86.131c0.013-0.019,0.025-0.038,0.038-0.057l0.022-0.033
			c1.688-2.531,2.52-5.469,2.52-8.32V87.42c17.459-6.192,30-22.865,30-42.42V30h75c8.284,0,15-6.716,15-15S459.284,0,451,0z
			 M241.414,302H256v45h-72.687C189.99,321.151,213.508,302,241.414,302z M151,482c-8.271,0-15-6.729-15-15s6.729-15,15-15
			s15,6.729,15,15S159.271,482,151,482z M346,482c-8.271,0-15-6.729-15-15s6.729-15,15-15s15,6.729,15,15S354.271,482,346,482z
			 M376,377c24.813,0,45,20.187,45,45v30h-32.58c-6.192-17.458-22.865-30-42.42-30s-36.228,12.542-42.42,30H193.42
			c-6.192-17.458-22.865-30-42.42-30s-36.228,12.542-42.42,30H76c0-41.355,33.645-75,75-75h15.414H376z M301,302
			c27.906,0,51.424,19.151,58.101,45H286v-45H301z M271,198.958L239.028,151h63.945L271,198.958z M316,121h-90V90h90V121z M346,45
			c0,8.271-6.729,15-15,15H211c-8.271,0-15-6.729-15-15V30h150V45z"/>
	</g>
</g>
<g>
</g>
<g>
</g>
<g>
</g>
<g>
</g>
<g>
</g>
<g>
</g>
<g>
</g>
<g>
</g>
<g>
</g>
<g>
</g>
<g>
</g>
<g>
</g>
<g>
</g>
<g>
</g>
<g>
</g>
</svg>
