<?xml version="1.0" encoding="iso-8859-1"?>
<!-- Generator: Adobe Illustrator 19.0.0, SVG Export Plug-In . SVG Version: 6.00 Build 0)  -->
<svg version="1.1" id="Capa_1" xmlns="http://www.w3.org/2000/svg" xmlns:xlink="http://www.w3.org/1999/xlink" x="0px" y="0px"
	 viewBox="0 0 512 512" style="enable-background:new 0 0 512 512;" xml:space="preserve">
<g>
	<g>
		<path d="M452,91c-8.21,0-193.804,0-196,0c-8.284,0-15,6.716-15,15v60c0,57.897,47.103,105,105,105c42.2,0,78.715-24.557,95.759-60
			H452c33.084,0,60-26.916,60-60S485.084,91,452,91z M422,166c0,41.355-34.094,75-76,75c-41.355,0-75-33.645-75-75v-45
			c22.336,0,146.11,0,151,0V166z M452,181h-1.086c0.711-4.901,1.086-9.907,1.086-15v-45c16.542,0,30,13.458,30,30
			S468.542,181,452,181z"/>
	</g>
</g>
<g>
	<g>
		<path d="M497,361H91v-90h30v15c0,24.813,20.187,45,45,45h60c8.284,0,15-6.716,15-15s-6.716-15-15-15h-60c-8.271,0-15-6.729-15-15
			v-15h15c24.813,0,45-20.187,45-45s-20.187-45-45-45h-15v-30h15c24.813,0,45-20.187,45-45s-20.187-45-45-45h-15V46
			c0-8.523,7.009-16,15-16h60c8.284,0,15-6.716,15-15s-6.716-15-15-15h-60c-24.858,0-45,21.096-45,46v15H91V15
			c0-8.284-6.716-15-15-15H15C6.716,0,0,6.716,0,15c0,5.694,0,473.383,0,482c0,8.284,6.716,15,15,15c15.248,0,456.028,0,482,0
			c8.284,0,15-6.716,15-15V376C512,367.716,505.284,361,497,361z M151,91h15c8.271,0,15,6.729,15,15s-6.729,15-15,15h-15V91z
			 M151,211h15c8.271,0,15,6.729,15,15s-6.729,15-15,15h-15V211z M91,91h30c0,46.626,0,103.327,0,150H91V91z M61,256v226H30
			c0-7.279,0-443.792,0-452h31C61,39.89,61,246.032,61,256z M482,482H91v-91h391V482z"/>
	</g>
</g>
<g>
	<g>
		<path d="M316,0h-30c-8.284,0-15,6.716-15,15s6.716,15,15,15h30c8.284,0,15-6.716,15-15S324.284,0,316,0z"/>
	</g>
</g>
<g>
	<g>
		<path d="M316,301h-30c-8.284,0-15,6.716-15,15s6.716,15,15,15h30c8.284,0,15-6.716,15-15S324.284,301,316,301z"/>
	</g>
</g>
<g>
	<g>
		<path d="M407,301h-31c-8.284,0-15,6.716-15,15s6.716,15,15,15h31c8.284,0,15-6.716,15-15S415.284,301,407,301z"/>
	</g>
</g>
<g>
	<g>
		<path d="M497,301h-30c-8.284,0-15,6.716-15,15s6.716,15,15,15h30c8.284,0,15-6.716,15-15S505.284,301,497,301z"/>
	</g>
</g>
<g>
	<g>
		<path d="M407,0h-31c-8.284,0-15,6.716-15,15s6.716,15,15,15h31c8.284,0,15-6.716,15-15S415.284,0,407,0z"/>
	</g>
</g>
<g>
	<g>
		<path d="M497,0h-30c-8.284,0-15,6.716-15,15s6.716,15,15,15h30c8.284,0,15-6.716,15-15S505.284,0,497,0z"/>
	</g>
</g>
<g>
	<g>
		<circle cx="136" cy="436" r="15"/>
	</g>
</g>
<g>
	<g>
		<circle cx="196" cy="436" r="15"/>
	</g>
</g>
<g>
	<g>
		<path d="M376,421H256c-8.284,0-15,6.716-15,15s6.716,15,15,15h120c8.284,0,15-6.716,15-15S384.284,421,376,421z"/>
	</g>
</g>
<g>
</g>
<g>
</g>
<g>
</g>
<g>
</g>
<g>
</g>
<g>
</g>
<g>
</g>
<g>
</g>
<g>
</g>
<g>
</g>
<g>
</g>
<g>
</g>
<g>
</g>
<g>
</g>
<g>
</g>
</svg>
