<?xml version="1.0" encoding="iso-8859-1"?>
<!-- Generator: Adobe Illustrator 19.0.0, SVG Export Plug-In . SVG Version: 6.00 Build 0)  -->
<svg version="1.1" id="Capa_1" xmlns="http://www.w3.org/2000/svg" xmlns:xlink="http://www.w3.org/1999/xlink" x="0px" y="0px"
	 viewBox="0 0 512 512" style="enable-background:new 0 0 512 512;" xml:space="preserve">
<g>
	<g>
		<path d="M497,120h-15V45c0-24.813-20.187-45-45-45H241c-24.813,0-45,20.187-45,45v15h-45c-8.284,0-15,6.716-15,15v15H30V75
			c0-8.284-6.716-15-15-15S0,66.716,0,75v30c0,8.367,0,386.714,0,392c0,8.284,6.716,15,15,15s15-6.716,15-15v-15h361v15
			c0,8.284,6.716,15,15,15s15-6.716,15-15c0-22.155,0-83.416,0-106h76c8.284,0,15-6.716,15-15V135C512,126.716,505.284,120,497,120z
			 M166,90h90v30h-90V90z M211,331c-16.542,0-30-13.458-30-30s13.458-30,30-30s30,13.458,30,30S227.542,331,211,331z M301,361v30
			H121v-30H301z M196,158.787V150h30v8.787l-15,15L196,158.787z M30,120h106v15c0,8.284,6.716,15,15,15h15v15
			c0,3.978,1.581,7.793,4.394,10.606L196,201.213v41.686c-25.849,6.677-45,30.195-45,58.101c0,10.925,2.949,21.167,8.072,30H76
			c-8.284,0-15,6.716-15,15s6.716,15,15,15h15v30H30V120z M391,452H30v-31h361V452z M391,391h-60v-30h15c8.284,0,15-6.716,15-15
			s-6.716-15-15-15h-83.072c5.123-8.833,8.072-19.075,8.072-30c0-27.906-19.151-51.424-45-58.101v-41.686l25.606-25.606
			C254.419,172.793,256,168.978,256,165v-15h15c8.284,0,15-6.716,15-15v-15h105C391,132.764,391,372.508,391,391z M406,60
			c-8.284,0-15,6.716-15,15v15H286V75c0-8.284-6.716-15-15-15h-45V45c0-8.271,6.729-15,15-15h196c8.271,0,15,6.729,15,15v75h-31
			c0-14.095,0-30.95,0-45C421,66.716,414.284,60,406,60z M482,361h-61V150h61V361z"/>
	</g>
</g>
<g>
</g>
<g>
</g>
<g>
</g>
<g>
</g>
<g>
</g>
<g>
</g>
<g>
</g>
<g>
</g>
<g>
</g>
<g>
</g>
<g>
</g>
<g>
</g>
<g>
</g>
<g>
</g>
<g>
</g>
</svg>
