<?xml version="1.0" encoding="iso-8859-1"?>
<!-- Generator: Adobe Illustrator 19.0.0, SVG Export Plug-In . SVG Version: 6.00 Build 0)  -->
<svg version="1.1" id="Capa_1" xmlns="http://www.w3.org/2000/svg" xmlns:xlink="http://www.w3.org/1999/xlink" x="0px" y="0px"
	 viewBox="0 0 512 512" style="enable-background:new 0 0 512 512;" xml:space="preserve">
<g>
	<g>
		<path d="M451.5,0h-391c-24.813,0-45,20.187-45,45v422c0,24.813,20.187,45,45,45h330.987c0.003,0,0.007,0,0.01,0
			c3.847,0,7.754-1.538,10.612-4.396l89.995-89.995c0.005-0.005,0.009-0.01,0.014-0.015c2.85-2.856,4.382-6.761,4.382-10.594V45
			C496.5,20.187,476.313,0,451.5,0z M406.5,460.787V422h38.787L406.5,460.787z M466.5,392h-75c-8.284,0-15,6.716-15,15v75h-316
			c-8.271,0-15-6.729-15-15V45c0-8.271,6.729-15,15-15h391c8.271,0,15,6.729,15,15V392z"/>
	</g>
</g>
<g>
	<g>
		<path d="M372.105,245.393c-5.857-5.858-15.355-5.858-21.213,0c-5.858,5.858-5.858,15.355,0,21.213l4.394,4.394H253.92
			c-6.192-17.458-22.865-30-42.42-30s-36.228,12.542-42.42,30h-2.58c-16.542,0-30-13.458-30-30s13.458-30,30-30h92.58
			c6.192,17.458,22.865,30,42.42,30s36.228-12.542,42.42-30h2.58c33.084,0,60-26.916,60-60s-26.916-60-60-60H193.92
			c-6.192-17.458-22.865-30-42.42-30c-24.813,0-45,20.187-45,45s20.187,45,45,45c19.555,0,36.228-12.542,42.42-30H346.5
			c16.542,0,30,13.458,30,30s-13.458,30-30,30h-2.58c-6.192-17.458-22.865-30-42.42-30c-19.555,0-36.228,12.542-42.42,30H166.5
			c-33.084,0-60,26.916-60,60s26.916,60,60,60h2.58c6.192,17.458,22.865,30,42.42,30s36.228-12.542,42.42-30h101.367l-4.394,4.394
			c-5.858,5.858-5.858,15.355,0,21.213c2.929,2.929,6.768,4.394,10.606,4.394c3.838,0,7.678-1.464,10.606-4.394l29.997-29.998
			c5.844-5.84,5.843-15.379,0-21.218L372.105,245.393z M151.5,121c-8.271,0-15-6.729-15-15s6.729-15,15-15s15,6.729,15,15
			S159.771,121,151.5,121z M301.5,181c8.271,0,15,6.729,15,15s-6.728,15-15,15c-8.271,0-15-6.729-15-15S293.229,181,301.5,181z
			 M211.5,301c-8.271,0-15-6.729-15-15s6.729-15,15-15s15,6.729,15,15S219.771,301,211.5,301z"/>
	</g>
</g>
<g>
	<g>
		<path d="M181.5,362h-60c-8.284,0-15,6.716-15,15s6.716,15,15,15h60c8.284,0,15-6.716,15-15S189.784,362,181.5,362z"/>
	</g>
</g>
<g>
	<g>
		<path d="M241.5,422h-120c-8.284,0-15,6.716-15,15s6.716,15,15,15h120c8.284,0,15-6.716,15-15S249.784,422,241.5,422z"/>
	</g>
</g>
<g>
</g>
<g>
</g>
<g>
</g>
<g>
</g>
<g>
</g>
<g>
</g>
<g>
</g>
<g>
</g>
<g>
</g>
<g>
</g>
<g>
</g>
<g>
</g>
<g>
</g>
<g>
</g>
<g>
</g>
</svg>
