<?xml version="1.0" encoding="iso-8859-1"?>
<!-- Generator: Adobe Illustrator 19.0.0, SVG Export Plug-In . SVG Version: 6.00 Build 0)  -->
<svg version="1.1" id="Capa_1" xmlns="http://www.w3.org/2000/svg" xmlns:xlink="http://www.w3.org/1999/xlink" x="0px" y="0px"
	 viewBox="0 0 512 512" style="enable-background:new 0 0 512 512;" xml:space="preserve">
<g>
	<g>
		<path d="M45.011,0h-30c-8.284,0-15,6.716-15,15v30.563c0,8.285,6.715,15,15,15c8.284,0,15-6.716,15-15V30h15
			c8.284,0,15-6.716,15-15S53.295,0,45.011,0z"/>
	</g>
</g>
<g>
	<g>
		<path d="M15.011,90.563c-8.284,0-15,6.716-15,15v30c0,8.285,6.715,15,15,15c8.284,0,15-6.716,15-15v-30
			C30.011,97.279,23.295,90.563,15.011,90.563z"/>
	</g>
</g>
<g>
	<g>
		<path d="M135.011,0h-30c-8.284,0-15,6.716-15,15s6.716,15,15,15h30c8.284,0,15-6.716,15-15S143.295,0,135.011,0z"/>
	</g>
</g>
<g>
	<g>
		<circle cx="297.33" cy="172.43" r="15"/>
	</g>
</g>
<g>
	<g>
		<path d="M498.83,13.3c-17.545-17.545-46.094-17.545-63.639,0L403.37,45.12l-10.58-10.58c-4.565-4.566-11.543-5.697-17.314-2.81
			l-84.853,42.426c-1.542,0.771-3.404,2.164-4.681,3.655L31.385,374.796c-0.004,0.005-0.007,0.01-0.012,0.015
			c-1.176,1.375-2.195,3.114-2.82,4.975c-0.003,0.01-0.007,0.019-0.01,0.028L7.33,443.454c-1.796,5.39-0.394,11.333,3.624,15.35
			l10.573,10.573L4.437,486.36c-5.876,5.839-5.906,15.337-0.066,21.213c5.832,5.869,15.329,5.913,21.213,0.067l17.157-17.049
			l10.64,10.64c4.031,4.032,9.978,5.414,15.35,3.624l63.64-21.213c1.697-0.566,3.518-1.561,5-2.827
			c0.006-0.005,0.012-0.009,0.018-0.014l296.985-254.558c1.487-1.275,2.869-3.11,3.654-4.681l42.427-84.853
			c2.888-5.775,1.756-12.75-2.81-17.315l-10.634-10.634l31.819-31.82C516.376,59.394,516.376,30.846,498.83,13.3z M219.854,201.014
			l35.052,35.052l-127.28,127.279l-25.261-25.261L219.854,201.014z M68.038,473.462l-29.315-29.316l10.606-31.82l50.529,50.529
			L68.038,473.462z M128.41,448.981l-65.209-65.209l19.583-22.844l34.236,34.236c2.929,2.929,6.767,4.394,10.606,4.393
			c3.838,0,7.678-1.465,10.606-4.393l148.493-148.492c2.813-2.813,4.394-6.628,4.394-10.607s-1.58-7.794-4.394-10.607l-47.29-47.29
			l58.744-68.535c5.802,5.802,98.569,98.57,104.371,104.371L128.41,448.981z M420.502,189.529l-97.847-97.847l56.568-28.284
			l69.563,69.563L420.502,189.529z M477.617,55.726l-31.819,31.82l-20.044-20.044l-1.169-1.169l31.819-31.82
			c5.85-5.848,15.365-5.848,21.213,0C483.466,40.361,483.466,49.878,477.617,55.726z"/>
	</g>
</g>
<g>
	<g>
		<path d="M15.011,178c-8.284,0-15,6.716-15,15v30c0,8.284,6.715,15,15,15c8.284,0,15-6.716,15-15v-30
			C30.011,184.716,23.295,178,15.011,178z"/>
	</g>
</g>
<g>
	<g>
		<path d="M15.011,268c-8.284,0-15,6.716-15,15v30c0,8.284,6.715,15,15,15c8.284,0,15-6.716,15-15v-30
			C30.011,274.716,23.295,268,15.011,268z"/>
	</g>
</g>
<g>
	<g>
		<path d="M227.574,0h-30c-8.284,0-15,6.716-15,15s6.716,15,15,15h30c8.284,0,15-6.716,15-15S235.858,0,227.574,0z"/>
	</g>
</g>
<g>
	<g>
		<path d="M317.574,0h-30c-8.284,0-15,6.716-15,15s6.716,15,15,15h30c8.284,0,15-6.716,15-15S325.858,0,317.574,0z"/>
	</g>
</g>
<g>
</g>
<g>
</g>
<g>
</g>
<g>
</g>
<g>
</g>
<g>
</g>
<g>
</g>
<g>
</g>
<g>
</g>
<g>
</g>
<g>
</g>
<g>
</g>
<g>
</g>
<g>
</g>
<g>
</g>
</svg>
