<?xml version="1.0" encoding="iso-8859-1"?>
<!-- Generator: Adobe Illustrator 19.0.0, SVG Export Plug-In . SVG Version: 6.00 Build 0)  -->
<svg version="1.1" id="Capa_1" xmlns="http://www.w3.org/2000/svg" xmlns:xlink="http://www.w3.org/1999/xlink" x="0px" y="0px"
	 viewBox="0 0 512 512" style="enable-background:new 0 0 512 512;" xml:space="preserve">
<g>
	<g>
		<path d="M261.517,251.45l-89.8-51.846c-4.653-2.687-10.389-2.679-15.037,0.021l-89.218,51.846
			C63.033,254.042,60,258.948,60,264.44v103.692c0,5.344,2.843,10.284,7.463,12.969l87.611,50.912
			c4.668,3.468,11.319,4.029,16.643,0.955l89.8-51.846c4.641-2.68,7.4-7.632,7.4-12.99V264.44
			C268.917,259.11,266.14,254.117,261.517,251.45z M149,393.786L90,359.5v-68.994l59,34.286V393.786z M164.243,298.951
			l-59.388-34.511l59.388-34.511l59.775,34.511L164.243,298.951z M239.018,359.472L179,394.123v-69.051l60.018-34.651V359.472z"/>
	</g>
</g>
<g>
	<g>
		<circle cx="75" cy="75" r="15"/>
	</g>
</g>
<g>
	<g>
		<circle cx="135" cy="75" r="15"/>
	</g>
</g>
<g>
	<g>
		<circle cx="195" cy="75" r="15"/>
	</g>
</g>
<g>
	<g>
		<path d="M467,0H45C20.187,0,0,20.187,0,45c0,10.015,0,409.639,0,422c0,24.813,20.187,45,45,45h422c24.813,0,45-20.187,45-45
			c0-12.068,0-411.125,0-422C512,20.187,491.813,0,467,0z M482,467c0,8.271-6.729,15-15,15H45c-8.271,0-15-6.729-15-15V150h452V467z
			 M482,120H30V45c0-8.271,6.729-15,15-15h422c8.271,0,15,6.729,15,15V120z"/>
	</g>
</g>
<g>
	<g>
		<path d="M437,211h-61c-8.284,0-15,6.716-15,15s6.716,15,15,15h61c8.284,0,15-6.716,15-15S445.284,211,437,211z"/>
	</g>
</g>
<g>
	<g>
		<path d="M437,271H316c-8.284,0-15,6.716-15,15s6.716,15,15,15h121c8.284,0,15-6.716,15-15S445.284,271,437,271z"/>
	</g>
</g>
<g>
	<g>
		<path d="M437,331H316c-8.284,0-15,6.716-15,15s6.716,15,15,15h121c8.284,0,15-6.716,15-15S445.284,331,437,331z"/>
	</g>
</g>
<g>
	<g>
		<path d="M437,391H316c-8.284,0-15,6.716-15,15s6.716,15,15,15h121c8.284,0,15-6.716,15-15S445.284,391,437,391z"/>
	</g>
</g>
<g>
</g>
<g>
</g>
<g>
</g>
<g>
</g>
<g>
</g>
<g>
</g>
<g>
</g>
<g>
</g>
<g>
</g>
<g>
</g>
<g>
</g>
<g>
</g>
<g>
</g>
<g>
</g>
<g>
</g>
</svg>
