<?xml version="1.0" encoding="iso-8859-1"?>
<!-- Generator: Adobe Illustrator 19.0.0, SVG Export Plug-In . SVG Version: 6.00 Build 0)  -->
<svg version="1.1" id="Capa_1" xmlns="http://www.w3.org/2000/svg" xmlns:xlink="http://www.w3.org/1999/xlink" x="0px" y="0px"
	 viewBox="0 0 512 512" style="enable-background:new 0 0 512 512;" xml:space="preserve">
<g>
	<g>
		<path d="M467,422h-76c-19.555,0-36.228-12.541-42.42-30H406c24.813,0,45-20.187,45-45v-30c0-8.284-6.716-15-15-15h-32.58
			c1.665-4.695,2.58-9.742,2.58-15c0-11.517-4.354-22.032-11.495-30c7.141-7.968,11.495-18.483,11.495-30
			c0-11.517-4.354-22.032-11.495-30c7.141-7.968,11.495-18.483,11.495-30c0-5.258-0.915-10.305-2.58-15H436c8.284,0,15-6.716,15-15
			v-30c0-24.813-20.187-45-45-45H299.53C292.83,28.115,263.05,0,226,0c-37.038,0-66.828,28.103-73.53,62H45
			C20.187,62,0,82.187,0,107v30c0,8.284,6.716,15,15,15h32.58c-1.665,4.695-2.58,9.742-2.58,15c0,11.517,4.354,22.032,11.495,30
			C49.354,204.968,45,215.483,45,227c0,11.517,4.354,22.032,11.495,30C49.354,264.968,45,275.483,45,287
			c0,5.258,0.915,10.305,2.58,15H15c-8.284,0-15,6.716-15,15v30c0,24.813,20.187,45,45,45h107.509c6.968,34.192,37.271,60,73.491,60
			c16.187,0,31.65-5.204,44.336-14.507C292.559,481.639,338.297,512,391,512h76c24.813,0,45-20.187,45-45S491.813,422,467,422z
			 M421,332v15c0,8.271-6.729,15-15,15h-60.838c-1.155-10.399-3.496-20.445-6.884-30C347.854,332,410.397,332,421,332z M90,212h271
			c8.271,0,15,6.729,15,15s-6.729,15-15,15H90c-8.271,0-15-6.729-15-15S81.729,212,90,212z M75,167c0-8.271,6.729-15,15-15h271
			c8.271,0,15,6.729,15,15s-6.729,15-15,15H90C81.729,182,75,175.271,75,167z M361,272c8.271,0,15,6.729,15,15s-6.729,15-15,15
			h-37.806c-7.598-11.328-16.866-21.444-27.446-30H361z M226,30c19.399,0,36.404,13.612,42.553,32h-85.106
			C189.596,43.612,206.601,30,226,30z M30,122v-15c0-8.271,6.729-15,15-15c10.093,0,345.48,0,361,0c8.271,0,15,6.729,15,15v15
			C336.073,122,117.471,122,30,122z M45,362c-8.271,0-15-6.729-15-15v-15c10.741,0,171.042,0,181,0c19.555,0,36.228,12.541,42.42,30
			C240.738,362,51.063,362,45,362z M226,422c-19.556,0-36.239-12.539-42.43-30H256h0.838c0.571,5.138,1.424,10.191,2.557,15.14
			C250.916,416.532,238.84,422,226,422z M467,482h-76c-57.897,0-105-47.103-105-105c0-41.355-33.645-75-75-75H90
			c-8.271,0-15-6.729-15-15s6.729-15,15-15h121c57.897,0,105,47.103,105,105c0,41.355,33.645,75,75,75h76c8.271,0,15,6.729,15,15
			S475.271,482,467,482z"/>
	</g>
</g>
<g>
</g>
<g>
</g>
<g>
</g>
<g>
</g>
<g>
</g>
<g>
</g>
<g>
</g>
<g>
</g>
<g>
</g>
<g>
</g>
<g>
</g>
<g>
</g>
<g>
</g>
<g>
</g>
<g>
</g>
</svg>
