<?xml version="1.0" encoding="iso-8859-1"?>
<!-- Generator: Adobe Illustrator 19.0.0, SVG Export Plug-In . SVG Version: 6.00 Build 0)  -->
<svg version="1.1" id="Capa_1" xmlns="http://www.w3.org/2000/svg" xmlns:xlink="http://www.w3.org/1999/xlink" x="0px" y="0px"
	 viewBox="0 0 512 512" style="enable-background:new 0 0 512 512;" xml:space="preserve">
<g>
	<g>
		<path d="M509.448,97.629c-0.006-0.008-0.011-0.017-0.017-0.025L449.523,6.743C446.747,2.533,442.042,0,437,0H75
			c-5.042,0-9.747,2.533-12.523,6.743L2.569,97.604c-0.006,0.008-0.011,0.017-0.017,0.025C2.503,97.734,0,101.148,0,106v391
			c0,0.054,0.008,0.105,0.008,0.159C0.097,505.477,6.908,512,15,512h482c8.134,0,14.902-6.553,14.992-14.841
			c0-0.054,0.008-0.105,0.008-0.159V106C512,101.285,509.748,98.272,509.448,97.629z M83.077,30h345.847l40.22,61H42.857L83.077,30z
			 M360.995,277.695c-0.046-5.222-2.858-10.183-7.556-12.875L311.73,241H346c24.813,0,45-20.187,45-45s-20.187-45-45-45h-53.787
			l4.394-4.394C299.419,143.793,301,139.978,301,136v-15h121v240h-61v-83.154C361,277.795,360.995,277.746,360.995,277.695z
			 M215.394,146.606l29.997,29.998C248.266,179.477,252.196,181,256,181h90c8.271,0,15,6.729,15,15s-6.729,15-15,15h-90.782
			c-0.006,0-0.012,0.001-0.019,0.001c-2.574,0.003-5.258,0.714-7.518,2.03l-89.218,51.846c-4.47,2.602-7.463,7.491-7.463,12.969V361
			H90V121h121v15C211,139.978,212.581,143.793,215.394,146.606z M241,129.787V121h30v8.787l-15,15L241,129.787z M181,303.943
			l59,34.37v70.823l-59-36.016V303.943z M195.827,277.862l59.456-34.551l60.443,34.519l-60.643,34.551L195.827,277.862z M270,338.41
			l61-34.754V370.7c-0.339,0.896-0.594,1.831-0.757,2.799L270,409.64V338.41z M30,121h30v251.485l-30,60.5V121z M39.181,482
			l45.124-91h70.064c1.06,1.303,2.34,2.44,3.816,3.341l87.578,53.461c2.323,1.821,5.193,2.963,8.325,3.152
			c0.157,0.012,0.314,0.017,0.471,0.023c0.148,0.004,0.292,0.022,0.441,0.022c0.03,0,0.058-0.004,0.087-0.004
			c0.044,0,0.087,0.004,0.131,0.004c2.67,0,5.341-0.712,7.717-2.137l90.782-54.462c1.517-0.91,2.83-2.069,3.913-3.4h70.065
			l45.124,91H39.181z M482,432.985l-30-60.5V121h30V432.985z"/>
	</g>
</g>
<g>
</g>
<g>
</g>
<g>
</g>
<g>
</g>
<g>
</g>
<g>
</g>
<g>
</g>
<g>
</g>
<g>
</g>
<g>
</g>
<g>
</g>
<g>
</g>
<g>
</g>
<g>
</g>
<g>
</g>
</svg>
