<?xml version="1.0" encoding="iso-8859-1"?>
<!-- Generator: Adobe Illustrator 19.0.0, SVG Export Plug-In . SVG Version: 6.00 Build 0)  -->
<svg version="1.1" id="Capa_1" xmlns="http://www.w3.org/2000/svg" xmlns:xlink="http://www.w3.org/1999/xlink" x="0px" y="0px"
	 viewBox="0 0 512 512" style="enable-background:new 0 0 512 512;" xml:space="preserve">
<g>
	<g>
		<path d="M497,181h-60c-8.284,0-15,6.716-15,15v15H268.42c-2.76-7.781-7.595-14.588-13.848-19.74
			c7.492-30.833,7.434-63.083-0.289-93.978L252.712,91H256c8.284,0,15-6.716,15-15V15c0-8.284-6.716-15-15-15h-60
			c-8.284,0-15,6.716-15,15v61c0,8.284,6.716,15,15,15h25.788l3.39,13.559c6.279,25.117,6.573,51.29,0.98,76.445
			c-0.053,0-0.105-0.004-0.159-0.004c-24.813,0-45,20.187-45,45c0,0.047,0.003,0.093,0.004,0.141
			c-25.336,5.579-52.376,5.304-77.444-0.962L90,221.788V196c0-8.284-6.716-15-15-15H15c-8.284,0-15,6.716-15,15v60
			c0,8.284,6.716,15,15,15h60c8.284,0,15-6.716,15-15v-3.288l6.283,1.571c15.563,3.891,31.77,5.827,47.993,5.827
			c15.847,0,31.707-1.854,46.987-5.536c5.152,6.251,11.958,11.086,19.738,13.846V422h-15c-8.284,0-15,6.716-15,15v60
			c0,8.284,6.716,15,15,15h60c8.284,0,15-6.716,15-15v-60c0-8.284-6.716-15-15-15h-15V268.42
			c12.764-4.527,22.893-14.656,27.42-27.42H422v15c0,8.284,6.716,15,15,15h60c8.284,0,15-6.716,15-15v-60
			C512,187.716,505.284,181,497,181z M60,241H30v-30h30V241z M241,482h-30v-30h30V482z M226,241c-8.271,0-15-6.729-15-15
			s6.729-15,15-15s15,6.729,15,15S234.271,241,226,241z M241,61h-30V30h30V61z M482,241h-30v-30h30V241z"/>
	</g>
</g>
<g>
	<g>
		<path d="M471.908,367.36l-148.492-63.639c-5.635-2.416-12.177-1.157-16.515,3.181c-4.337,4.337-5.597,10.877-3.181,16.515
			l63.639,148.492c2.371,5.531,7.806,9.091,13.784,9.091c0.208,0,0.418-0.004,0.627-0.013c6.222-0.259,11.637-4.335,13.606-10.243
			l18.842-56.525l56.525-18.842c5.908-1.969,9.984-7.384,10.243-13.606C481.245,375.548,477.632,369.813,471.908,367.36z
			 M397.617,388.13c-4.479,1.493-7.994,5.007-9.486,9.486l-8.737,26.211l-33.326-77.761l77.76,33.327L397.617,388.13z"/>
	</g>
</g>
<g>
</g>
<g>
</g>
<g>
</g>
<g>
</g>
<g>
</g>
<g>
</g>
<g>
</g>
<g>
</g>
<g>
</g>
<g>
</g>
<g>
</g>
<g>
</g>
<g>
</g>
<g>
</g>
<g>
</g>
</svg>
