<?xml version="1.0" encoding="iso-8859-1"?>
<!-- Generator: Adobe Illustrator 19.0.0, SVG Export Plug-In . SVG Version: 6.00 Build 0)  -->
<svg version="1.1" id="Capa_1" xmlns="http://www.w3.org/2000/svg" xmlns:xlink="http://www.w3.org/1999/xlink" x="0px" y="0px"
	 viewBox="0 0 512 512" style="enable-background:new 0 0 512 512;" xml:space="preserve">
<g>
	<g>
		<path d="M511.851,434.889l-30-211C480.799,216.495,474.468,211,467,211h-46V45c0-8.284-6.716-15-15-15
			c-16.872,0-32.457,5.604-45.001,15.042V45c0-24.813-20.187-45-45-45C304.483,0,293.967,4.354,286,11.495
			C278.032,4.354,267.516,0,256,0c-11.517,0-22.032,4.354-30,11.495C218.032,4.354,207.516,0,196,0
			c-20.723,0-38.209,14.085-43.414,33.181C147.449,31.137,141.856,30,136,30c-24.813,0-44.9,20.187-44.9,45
			c0,19.965,0,114.138,0,136H45c-7.468,0-13.799,5.495-14.851,12.889l-30,211C0.111,435.162,0,436.603,0,437v60
			c0,8.284,6.716,15,15,15h482c8.284,0,15-6.716,15-15v-60C512,436.567,511.884,435.124,511.851,434.889z M301,136V45
			c0-0.002,0-0.004,0-0.006C301.003,36.726,307.73,30,315.999,30c8.271,0,15.1,6.729,15.1,15v91c0,8.271-6.829,15-15.1,15
			c-8.268,0-14.996-6.726-14.999-14.994C301,136.004,301,136.002,301,136z M241,45c0-8.271,6.729-15,15-15
			c8.269,0,15.096,6.726,15.1,14.994c0,0.002,0,0.004,0,0.006v91c0,0.002,0,0.004,0,0.006C271.096,144.274,264.268,151,256,151
			c-8.271,0-15-6.729-15-15V45z M181,45c0-8.271,6.729-15,15-15s15.1,6.729,15.1,15v91c0,8.271-6.829,15-15.1,15s-15-6.729-15-15
			C181,126.195,181,55.566,181,45z M121,75c0-8.271,6.729-15,15-15s15.1,6.729,15.1,15v61c0,8.271-6.829,15-15.1,15s-15-6.729-15-15
			C121,114.627,121,96.402,121,75z M121,178.42c4.695,1.665,9.742,2.58,15,2.58c11.517,0,22.032-4.354,30-11.495
			c7.968,7.142,18.483,11.495,30,11.495c11.517,0,22.032-4.354,30-11.495c7.968,7.142,18.483,11.495,30,11.495
			c11.516,0,22.032-4.354,30-11.495c7.968,7.142,18.483,11.495,30,11.495c24.8,0,44.978-20.166,44.999-44.961
			c0-0.013,0.002-0.026,0.002-0.039v-31H361c0-19.556,12.539-36.239,30-42.43V226c0,31.739-20.093,60.166-49.999,70.736
			c-5.994,2.119-10.001,7.785-10.001,14.143v45.928c-23.196,2.736-48.754,4.193-75,4.193c-26.246,0-51.804-1.457-75-4.193v-45.928
			c0-6.357-4.007-12.024-10.001-14.143C141.093,286.167,121,257.74,121,226V178.42z M420.368,330.953
			c-10.213,10.962-44.651,18.591-59.369,21.346v-31.404H361c5.004-2.375,9.76-5.136,14.256-8.218
			C404.984,319.608,417.132,327.425,420.368,330.953z M151,320.895v31.404c-14.712-2.754-49.155-10.383-59.369-21.346
			c3.237-3.528,15.385-11.345,45.112-18.276C141.24,315.759,145.995,318.52,151,320.895z M58.018,241h34.061
			c2.512,17.366,9.322,33.602,19.491,47.378C89.301,295.257,61,307.668,61,331c0,52.203,143.022,60,195,60
			c52.026,0,195-7.811,195-60c0-23.312-28.249-35.727-50.57-42.622c10.169-13.776,16.979-30.012,19.491-47.378h34.061l25.734,181
			H32.284L58.018,241z M482,482H30v-30h452V482z"/>
	</g>
</g>
<g>
	<g>
		<path d="M350.743,211.77c-57.474-19.156-119.816,12.014-138.974,69.487c-0.576,1.728-0.833,3.547-0.756,5.368l0.026,0.621
			c0.336,8.065,6.979,14.376,14.976,14.376c0.21,0,0.423-0.004,0.635-0.014c7.263-0.302,13.104-5.72,14.193-12.635
			c14.602-40.646,59.225-62.474,100.414-48.742c7.859,2.62,16.354-1.628,18.974-9.487S358.603,214.39,350.743,211.77z"/>
	</g>
</g>
<g>
</g>
<g>
</g>
<g>
</g>
<g>
</g>
<g>
</g>
<g>
</g>
<g>
</g>
<g>
</g>
<g>
</g>
<g>
</g>
<g>
</g>
<g>
</g>
<g>
</g>
<g>
</g>
<g>
</g>
</svg>
