<?xml version="1.0" encoding="iso-8859-1"?>
<!-- Generator: Adobe Illustrator 19.0.0, SVG Export Plug-In . SVG Version: 6.00 Build 0)  -->
<svg version="1.1" id="Capa_1" xmlns="http://www.w3.org/2000/svg" xmlns:xlink="http://www.w3.org/1999/xlink" x="0px" y="0px"
	 viewBox="0 0 512 512" style="enable-background:new 0 0 512 512;" xml:space="preserve">
<g>
	<g>
		<path d="M497,361h-15V106c0-24.813-20.187-45-45-45H75c-24.813,0-45,20.187-45,45v255H15c-8.284,0-15,6.716-15,15v15
			c0,33.084,26.916,60,60,60h392c33.084,0,60-26.916,60-60v-15C512,367.716,505.284,361,497,361z M60,106c0-8.271,6.729-15,15-15
			h362c8.271,0,15,6.729,15,15v255H60V106z M452,421H60c-16.542,0-30-13.458-30-30c51.385,0,403.32,0,452,0
			C482,407.542,468.542,421,452,421z"/>
	</g>
</g>
<g>
	<g>
		<path d="M238.604,130.86C222.708,124.501,201.896,121,180,121s-42.708,3.501-58.604,9.86C94.079,141.787,90,157.566,90,166v120
			c0,8.434,4.079,24.213,31.396,35.14C137.292,327.499,158.104,331,180,331s42.708-3.501,58.604-9.86
			C265.921,310.213,270,294.434,270,286V166C270,157.566,265.921,141.787,238.604,130.86z M180,151c35.208,0,55.76,10.091,59.625,15
			c-3.865,4.909-24.417,15-59.625,15s-55.76-10.091-59.625-15C124.24,161.091,144.792,151,180,151z M240,285.453
			C237.334,290.11,216.575,301,180,301s-57.334-10.89-60-15.547v-84.894c0.464,0.194,0.918,0.39,1.396,0.581
			C137.292,207.499,158.104,211,180,211s42.708-3.501,58.604-9.86c0.478-0.191,0.932-0.387,1.396-0.581V285.453z"/>
	</g>
</g>
<g>
	<g>
		<path d="M407,151h-61c-8.284,0-15,6.716-15,15s6.716,15,15,15h61c8.284,0,15-6.716,15-15S415.284,151,407,151z"/>
	</g>
</g>
<g>
	<g>
		<path d="M407,211h-61c-8.284,0-15,6.716-15,15s6.716,15,15,15h61c8.284,0,15-6.716,15-15S415.284,211,407,211z"/>
	</g>
</g>
<g>
	<g>
		<path d="M407,271h-61c-8.284,0-15,6.716-15,15s6.716,15,15,15h61c8.284,0,15-6.716,15-15S415.284,271,407,271z"/>
	</g>
</g>
<g>
</g>
<g>
</g>
<g>
</g>
<g>
</g>
<g>
</g>
<g>
</g>
<g>
</g>
<g>
</g>
<g>
</g>
<g>
</g>
<g>
</g>
<g>
</g>
<g>
</g>
<g>
</g>
<g>
</g>
</svg>
