<?xml version="1.0" encoding="iso-8859-1"?>
<!-- Generator: Adobe Illustrator 19.0.0, SVG Export Plug-In . SVG Version: 6.00 Build 0)  -->
<svg version="1.1" id="Capa_1" xmlns="http://www.w3.org/2000/svg" xmlns:xlink="http://www.w3.org/1999/xlink" x="0px" y="0px"
	 viewBox="0 0 512 512" style="enable-background:new 0 0 512 512;" xml:space="preserve">
<g>
	<g>
		<path d="M467,0H316c-36.219,0-66.522,25.808-73.491,60C225.276,60,108.731,60,90,60V45C90,20.187,69.813,0,45,0S0,20.187,0,45v452
			c0,8.284,6.716,15,15,15c17.545,0,355.303,0,482,0c8.284,0,15-6.716,15-15V45C512,20.187,491.813,0,467,0z M60,482H30V45
			c0-8.271,6.729-15,15-15s15,6.729,15,15V482z M211,90h90v30h-90V90z M271,150v8.787l-15,15l-15-15V150H271z M164.925,482H90V90h91
			v45c0,8.284,6.716,15,15,15h15v15c0,3.978,1.581,7.793,4.394,10.606L241,201.213v70.22c-5.862-0.405-11.605-0.97-17.238-1.531
			c-23.946-2.388-44.626-4.447-59.199,8.747C155.436,286.911,151,299.455,151,317c0,21.595,6.613,42.481,18.824,60
			C157.613,394.518,151,415.404,151,437C151,455.174,155.688,470.248,164.925,482z M271,482h-30v-45c0-8.271,6.729-15,15-15
			s15,6.729,15,15V482z M311.906,387.004C324.219,400.761,331,418.517,331,437c0,21.558-8.913,33.915-30,40.094V437
			c0-24.813-20.187-45-45-45s-45,20.187-45,45v40.094c-21.087-6.179-30-18.536-30-40.094c0-18.484,6.781-36.24,19.094-49.996
			c5.097-5.695,5.097-14.313,0-20.008C187.781,353.239,181,335.483,181,317c0-8.112,1.347-13.985,3.696-16.111
			c4.708-4.262,20.662-2.672,36.091-1.135C231.353,300.807,243.329,302,256,302s24.647-1.193,35.213-2.246
			c15.429-1.538,31.383-3.127,36.091,1.135C329.653,303.015,331,308.888,331,317c0,18.483-6.781,36.239-19.094,49.996
			C306.809,372.691,306.809,381.309,311.906,387.004z M422,482h-74.925C356.312,470.248,361,455.174,361,437
			c0-21.595-6.613-42.481-18.824-60C354.387,359.481,361,338.595,361,317c0-17.545-4.436-30.089-13.563-38.352
			c-14.573-13.193-35.252-11.133-59.199-8.747c-5.634,0.561-11.376,1.127-17.238,1.531v-70.22l25.606-25.606
			C299.419,172.793,301,168.978,301,165v-15h15c8.284,0,15-6.716,15-15V90h91V482z M422,45v15c-14.354,0-133.523,0-148.42,0
			c6.192-17.458,22.865-30.1,42.42-30.1h108.58C422.915,34.595,422,39.742,422,45z M482,482h-30V45c0-8.271,6.729-15,15-15
			s15,6.729,15,15V482z"/>
	</g>
</g>
<g>
</g>
<g>
</g>
<g>
</g>
<g>
</g>
<g>
</g>
<g>
</g>
<g>
</g>
<g>
</g>
<g>
</g>
<g>
</g>
<g>
</g>
<g>
</g>
<g>
</g>
<g>
</g>
<g>
</g>
</svg>
