<?xml version="1.0" encoding="iso-8859-1"?>
<!-- Generator: Adobe Illustrator 19.0.0, SVG Export Plug-In . SVG Version: 6.00 Build 0)  -->
<svg version="1.1" id="Capa_1" xmlns="http://www.w3.org/2000/svg" xmlns:xlink="http://www.w3.org/1999/xlink" x="0px" y="0px"
	 viewBox="0 0 512 512" style="enable-background:new 0 0 512 512;" xml:space="preserve">
<g>
	<g>
		<circle cx="136" cy="437" r="15"/>
	</g>
</g>
<g>
	<g>
		<circle cx="196" cy="437" r="15"/>
	</g>
</g>
<g>
	<g>
		<path d="M467,0H316c-36.219,0-66.522,25.808-73.491,60C225.276,60,108.731,60,90,60V45C90,20.187,69.813,0,45,0S0,20.187,0,45v452
			c0,8.284,6.716,15,15,15c17.545,0,355.303,0,482,0c8.284,0,15-6.716,15-15V45C512,20.187,491.813,0,467,0z M60,482H30V45
			c0-8.271,6.729-15,15-15s15,6.729,15,15C60,57.128,60,470.574,60,482z M211,90h90v30h-90V90z M271,150v8.787l-15,15l-15-15V150
			H271z M422,482H90v-91h332V482z M211,316c0-24.813,20.187-45,45-45s45,20.187,45,45s-20.187,45-45,45S211,340.813,211,316z
			 M422,361H315.959C325.397,348.456,331,332.871,331,316c0-41.355-33.645-75-75-75c-41.355,0-75,33.645-75,75
			c0,16.871,5.603,32.456,15.041,45H90V90h91v45c0,8.284,6.716,15,15,15h15v15c0,3.978,1.581,7.793,4.394,10.607l30,30
			C248.322,208.536,252.161,210,256,210s7.678-1.464,10.606-4.393l30-30C299.419,172.793,301,168.978,301,165v-15h15
			c8.284,0,15-6.716,15-15V90h91V361z M422,45v15c-14.354,0-133.523,0-148.42,0c6.192-17.459,22.865-30.1,42.42-30.1h108.58
			C422.915,34.595,422,39.742,422,45z M482,482h-30c0-11.678,0-425.186,0-437c0-8.271,6.729-15,15-15s15,6.729,15,15V482z"/>
	</g>
</g>
<g>
	<g>
		<path d="M376,422H256c-8.284,0-15,6.716-15,15s6.716,15,15,15h120c8.284,0,15-6.716,15-15S384.284,422,376,422z"/>
	</g>
</g>
<g>
</g>
<g>
</g>
<g>
</g>
<g>
</g>
<g>
</g>
<g>
</g>
<g>
</g>
<g>
</g>
<g>
</g>
<g>
</g>
<g>
</g>
<g>
</g>
<g>
</g>
<g>
</g>
<g>
</g>
</svg>
