<?xml version="1.0" encoding="iso-8859-1"?>
<!-- Generator: Adobe Illustrator 19.0.0, SVG Export Plug-In . SVG Version: 6.00 Build 0)  -->
<svg version="1.1" id="Capa_1" xmlns="http://www.w3.org/2000/svg" xmlns:xlink="http://www.w3.org/1999/xlink" x="0px" y="0px"
	 viewBox="0 0 512 512" style="enable-background:new 0 0 512 512;" xml:space="preserve">
<g>
	<g>
		<path d="M500.505,377c7.142-7.968,11.495-18.483,11.495-30c0-24.813-20.187-45-45-45c-9.986,0-170.879,0-181,0
			c-8.271,0-15-6.729-15-15v-26.458l57.426-86.139c0.009-0.013,0.017-0.026,0.026-0.039l0.029-0.043
			c1.541-2.312,2.472-5.162,2.51-8.135c0.001-0.062,0.009-0.123,0.009-0.186v-47.58c17.459-6.192,30-22.865,30-42.42V30h75
			c8.284,0,15-6.716,15-15s-6.716-15-15-15C415.685,0,95.791,0,76,0c-8.284,0-15,6.716-15,15s6.716,15,15,15h75v46
			c0,19.555,12.541,36.228,30,42.42V166c0,0.063,0.009,0.123,0.009,0.186c0.037,2.961,0.958,5.807,2.51,8.135l0.029,0.043
			c0.009,0.013,0.017,0.026,0.026,0.039L241,260.542V287c0,24.813,20.187,45,45,45c10.121,0,171.013,0,181,0c8.271,0,15,6.729,15,15
			s-6.729,15-15,15c-11.05,0-410.147,0-422,0c-24.813,0-45,20.187-45,45c0,11.517,4.354,22.032,11.495,30
			C4.354,444.968,0,455.483,0,467c0,24.813,20.187,45,45,45h422c24.813,0,45-20.187,45-45c0-11.517-4.354-22.032-11.495-30
			c7.142-7.968,11.495-18.483,11.495-30C512,395.483,507.646,384.968,500.505,377z M181,76V30h150v46c0,8.271-6.729,15-15,15H196
			C187.729,91,181,84.271,181,76z M211,121h90v30h-90V121z M224.028,181h63.944L256,228.958L224.028,181z M467,482H45
			c-8.271,0-15-6.729-15-15s6.729-15,15-15h422c8.271,0,15,6.729,15,15S475.271,482,467,482z M467,422H45c-8.271,0-15-6.729-15-15
			s6.729-15,15-15c11.877,0,410.969,0,422,0c8.271,0,15,6.729,15,15S475.271,422,467,422z"/>
	</g>
</g>
<g>
</g>
<g>
</g>
<g>
</g>
<g>
</g>
<g>
</g>
<g>
</g>
<g>
</g>
<g>
</g>
<g>
</g>
<g>
</g>
<g>
</g>
<g>
</g>
<g>
</g>
<g>
</g>
<g>
</g>
</svg>
