<?xml version="1.0" encoding="iso-8859-1"?>
<!-- Generator: Adobe Illustrator 19.0.0, SVG Export Plug-In . SVG Version: 6.00 Build 0)  -->
<svg version="1.1" id="Capa_1" xmlns="http://www.w3.org/2000/svg" xmlns:xlink="http://www.w3.org/1999/xlink" x="0px" y="0px"
	 viewBox="0 0 511.999 511.999" style="enable-background:new 0 0 511.999 511.999;" xml:space="preserve">
<g>
	<g>
		<path d="M466.984,271.999c-12.362,0-24.284,5.159-32.758,14.156c-0.02,0.021-0.042,0.038-0.062,0.059l-74.086,77.829
			c-5.577-18.516-22.779-32.045-43.09-32.045h-70.293c-9.702,0-19.055-3.53-26.338-9.939c-36.59-32.198-90.371-34.58-129.531-7.194
			c-1.038-7.271-7.273-12.867-14.831-12.867H15c-8.284,0-15,6.716-15,15v179.994c0,8.284,6.716,15,15,15h60.998
			c7.367,0,13.479-5.315,14.746-12.316c29.75,8.166,60.457,12.316,91.313,12.316h134.932c32.776,0,64.09-15.609,83.824-41.769
			l101.843-125.805c0.116-0.144,0.229-0.289,0.34-0.437C525.039,314.599,504.148,271.999,466.984,271.999z M60.998,481.992H29.999
			V331.997h30.999V481.992z M479.137,325.793L377.328,451.556c-0.116,0.144-0.23,0.29-0.341,0.438
			c-14.089,18.784-36.518,29.999-59.998,29.999H182.057c-28.816,0-57.494-3.954-85.236-11.752l-5.824-1.638V353.778l10.453-9.199
			c28.245-24.856,70.845-24.856,99.091,0c12.763,11.232,29.155,17.416,46.156,17.416h70.293c8.271,0,15,6.729,15,15
			c0,8.271-6.729,14.999-15,14.999H209.387c-8.284,0-15,6.716-15,15c0,8.284,6.716,15,15,15h117.656
			c12.412,0,24.383-5.196,32.861-14.258l95.989-100.841c0.018-0.019,0.032-0.04,0.05-0.059c0.02-0.021,0.042-0.038,0.061-0.059
			c2.871-3.083,6.771-4.78,10.98-4.78C479.321,301.998,486.22,316.045,479.137,325.793z"/>
	</g>
</g>
<g>
	<g>
		<path d="M420.98,80.879c-0.046-5.289-2.945-10.341-7.765-12.995L293.219,1.866c-4.502-2.478-9.959-2.478-14.461,0L158.763,67.885
			c-4.627,2.542-7.714,7.485-7.765,12.995c0,0.049-0.005,0.098-0.005,0.147v137.648h0.002c0,5.391,2.893,10.368,7.578,13.035
			c10.794,6.146,119.06,67.794,120.13,68.395c4.64,2.578,10.302,2.461,14.708-0.071l119.996-68.324
			c4.685-2.667,7.578-7.644,7.578-13.035V81.026C420.985,80.977,420.98,80.928,420.98,80.879z M270.991,261.197l-89.997-51.243
			V106.827l89.997,51.243V261.197z M285.99,132.09l-89.287-50.838l89.288-49.123l89.287,49.123L285.99,132.09z M390.987,209.955
			l-89.997,51.243V158.071l89.997-51.243V209.955z"/>
	</g>
</g>
<g>
</g>
<g>
</g>
<g>
</g>
<g>
</g>
<g>
</g>
<g>
</g>
<g>
</g>
<g>
</g>
<g>
</g>
<g>
</g>
<g>
</g>
<g>
</g>
<g>
</g>
<g>
</g>
<g>
</g>
</svg>
