<?xml version="1.0" encoding="iso-8859-1"?>
<!-- Generator: Adobe Illustrator 19.0.0, SVG Export Plug-In . SVG Version: 6.00 Build 0)  -->
<svg version="1.1" id="Capa_1" xmlns="http://www.w3.org/2000/svg" xmlns:xlink="http://www.w3.org/1999/xlink" x="0px" y="0px"
	 viewBox="0 0 512 512" style="enable-background:new 0 0 512 512;" xml:space="preserve">
<g>
	<g>
		<path d="M497,482h-50.188l-26.581-79.744c-0.858-2.574-2.525-5.091-4.86-6.969L271,279.791v-49.249l57.425-86.137
			c0.01-0.014,0.019-0.029,0.029-0.043c1.55-2.617,2.493-4.581,2.537-8.176c0.001-0.063,0.009-0.123,0.009-0.186V87.42
			c17.459-6.192,30-22.865,30-42.42V30h75c8.284,0,15-6.716,15-15s-6.716-15-15-15C417.685,0,96.512,0,76,0c-8.284,0-15,6.716-15,15
			s6.716,15,15,15h75v15c0,19.555,12.541,36.228,30,42.42V136c0,0.063,0.009,0.123,0.009,0.186c0.037,2.977,0.969,5.826,2.51,8.135
			l0.028,0.042c0.01,0.014,0.019,0.029,0.029,0.043L241,230.542v49.249L96.629,395.287c-2.168,1.745-3.937,4.2-4.86,6.969
			L65.188,482H15c-8.284,0-15,6.716-15,15s6.716,15,15,15c96.172,0,446.751,0,482,0c8.284,0,15-6.716,15-15S505.284,482,497,482z
			 M181,45V30h150v15c0,8.271-6.729,15-15,15H196C187.729,60,181,53.271,181,45z M211,90h90v31h-90V90z M224.028,151h63.944
			L256,198.958L224.028,151z M256,320.541L291.729,392H220.27L256,320.541z M181,482H96.812l20-60H181V482z M148.761,392
			l63.28-50.624L186.729,392H148.761z M301,482h-90v-60h90V482z M299.959,341.376L363.238,392h-37.967L299.959,341.376z M331,482
			v-60h64.188l20,60H331z"/>
	</g>
</g>
<g>
</g>
<g>
</g>
<g>
</g>
<g>
</g>
<g>
</g>
<g>
</g>
<g>
</g>
<g>
</g>
<g>
</g>
<g>
</g>
<g>
</g>
<g>
</g>
<g>
</g>
<g>
</g>
<g>
</g>
</svg>
