<?xml version="1.0" encoding="iso-8859-1"?>
<!-- Generator: Adobe Illustrator 19.0.0, SVG Export Plug-In . SVG Version: 6.00 Build 0)  -->
<svg version="1.1" id="Capa_1" xmlns="http://www.w3.org/2000/svg" xmlns:xlink="http://www.w3.org/1999/xlink" x="0px" y="0px"
	 viewBox="0 0 512 512" style="enable-background:new 0 0 512 512;" xml:space="preserve">
<g>
	<g>
		<path d="M511.989,345.915c-0.038-5.137-2.647-9.719-6.731-12.418c-0.025-0.017-0.047-0.036-0.073-0.053l-85.191-55.56V170.96
			c0-6.382-4.039-12.065-10.065-14.164l-9.688-3.375c0.372-18.637-10.236-36.221-28.202-44.294L143.166,6.281
			c-15.339-7.273-33.109-7.702-48.782-1.168c-3.9,1.625-7.584,3.648-11.007,6.014l-23.334-8.54c-0.073-0.027-0.146-0.053-0.22-0.079
			c-23.432-8.163-49.135,4.26-57.297,27.69c-8.165,23.439,4.153,49.026,27.571,57.256l23.497,8.599
			c6.247,20.91,23.234,36.458,43.927,41.252c45.437,11.513,198.549,50.306,243.234,61.628c18.875,4.784,37.897-2.183,49.242-16.692
			v88.769H255.236c-8.617-0.104-15.355,6.892-15.232,15.205v150.788c0,5.015,2.506,9.699,6.68,12.48l89.912,59.942
			c0.014,0.01,0.029,0.019,0.043,0.028l0.042,0.028c2.503,1.668,5.525,2.519,8.318,2.519c0.001,0,0.002,0,0.003,0h151.994
			c8.284,0,14.999-6.716,14.999-14.999V346.007C511.994,345.976,511.99,345.946,511.989,345.915z M60.805,40.753l-6.398,18.364
			c-0.548,1.574-1.008,3.167-1.42,4.769l-12.682-4.641c-8.707-3.193-12.002-11.854-9.45-19.179
			c2.71-7.779,11.223-11.917,19.007-9.262l13.038,4.771C62.13,37.264,61.42,38.986,60.805,40.753z M101.193,107.188
			c-15.097-5.196-24.092-22.027-18.457-38.201l6.397-18.363c5.617-16.122,23.053-23.802,38.199-18.464L101.193,107.188z
			 M159.543,122.072l-29.191-7.396l24.479-70.266l27.468,12.343L159.543,122.072z M369.225,158.495c0,0,0,0.001-0.001,0.001
			c-0.001,0,0,0.001-0.001,0.002c-3.049,8.748-12.122,13.628-21.1,11.354l-159.388-40.384l21.032-60.372l149.98,67.393
			C368.197,140.287,372.272,149.747,369.225,158.495z M330,468.974l-59.997-39.998V314.036L330,354.034V468.974z M304.542,301.009
			h95.996l45.998,29.999H349.54L304.542,301.009z M481.994,482.001H359.999V361.006h121.995V482.001z"/>
	</g>
</g>
<g>
</g>
<g>
</g>
<g>
</g>
<g>
</g>
<g>
</g>
<g>
</g>
<g>
</g>
<g>
</g>
<g>
</g>
<g>
</g>
<g>
</g>
<g>
</g>
<g>
</g>
<g>
</g>
<g>
</g>
</svg>
