<?xml version="1.0" encoding="iso-8859-1"?>
<!-- Generator: Adobe Illustrator 19.0.0, SVG Export Plug-In . SVG Version: 6.00 Build 0)  -->
<svg version="1.1" id="Capa_1" xmlns="http://www.w3.org/2000/svg" xmlns:xlink="http://www.w3.org/1999/xlink" x="0px" y="0px"
	 viewBox="0 0 512 512" style="enable-background:new 0 0 512 512;" xml:space="preserve">
<g>
	<g>
		<path d="M256,211c-24.813,0-45,20.187-45,45s20.187,45,45,45s45-20.187,45-45S280.813,211,256,211z M256,271
			c-8.271,0-15-6.729-15-15s6.729-15,15-15s15,6.729,15,15S264.271,271,256,271z"/>
	</g>
</g>
<g>
	<g>
		<path d="M46,0H15C6.716,0,0,6.716,0,15v31c0,8.284,6.716,15,15,15s15-6.716,15-15V30h16c8.284,0,15-6.716,15-15S54.284,0,46,0z"/>
	</g>
</g>
<g>
	<g>
		<path d="M15,91c-8.284,0-15,6.716-15,15v30c0,8.284,6.716,15,15,15s15-6.716,15-15v-30C30,97.716,23.284,91,15,91z"/>
	</g>
</g>
<g>
	<g>
		<path d="M15,361c-8.284,0-15,6.716-15,15v30c0,8.284,6.716,15,15,15s15-6.716,15-15v-30C30,367.716,23.284,361,15,361z"/>
	</g>
</g>
<g>
	<g>
		<path d="M497,361c-8.284,0-15,6.716-15,15v30c0,8.284,6.716,15,15,15s15-6.716,15-15v-30C512,367.716,505.284,361,497,361z"/>
	</g>
</g>
<g>
	<g>
		<path d="M497,91c-8.284,0-15,6.716-15,15v30c0,8.284,6.716,15,15,15s15-6.716,15-15v-30C512,97.716,505.284,91,497,91z"/>
	</g>
</g>
<g>
	<g>
		<path d="M136,0h-30c-8.284,0-15,6.716-15,15s6.716,15,15,15h30c8.284,0,15-6.716,15-15S144.284,0,136,0z"/>
	</g>
</g>
<g>
	<g>
		<path d="M136,482h-30c-8.284,0-15,6.716-15,15s6.716,15,15,15h30c8.284,0,15-6.716,15-15S144.284,482,136,482z"/>
	</g>
</g>
<g>
	<g>
		<path d="M406,0h-30c-8.284,0-15,6.716-15,15s6.716,15,15,15h30c8.284,0,15-6.716,15-15S414.284,0,406,0z"/>
	</g>
</g>
<g>
	<g>
		<path d="M406,482h-30c-8.284,0-15,6.716-15,15s6.716,15,15,15h30c8.284,0,15-6.716,15-15S414.284,482,406,482z"/>
	</g>
</g>
<g>
	<g>
		<path d="M497,0h-31c-8.284,0-15,6.716-15,15s6.716,15,15,15h16v16c0,8.284,6.716,15,15,15s15-6.716,15-15V15
			C512,6.716,505.284,0,497,0z"/>
	</g>
</g>
<g>
	<g>
		<path d="M46,482H30v-16c0-8.284-6.716-15-15-15s-15,6.716-15,15v31c0,8.284,6.716,15,15,15h31c8.284,0,15-6.716,15-15
			S54.284,482,46,482z"/>
	</g>
</g>
<g>
	<g>
		<path d="M497,451c-8.284,0-15,6.716-15,15v16h-16c-8.284,0-15,6.716-15,15s6.716,15,15,15h31c8.284,0,15-6.716,15-15v-31
			C512,457.716,505.284,451,497,451z"/>
	</g>
</g>
<g>
	<g>
		<path d="M256,31C131.649,31,31,131.633,31,256c0,124.351,100.633,225,225,225c124.351,0,225-100.633,225-225
			C481,131.649,380.367,31,256,31z M256,61c94.714,0,173.859,67.88,191.376,157.543C394.313,176.499,327.197,151,256,151
			c-71.075,0-138.252,25.451-191.376,67.543C82.141,128.88,161.286,61,256,61z M341.112,194.586
			c39.491,13.04,76.354,35.66,103.821,61.414c-27.4,25.692-64.245,48.346-103.821,61.414C353.617,300.133,361,278.914,361,256
			S353.617,211.867,341.112,194.586z M331,256c0,41.355-33.645,75-75,75c-41.355,0-75-33.645-75-75c0-41.355,33.645-75,75-75
			S331,214.645,331,256z M170.888,317.414c-39.491-13.04-76.354-35.66-103.821-61.414c27.403-25.694,64.245-48.346,103.821-61.415
			C158.383,211.867,151,233.086,151,256S158.383,300.133,170.888,317.414z M256,451c-94.714,0-173.859-67.88-191.376-157.543
			C117.687,335.501,184.803,361,256,361c71.075,0,138.252-25.451,191.376-67.543C429.859,383.12,350.714,451,256,451z"/>
	</g>
</g>
<g>
</g>
<g>
</g>
<g>
</g>
<g>
</g>
<g>
</g>
<g>
</g>
<g>
</g>
<g>
</g>
<g>
</g>
<g>
</g>
<g>
</g>
<g>
</g>
<g>
</g>
<g>
</g>
<g>
</g>
</svg>
