<?xml version="1.0" encoding="iso-8859-1"?>
<!-- Generator: Adobe Illustrator 19.0.0, SVG Export Plug-In . SVG Version: 6.00 Build 0)  -->
<svg version="1.1" id="Capa_1" xmlns="http://www.w3.org/2000/svg" xmlns:xlink="http://www.w3.org/1999/xlink" x="0px" y="0px"
	 viewBox="0 0 512 512" style="enable-background:new 0 0 512 512;" xml:space="preserve">
<g>
	<g>
		<path d="M452,0H60C26.916,0,0,26.916,0,60s26.916,60,60,60v272c-33.084,0-60,26.916-60,60s26.916,60,60,60h392
			c33.084,0,60-26.916,60-60V60C512,26.916,485.084,0,452,0z M30,60c0-16.542,13.458-30.1,30-30.1h340.052
			C394.933,38.73,392,49.08,392,60s2.933,21.17,8.052,30H60C43.458,90,30,76.542,30,60z M400.052,482H60c-16.542,0-30-13.458-30-30
			s13.458-30.1,30-30.1h340.052C394.933,430.73,392,441.08,392,452C392,462.92,394.933,473.17,400.052,482z M482,452
			c0,16.542-13.458,30-30,30s-30-13.458-30-30s13.458-30,30-30c8.284,0,15-6.716,15-15s-6.716-15-15-15H90V120h362
			c8.284,0,15-6.716,15-15s-6.716-15-15-15c-16.542,0-30-13.458-30-30s13.458-30,30-30s30,13.458,30,30V452z"/>
	</g>
</g>
<g>
	<g>
		<path d="M166,331h-16v-15c0-8.284-6.716-15-15-15s-15,6.716-15,15v30c0,8.284,6.716,15,15,15h31c8.284,0,15-6.716,15-15
			S174.284,331,166,331z"/>
	</g>
</g>
<g>
	<g>
		<path d="M166,151h-31c-8.284,0-15,6.716-15,15v30c0,8.284,6.716,15,15,15s15-6.716,15-15v-15h16c8.284,0,15-6.716,15-15
			S174.284,151,166,151z"/>
	</g>
</g>
<g>
	<g>
		<path d="M437,301c-8.284,0-15,6.716-15,15v15h-15c-8.284,0-15,6.716-15,15s6.716,15,15,15h30c8.284,0,15-6.716,15-15v-30
			C452,307.716,445.284,301,437,301z"/>
	</g>
</g>
<g>
	<g>
		<path d="M437,151h-30c-8.284,0-15,6.716-15,15s6.716,15,15,15h15v15c0,8.284,6.716,15,15,15s15-6.716,15-15v-30
			C452,157.716,445.284,151,437,151z"/>
	</g>
</g>
<g>
	<g>
		<path d="M368.546,197.065l-74.952-44.001c-4.689-2.753-10.499-2.753-15.188,0l-74.943,43.996
			c-4.752,2.761-7.462,7.824-7.462,12.969v90.647c0,5.252,2.747,10.122,7.242,12.838l75,45.324c2.204,1.331,4.949,2.162,7.758,2.162
			c2.749,0,5.495-0.794,7.758-2.162l75-45.324c4.495-2.716,7.242-7.586,7.242-12.838v-90.647
			C376,204.64,373.064,199.684,368.546,197.065z M271,319.409l-45-27.194V236.62l45,27.194V319.409z M286,237.826l-45.69-27.611
			L286,183.394l45.689,26.822L286,237.826z M346,292.215l-45,27.194v-55.594l45-27.194V292.215z"/>
	</g>
</g>
<g>
</g>
<g>
</g>
<g>
</g>
<g>
</g>
<g>
</g>
<g>
</g>
<g>
</g>
<g>
</g>
<g>
</g>
<g>
</g>
<g>
</g>
<g>
</g>
<g>
</g>
<g>
</g>
<g>
</g>
</svg>
