<?xml version="1.0" encoding="iso-8859-1"?>
<!-- Generator: Adobe Illustrator 19.0.0, SVG Export Plug-In . SVG Version: 6.00 Build 0)  -->
<svg version="1.1" id="Capa_1" xmlns="http://www.w3.org/2000/svg" xmlns:xlink="http://www.w3.org/1999/xlink" x="0px" y="0px"
	 viewBox="0 0 512 512" style="enable-background:new 0 0 512 512;" xml:space="preserve">
<g>
	<g>
		<circle cx="75" cy="286" r="15"/>
	</g>
</g>
<g>
	<g>
		<circle cx="165" cy="286" r="15"/>
	</g>
</g>
<g>
	<g>
		<circle cx="75" cy="346" r="15"/>
	</g>
</g>
<g>
	<g>
		<circle cx="165" cy="346" r="15"/>
	</g>
</g>
<g>
	<g>
		<path d="M437,121H225c-8.284,0-15,6.716-15,15v240c0,8.284,6.716,15,15,15h212c8.284,0,15-6.716,15-15V136
			C452,127.716,445.284,121,437,121z M316,151h30v8.787l-15,15l-15-15V151z M331,361c-16.542,0-30-13.458-30-30s13.458-30,30-30
			s30,13.458,30,30S347.542,361,331,361z M422,361h-39.072c5.123-8.833,8.072-19.075,8.072-30c0-33.084-26.916-60-60-60
			s-60,26.916-60,60c0,10.925,2.949,21.167,8.072,30H240V151h46v15c0,3.978,1.581,7.793,4.394,10.607L316,202.213V226
			c0,8.284,6.716,15,15,15s15-6.716,15-15v-23.787l25.606-25.606C374.419,173.793,376,169.978,376,166v-15h46V361z"/>
	</g>
</g>
<g>
	<g>
		<path d="M165,121H75c-8.284,0-15,6.716-15,15v90c0,8.284,6.716,15,15,15h90c8.284,0,15-6.716,15-15v-90
			C180,127.716,173.284,121,165,121z M150,211H90v-60h60V211z"/>
	</g>
</g>
<g>
	<g>
		<path d="M467,60H268.426c-4.247,0-9.02-1.807-11.606-4.393L214.394,13.18C205.895,4.68,194.594,0,182.574,0H45
			C20.187,0,0,20.187,0,45v361c0,21.417,15.044,39.375,35.117,43.893L61.54,503.62C64.063,508.75,69.283,512,75,512h60
			c5.717,0,10.937-3.25,13.46-8.38L174.339,451h162.322l25.878,52.62c2.523,5.13,7.743,8.38,13.46,8.38h61
			c5.717,0,10.937-3.25,13.46-8.38l26.423-53.727C496.956,445.375,512,427.417,512,406V105C512,80.187,491.813,60,467,60z
			 M125.661,482H84.339l-15.246-31h71.814L125.661,482z M427.661,482h-42.322l-15.246-31h72.814L427.661,482z M482,406
			c0,8.271-6.729,15-15,15c-40.749,0-380.061,0-422,0c-8.271,0-15-6.729-15-15V45c0-8.271,6.729-15,15-15h137.574
			c4.006,0,7.773,1.56,10.606,4.394l42.427,42.426C243.86,85.073,256.129,90,268.427,90H467c8.271,0,15,6.729,15,15V406z"/>
	</g>
</g>
<g>
</g>
<g>
</g>
<g>
</g>
<g>
</g>
<g>
</g>
<g>
</g>
<g>
</g>
<g>
</g>
<g>
</g>
<g>
</g>
<g>
</g>
<g>
</g>
<g>
</g>
<g>
</g>
<g>
</g>
</svg>
