<?xml version="1.0" encoding="iso-8859-1"?>
<!-- Generator: Adobe Illustrator 19.0.0, SVG Export Plug-In . SVG Version: 6.00 Build 0)  -->
<svg version="1.1" id="Capa_1" xmlns="http://www.w3.org/2000/svg" xmlns:xlink="http://www.w3.org/1999/xlink" x="0px" y="0px"
	 viewBox="0 0 512 512" style="enable-background:new 0 0 512 512;" xml:space="preserve">
<g>
	<g>
		<path d="M105,181c-24.813,0-45,20.187-45,45s20.187,45,45,45s45-20.187,45-45S129.813,181,105,181z M105,241
			c-8.271,0-15-6.729-15-15s6.729-15,15-15s15,6.729,15,15S113.271,241,105,241z"/>
	</g>
</g>
<g>
	<g>
		<path d="M474.959,146.028l-8.639-60.789c-0.04-0.278-0.087-0.556-0.142-0.831C456.375,35.391,412.929,0,363.218,0H148.782
			C98.767,0,55.569,35.67,45.822,84.408c-0.055,0.276-0.103,0.553-0.142,0.831l-8.639,60.789C14.394,165.303,0,194,0,226
			c0,57.897,47.103,105,105,105c31.17,0,59.206-13.657,78.453-35.296c6.848-2.154,13.787-3.992,20.791-5.518l-8.971,126.428
			C186.026,426.803,181,439.167,181,452c0,31.009,30.539,60,75,60c44.903,0,75-29.308,75-60c0-12.833-5.026-25.197-14.272-35.386
			l-8.971-126.428c7.003,1.526,13.942,3.364,20.791,5.518C347.794,317.343,375.83,331,407,331c57.897,0,105-47.103,105-105
			C512,194,497.606,165.303,474.959,146.028z M148.782,30h214.436c1.117,0,2.23,0.025,3.337,0.075
			C352.431,48.483,329.831,60,305.73,60H190.623c-23.212,0-44.521-10.472-58.559-28.095C137.463,30.663,143.061,30,148.782,30z
			 M105,301c-41.355,0-75-33.645-75-75c0-41.355,33.645-75,75-75s75,33.645,75,75S146.355,301,105,301z M256,482
			c-24.393,0-45-13.738-45-30c0-7.93,4.833-13.954,8.887-17.612c2.879-2.597,4.64-6.208,4.915-10.076l9.845-138.745
			c14.202-1.246,28.506-1.246,42.707,0l9.844,138.746c0.274,3.867,2.036,7.479,4.915,10.076C296.167,438.046,301,444.07,301,452
			C301,468.262,280.393,482,256,482z M302,226c0,11.716,1.93,22.989,5.487,33.519c-33.935-6.499-69.039-6.499-102.974,0
			C208.07,248.989,210,237.716,210,226c0-21.681-6.606-41.847-17.909-58.594l6.485-9.727c2.622-3.933,8.165-6.679,13.48-6.679
			h87.889c5.315,0,10.859,2.747,13.481,6.679l6.484,9.727C308.606,184.153,302,204.319,302,226z M299.945,121h-87.889
			c-15.472,0-30.202,7.678-38.442,20.038l-2.372,3.558C153.159,129.854,130.095,121,105,121c-12.25,0-24.013,2.116-34.952,5.989
			l5.271-37.092c3.825-18.604,14.452-34.457,28.947-45.174c8.203,11.865,18.785,21.95,31.156,29.595
			C152.021,84.577,171.109,90,190.623,90H305.73c37.663,0,72.738-20.322,91.475-51.804c19.805,10.123,34.775,28.838,39.476,51.701
			l5.271,37.092C431.013,123.116,419.25,121,407,121c-25.095,0-48.159,8.854-66.241,23.596l-2.372-3.558
			C330.147,128.678,315.416,121,299.945,121z M407,301c-41.355,0-75-33.645-75-75c0-41.355,33.645-75,75-75
			c41.355,0,75,33.645,75,75S448.355,301,407,301z"/>
	</g>
</g>
<g>
	<g>
		<path d="M407,181c-24.813,0-45,20.187-45,45s20.187,45,45,45s45-20.187,45-45S431.813,181,407,181z M407,241
			c-8.271,0-15-6.729-15-15s6.729-15,15-15s15,6.729,15,15S415.271,241,407,241z"/>
	</g>
</g>
<g>
	<g>
		<circle cx="256" cy="196" r="15"/>
	</g>
</g>
<g>
	<g>
		<circle cx="256" cy="437" r="15"/>
	</g>
</g>
<g>
</g>
<g>
</g>
<g>
</g>
<g>
</g>
<g>
</g>
<g>
</g>
<g>
</g>
<g>
</g>
<g>
</g>
<g>
</g>
<g>
</g>
<g>
</g>
<g>
</g>
<g>
</g>
<g>
</g>
</svg>
