<?xml version="1.0" encoding="iso-8859-1"?>
<!-- Generator: Adobe Illustrator 19.0.0, SVG Export Plug-In . SVG Version: 6.00 Build 0)  -->
<svg version="1.1" id="Capa_1" xmlns="http://www.w3.org/2000/svg" xmlns:xlink="http://www.w3.org/1999/xlink" x="0px" y="0px"
	 viewBox="0 0 512 512" style="enable-background:new 0 0 512 512;" xml:space="preserve">
<g>
	<g>
		<path d="M500.539,211.424l-25.45-6.179c-5.597-24.372-15.079-47.304-28.283-68.396l12.974-21.624
			c3.542-5.902,2.611-13.457-2.256-18.324L415.1,54.475c-4.867-4.867-12.421-5.797-18.324-2.256L375.15,65.194
			c-21.09-13.203-44.022-22.686-68.395-28.283l-6.179-25.45C298.943,4.735,292.921,0,286,0h-60c-6.921,0-12.943,4.735-14.577,11.461
			l-6.179,25.45c-24.373,5.597-47.305,15.079-68.396,28.283l-21.625-12.975c-5.902-3.541-13.457-2.611-18.324,2.256L54.475,96.9
			c-4.867,4.867-5.797,12.422-2.256,18.324l12.974,21.624c-13.204,21.093-22.686,44.025-28.283,68.396l-25.45,6.179
			C4.735,213.056,0,219.079,0,226v60c0,6.921,4.735,12.944,11.461,14.576l25.45,6.179c5.597,24.373,15.079,47.304,28.282,68.395
			l-12.974,21.623c-3.542,5.902-2.611,13.457,2.255,18.324L96.9,457.525c4.868,4.867,12.423,5.798,18.324,2.256l21.624-12.974
			c21.092,13.203,44.024,22.686,68.396,28.283l6.179,25.45C213.057,507.265,219.079,512,226,512h60
			c6.921,0,12.943-4.735,14.577-11.461l6.179-25.45c24.372-5.597,47.305-15.079,68.396-28.283l21.624,12.974
			c5.902,3.542,13.458,2.611,18.324-2.256l42.425-42.427c4.867-4.867,5.797-12.422,2.255-18.324l-12.974-21.623
			c13.203-21.091,22.686-44.022,28.282-68.395l25.45-6.179C507.265,298.944,512,292.921,512,286v-60
			C512,219.079,507.265,213.056,500.539,211.424z M482,274.206l-23.208,5.635c-5.745,1.395-10.134,6.033-11.21,11.846
			c-5.002,27.023-15.379,52.125-30.84,74.609c-3.329,4.841-3.525,11.179-0.503,16.217l11.792,19.654l-25.863,25.864l-19.653-11.792
			c-5.038-3.023-11.375-2.826-16.216,0.502c-22.485,15.462-47.588,25.838-74.611,30.841c-5.813,1.076-10.451,5.466-11.846,11.21
			L274.206,482h-36.412l-5.635-23.208c-1.395-5.745-6.034-10.134-11.846-11.21c-27.022-5.003-52.125-15.379-74.611-30.841
			c-4.841-3.328-11.179-3.526-16.216-0.502l-19.653,11.792L83.97,402.167l11.792-19.654c3.022-5.038,2.826-11.376-0.503-16.217
			c-15.461-22.483-25.837-47.585-30.84-74.609c-1.076-5.813-5.466-10.451-11.21-11.846L30,274.206v-36.412l23.208-5.635
			c5.745-1.395,10.134-6.033,11.21-11.846c5.002-27.022,15.378-52.125,30.84-74.611c3.329-4.841,3.525-11.179,0.502-16.217
			l-11.79-19.653l25.862-25.863l19.655,11.793c5.038,3.023,11.376,2.826,16.217-0.503c22.483-15.461,47.585-25.837,74.609-30.84
			c5.813-1.076,10.451-5.466,11.846-11.21L237.794,30h36.412l5.635,23.208c1.395,5.745,6.034,10.134,11.846,11.21
			c27.023,5.003,52.125,15.379,74.608,30.84c4.84,3.328,11.178,3.526,16.217,0.503l19.656-11.793l25.862,25.863l-11.792,19.654
			c-3.022,5.038-2.826,11.376,0.502,16.217c15.462,22.486,25.838,47.589,30.84,74.611c1.076,5.813,5.466,10.452,11.21,11.846
			l23.21,5.635V274.206z"/>
	</g>
</g>
<g>
	<g>
		<path d="M256,91c-90.981,0-165,74.019-165,165s74.019,165,165,165s165-74.019,165-165S346.981,91,256,91z M256,391
			c-74.439,0-135-60.561-135-135s60.561-135,135-135s135,60.561,135,135S330.439,391,256,391z"/>
	</g>
</g>
<g>
	<g>
		<path d="M342.464,197.018l-79-45.323c-4.649-2.668-10.367-2.651-15,0.041l-78,45.323c-4.544,2.64-7.464,7.591-7.464,12.969v90.647
			c0,5.345,2.843,10.286,7.464,12.971l78,45.324c4.603,2.67,10.36,2.702,15,0.041l79-45.324c4.661-2.674,7.536-7.637,7.536-13.011
			v-90.647C350,204.627,347.055,199.654,342.464,197.018z M241,319.935l-48-27.891v-55.95l48,27.891V319.935z M256.048,238.032
			l-48.192-28.003l48.192-28.003l48.81,28.003L256.048,238.032z M320,291.989l-49,28.112V264.04l49-28.112V291.989z"/>
	</g>
</g>
<g>
</g>
<g>
</g>
<g>
</g>
<g>
</g>
<g>
</g>
<g>
</g>
<g>
</g>
<g>
</g>
<g>
</g>
<g>
</g>
<g>
</g>
<g>
</g>
<g>
</g>
<g>
</g>
<g>
</g>
</svg>
