<?xml version="1.0" encoding="iso-8859-1"?>
<!-- Generator: Adobe Illustrator 19.0.0, SVG Export Plug-In . SVG Version: 6.00 Build 0)  -->
<svg version="1.1" id="Capa_1" xmlns="http://www.w3.org/2000/svg" xmlns:xlink="http://www.w3.org/1999/xlink" x="0px" y="0px"
	 viewBox="0 0 512 512" style="enable-background:new 0 0 512 512;" xml:space="preserve">
<g>
	<g>
		<path d="M511.993,14.86C511.919,6.656,505.236,0,497,0H255c-4.092,0-7.884,1.658-10.635,4.425c-0.01,0.01-0.02,0.018-0.03,0.027
			l-90,91C151.642,98.176,150,102.043,150,106v240c0,0.015,0.002,0.029,0.002,0.044c0.025,8.29,6.803,14.957,15.001,14.956H407
			c3.804,0,7.727-1.516,10.604-4.391c0.001-0.001,0.002-0.001,0.002-0.002l90-90c0,0,0,0,0-0.001
			c2.629-2.629,4.32-6.358,4.382-10.382C511.99,256.149,512,256.076,512,256V15C512,14.953,511.993,14.907,511.993,14.86z
			 M240,51.498V91h-39.068L240,51.498z M180,121h60v128.787l-60,60V121z M392,331H201.213l60-60H392V331z M392,241H270V121h122V241z
			 M400.738,91H270V30h191.068L400.738,91z M422,309.787V271h38.787L422,309.787z M482,241h-60V112.165l60-60.667V241z"/>
	</g>
</g>
<g>
	<g>
		<path d="M497,391H120V15c0-8.284-6.716-15-15-15H15C6.716,0,0,6.716,0,15v482c0,0.014,0.002,0.027,0.002,0.041
			C0.024,505.409,6.892,512,15,512h482c8.284,0,15-6.716,15-15v-91C512,397.716,505.284,391,497,391z M30,30h60v31H75
			c-8.284,0-15,6.716-15,15s6.716,15,15,15h15v30H75c-8.284,0-15,6.716-15,15s6.716,15,15,15h15v30H75c-8.284,0-15,6.716-15,15
			s6.716,15,15,15h15v30H75c-8.284,0-15,6.716-15,15s6.716,15,15,15h15v30H75c-8.284,0-15,6.716-15,15s6.716,15,15,15h15v30H75
			c-8.284,0-15,6.716-15,15s6.716,15,15,15h15v8.835l-60,60.667V30z M482,482H50.932l60.33-61H120v15c0,8.284,6.716,15,15,15
			s15-6.716,15-15v-15h30v15c0,8.284,6.716,15,15,15s15-6.716,15-15v-15h30v15c0,8.284,6.716,15,15,15s15-6.716,15-15v-15h31v15
			c0,8.284,6.716,15,15,15s15-6.716,15-15v-15h30v15c0,8.284,6.716,15,15,15s15-6.716,15-15v-15h31v15c0,8.284,6.716,15,15,15
			s15-6.716,15-15v-15h30V482z"/>
	</g>
</g>
<g>
</g>
<g>
</g>
<g>
</g>
<g>
</g>
<g>
</g>
<g>
</g>
<g>
</g>
<g>
</g>
<g>
</g>
<g>
</g>
<g>
</g>
<g>
</g>
<g>
</g>
<g>
</g>
<g>
</g>
</svg>
