<?xml version="1.0" encoding="iso-8859-1"?>
<!-- Generator: Adobe Illustrator 19.0.0, SVG Export Plug-In . SVG Version: 6.00 Build 0)  -->
<svg version="1.1" id="Capa_1" xmlns="http://www.w3.org/2000/svg" xmlns:xlink="http://www.w3.org/1999/xlink" x="0px" y="0px"
	 viewBox="0 0 512 512" style="enable-background:new 0 0 512 512;" xml:space="preserve">
<g>
	<g>
		<path d="M502,241h-30.726c-4.446-30.94-29.197-55.392-60.274-59.402V121c0-5.523-4.477-10-10-10h-70c-5.523,0-10,4.477-10,10v60
			h-20v-60c0-5.523-4.477-10-10-10h-70c-5.523,0-10,4.477-10,10v60h-20v-60c0-5.523-4.477-10-10-10h-70c-5.523,0-10,4.477-10,10
			v60.598C69.923,185.608,45.172,210.06,40.726,241H10c-5.523,0-10,4.477-10,10v140c0,5.523,4.477,10,10,10h492
			c5.523,0,10-4.477,10-10V251C512,245.477,507.523,241,502,241z M341,131h50v50h-50V131z M231,131h50v50h-50V131z M121,131h50v50
			h-50V131z M110,201h292c27.57,0,50,22.43,50,50s-22.43,50-50,50H110c-27.57,0-50-22.43-50-50S82.43,201,110,201z M492,341H297
			c-5.51,0-10,4.49-10,10s4.49,10,10,10h195v20H20v-20h197c5.51,0,10-4.49,10-10s-4.49-10-10-10H20v-80h20.726
			c4.868,33.877,34.072,60,69.274,60h292c35.202,0,64.406-26.123,69.274-60H492V341z"/>
	</g>
</g>
<g>
	<g>
		<path d="M257,341c-5.51,0-10,4.49-10,10s4.49,10,10,10s10-4.49,10-10S262.51,341,257,341z"/>
	</g>
</g>
<g>
	<g>
		<path d="M402,222c-16.542,0-30,13.458-30,30s13.458,30,30,30s30-13.458,30-30S418.542,222,402,222z M402,262
			c-5.514,0-10-4.486-10-10c0-5.514,4.486-10,10-10c5.514,0,10,4.486,10,10C412,257.514,407.514,262,402,262z"/>
	</g>
</g>
<g>
	<g>
		<path d="M110,222c-16.542,0-30,13.458-30,30s13.458,30,30,30s30-13.458,30-30S126.542,222,110,222z M110,262
			c-5.514,0-10-4.486-10-10c0-5.514,4.486-10,10-10s10,4.486,10,10C120,257.514,115.514,262,110,262z"/>
	</g>
</g>
<g>
	<g>
		<path d="M207.333,222c-16.542,0-30,13.458-30,30s13.459,30,30,30c16.542,0,30-13.458,30-30S223.875,222,207.333,222z M207.333,262
			c-5.514,0-10-4.486-10-10c0-5.514,4.486-10,10-10s10,4.486,10,10C217.333,257.514,212.847,262,207.333,262z"/>
	</g>
</g>
<g>
	<g>
		<path d="M304.667,222c-16.542,0-30,13.458-30,30s13.458,30,30,30s30-13.458,30-30S321.209,222,304.667,222z M304.667,262
			c-5.514,0-10-4.486-10-10c0-5.514,4.485-10,10-10c5.514,0,10,4.486,10,10C314.667,257.514,310.181,262,304.667,262z"/>
	</g>
</g>
<g>
</g>
<g>
</g>
<g>
</g>
<g>
</g>
<g>
</g>
<g>
</g>
<g>
</g>
<g>
</g>
<g>
</g>
<g>
</g>
<g>
</g>
<g>
</g>
<g>
</g>
<g>
</g>
<g>
</g>
</svg>
