<?xml version="1.0" encoding="iso-8859-1"?>
<!-- Generator: Adobe Illustrator 19.0.0, SVG Export Plug-In . SVG Version: 6.00 Build 0)  -->
<svg version="1.1" id="Capa_1" xmlns="http://www.w3.org/2000/svg" xmlns:xlink="http://www.w3.org/1999/xlink" x="0px" y="0px"
	 viewBox="0 0 512.001 512.001" style="enable-background:new 0 0 512.001 512.001;" xml:space="preserve">
<g>
	<g>
		<path d="M89.975,212c-0.016,0-0.029,0-0.044,0c-13.341,0-25.881,5.192-35.31,14.621c-9.439,9.439-14.632,21.995-14.62,35.354
			c0.023,27.56,22.464,50.001,50.024,50.025c0.016,0,0.029,0,0.044,0c13.341,0,25.881-5.192,35.31-14.621
			c9.44-9.439,14.632-21.995,14.621-35.354C139.976,234.465,117.535,212.024,89.975,212z M90.043,292
			C73.491,291.986,60.014,278.509,60,261.957c-0.007-8.091,3.445-15.58,8.913-21.046C74.383,235.444,81.87,232,89.957,232
			c16.552,0.014,30.029,13.491,30.043,30.043C120.014,278.172,106.057,292,90.043,292z"/>
	</g>
</g>
<g>
	<g>
		<path d="M502,492c-5.51,0-10,4.49-10,10s4.49,10,10,10s10-4.49,10-10S507.51,492,502,492z"/>
	</g>
</g>
<g>
	<g>
		<path d="M455.75,396.806c4.023,3.221,10.611,2.752,14.059-1.559l40-50c2.922-3.652,2.922-8.842,0-12.494L482.806,299H492
			c5.523,0,10-4.477,10-10v-40c0-5.523-4.477-10-10-10h-20c0,0-0.128-71.811-0.362-72.657c-1.307-11.105-6.255-21.386-14.283-29.414
			L361.23,40.803c-2.852-8.487-7.635-16.461-14.373-23.211C335.531,6.248,320.473,0,304.454,0c-16.018,0-31.077,6.248-42.402,17.592
			c-5.998,6.009-10.445,12.988-13.364,20.434L111.965,174.75c-7.052-1.786-14.43-2.743-22.025-2.75h-0.08
			c-24.012,0-46.58,9.343-63.548,26.312C9.324,215.3-0.02,237.896,0,261.94c0.018,21.352,7.516,40.993,20,56.449V492H10
			c-5.51,0-10,4.49-10,10s4.49,10,10,10h452c5.51,0,10-4.49,10-10s-4.49-10-10-10H160V318.676
			c12.923-15.911,19.963-35.603,19.995-56.392l130.646-130.646L372,192.995V239h-20c-5.523,0-10,4.477-10,10v40
			c0,5.523,4.477,10,10,10h9.194l-27.002,33.753c-2.922,3.652-2.922,8.842,0,12.494c0,0,39.83,49.787,39.999,49.999
			c3.176,3.97,9.775,4.988,14.056,1.562c4.313-3.45,5.012-9.743,1.562-14.056L354.806,339l32-40H412v50c0,5.523,4.477,10,10,10
			s10-4.477,10-10v-50h25.194l32,40l-35.002,43.753C450.743,387.064,451.441,393.355,455.75,396.806z M140,492h-40v-70
			c0-5.51-4.49-10-10-10s-10,4.49-10,10v70H40V336.718C54.327,346.35,71.552,351.984,90.06,352h0.08
			c18.018-0.001,35.223-5.262,49.86-15.058V492z M139.546,311.546C126.355,324.738,108.811,332,90.14,332h-0.062
			C51.47,331.967,20.033,300.53,20,261.922c-0.016-18.694,7.248-36.262,20.454-49.468C53.646,199.262,71.189,192,89.86,192h0.062
			c38.608,0.033,70.044,31.47,70.078,70.078C160.016,280.772,152.752,298.341,139.546,311.546z M176.556,237.439
			c-2.484-8.699-6.251-16.863-11.074-24.281c0,0,36.227-36.227,36.268-36.268c3.854-3.854,3.83-10.29,0-14.14
			c-3.847-3.867-10.306-3.845-14.151,0l-34.871,34.879c-6.042-5.889-12.902-10.941-20.394-14.964l112.98-112.98
			c1.937,12.02,7.506,23.561,16.738,32.808c8.993,9.008,20.344,14.788,32.656,16.793L176.556,237.439z M304.454,100.086
			c-10.669,0-20.701-4.163-28.248-11.722c-15.589-15.616-15.589-41.026,0.001-56.642C283.753,24.163,293.785,20,304.454,20
			c10.67,0,20.702,4.163,28.248,11.722c15.589,15.616,15.589,41.025,0,56.642C325.156,95.923,315.124,100.086,304.454,100.086z
			 M324.784,117.496l1.523-1.523c7.61-2.98,14.598-7.517,20.549-13.478c8.845-8.861,14.335-19.824,16.484-31.297l79.873,79.874
			c5.667,5.666,8.787,13.2,8.787,21.213s-3.121,15.547-8.787,21.213c-11.696,11.697-30.729,11.697-42.426,0L324.784,117.496z
			 M452,212.276V239h-60v-26.724c8.854,6.65,19.424,9.985,30,9.985S443.147,218.926,452,212.276z M482,279H362v-20h120V279z"/>
	</g>
</g>
<g>
	<g>
		<path d="M90,372c-5.51,0-10,4.49-10,10s4.49,10,10,10s10-4.49,10-10S95.51,372,90,372z"/>
	</g>
</g>
<g>
	<g>
		<circle cx="90" cy="262" r="10"/>
	</g>
</g>
<g>
	<g>
		<circle cx="223" cy="142" r="10"/>
	</g>
</g>
<g>
	<g>
		<circle cx="304" cy="60" r="10"/>
	</g>
</g>
<g>
</g>
<g>
</g>
<g>
</g>
<g>
</g>
<g>
</g>
<g>
</g>
<g>
</g>
<g>
</g>
<g>
</g>
<g>
</g>
<g>
</g>
<g>
</g>
<g>
</g>
<g>
</g>
<g>
</g>
</svg>
