<?xml version="1.0" encoding="iso-8859-1"?>
<!-- Generator: Adobe Illustrator 19.0.0, SVG Export Plug-In . SVG Version: 6.00 Build 0)  -->
<svg version="1.1" id="Capa_1" xmlns="http://www.w3.org/2000/svg" xmlns:xlink="http://www.w3.org/1999/xlink" x="0px" y="0px"
	 viewBox="0 0 512 512" style="enable-background:new 0 0 512 512;" xml:space="preserve">
<g>
	<g>
		<path d="M250,326h-40c-5.523,0-10,4.477-10,10s4.477,10,10,10h40c5.523,0,10-4.477,10-10S255.523,326,250,326z"/>
	</g>
</g>
<g>
	<g>
		<path d="M130,136H90c-5.523,0-10,4.477-10,10v40c0,5.523,4.477,10,10,10s10-4.477,10-10v-30h30c5.523,0,10-4.477,10-10
			S135.523,136,130,136z"/>
	</g>
</g>
<g>
	<g>
		<path d="M342,136c-5.51,0-10,4.49-10,10s4.49,10,10,10s10-4.49,10-10S347.51,136,342,136z"/>
	</g>
</g>
<g>
	<g>
		<path d="M342,76c-5.51,0-10,4.49-10,10v20c0,5.51,4.49,10,10,10s10-4.49,10-10V86C352,80.49,347.51,76,342,76z"/>
	</g>
</g>
<g>
	<g>
		<path d="M502,436h-10v-30c0-5.523-4.478-10-10-10h-10v-50c0-5.523-4.478-10-10-10v-80c0-5.523-4.478-10-10-10h-60V46
			c0-5.523-4.478-10-10-10h-80c-5.522,0-10,4.477-10,10v100.581C262.553,113.808,227.65,96,192,96H70c-16.542,0-30,13.458-30,30
			v121.006C17.205,251.652,0,271.854,0,296v130c0,27.57,22.43,50,50,50c16.323,0,30.842-7.864,39.973-20h172.054
			c9.131,12.136,23.65,20,39.973,20s30.842-7.864,39.973-20H502c5.522,0,10-4.477,10-10S507.522,436,502,436z M180,116h12
			c34.994,0,69.795,21.25,97.992,59.834c24.095,32.972,39.295,73.434,41.679,110.166H180V116z M60,126c0-5.514,4.486-10,10-10h90
			v170H60V126z M40,267.713V286H21.713C24.731,277.488,31.488,270.731,40,267.713z M20,306h20v71.006
			c-7.386,1.505-14.183,4.644-20,9.021V306z M50,456c-16.542,0-30-13.458-30-30s13.458-30,30-30s30,13.458,30,30S66.542,456,50,456z
			 M60,377.006V306h100v90H89.973C82.757,386.41,72.177,379.488,60,377.006z M98.994,436c1.552-0.01,1.151-20-0.014-20
			c0.005,0,154.007,0,154.023,0c-1.663,0.059-1.052,20,0.003,20C252.977,436,99.079,436,98.994,436z M302,456
			c-16.542,0-30-13.458-30-30s13.458-30,30-30s30,13.458,30,30S318.542,456,302,456z M332,386.027
			C323.637,379.735,313.247,376,302,376c-16.323,0-30.842,7.864-39.973,20H180v-90h152V386.027z M372,436h-20V186
			c0-5.51-4.49-10-10-10s-10,4.49-10,10v22.772c-5.624-12.581-12.328-24.813-20-36.327V56h60V436z M392,266h50v70h-50V266z M392,356
			h60v40h-60V356z M472,436h-80v-20h80V436z"/>
	</g>
</g>
<g>
	<g>
		<circle cx="50" cy="426" r="10"/>
	</g>
</g>
<g>
	<g>
		<circle cx="302" cy="426" r="10"/>
	</g>
</g>
<g>
</g>
<g>
</g>
<g>
</g>
<g>
</g>
<g>
</g>
<g>
</g>
<g>
</g>
<g>
</g>
<g>
</g>
<g>
</g>
<g>
</g>
<g>
</g>
<g>
</g>
<g>
</g>
<g>
</g>
</svg>
