<?xml version="1.0" encoding="iso-8859-1"?>
<!-- Generator: Adobe Illustrator 19.0.0, SVG Export Plug-In . SVG Version: 6.00 Build 0)  -->
<svg version="1.1" id="Capa_1" xmlns="http://www.w3.org/2000/svg" xmlns:xlink="http://www.w3.org/1999/xlink" x="0px" y="0px"
	 viewBox="0 0 512 512" style="enable-background:new 0 0 512 512;" xml:space="preserve">
<g>
	<g>
		<path d="M256,252.024c-5.51,0-10,4.49-10,10.001c0,5.51,4.49,10.001,10,10.001c5.51,0,10-4.491,10-10.001
			C266,256.515,261.51,252.024,256,252.024z"/>
	</g>
</g>
<g>
	<g>
		<path d="M502,20.002H346V10.001C346,4.477,341.522,0,336,0H176c-5.522,0-10,4.477-10,10.001v10.001H10
			c-5.522,0-10,4.477-10,10.001v40.004c0,5.523,4.478,10.001,10,10.001h156v10.001c0,5.523,4.478,10.001,10,10.001h25v117.869
			l-77.071,77.079c-2.859,2.861-3.715,7.162-2.168,10.899c1.18,2.848,29.528,30.607,29.528,30.607l-73.752,73.76
			c-3.9,3.902-3.905,10.225-0.011,14.133c0,0,84.441,84.712,84.481,84.753c3.749,3.761,10.201,3.933,14.127,0.038
			c0,0,28.362-28.154,28.39-28.181c3.884-3.855,3.898-10.295,0.029-14.167l-49.344-49.395l38.506-38.51
			c0,0,10.177,10.178,10.213,10.214c4.975,4.976,15.645,2.929,22.071,2.929v40.004c0,5.523,4.478,10.001,10,10.001h40
			c5.522,0,10-4.477,10-10.001L286,392.038c6.507,0,16.942,2.197,22.071-2.929c0,0,4.005-4.005,10.213-10.214l38.517,38.52
			c0,0-49.163,49.364-49.193,49.395c-3.856,3.872-3.837,10.306,0.04,14.156c0,0,28.376,28.167,28.39,28.181
			c3.771,3.743,10.231,3.879,14.134-0.045l84.31-84.753c3.889-3.909,3.88-10.227-0.018-14.125l-73.752-73.76
			c14.981-14.982,27.326-27.329,27.36-27.362c3.764-3.751,3.749-10.394,0-14.144L311,217.879V100.01h25c5.522,0,10-4.477,10-10.001
			V80.008h156c5.522,0,10-4.477,10-10.001V30.003C512,24.479,507.522,20.002,502,20.002z M166,60.006H20V40.004h146V60.006z
			 M133.999,410.329c-3.903,3.905-3.905,10.234-0.003,14.141l49.317,49.369l-14.188,14.083l-70.388-70.614l66.693-66.699
			l14.142,14.143L133.999,410.329z M266,422.041h-20v-30.003h20V422.041z M296.857,372.036h-81.715l-60-60.006h201.715
			L296.857,372.036z M413.269,417.313l-70.23,70.6l-14.19-14.086l49.167-49.369c3.893-3.908,3.886-10.229-0.014-14.13
			l-45.574-45.578c4.497-4.497,9.303-9.304,14.142-14.143L413.269,417.313z M316.858,252.024H296c-5.51,0-10,4.49-10,10.001
			c0,5.511,4.49,10.001,10,10.001h40.857l20,20.002H155.143l20-20.002H216c5.51,0,10-4.491,10-10.001c0-5.511-4.49-10.001-10-10.001
			h-20.857l20-20.002h81.715L316.858,252.024z M291,105.398v24.116l-70,31.114v-24.116L291,105.398z M221,114.623V100.01h32.878
			L221,114.623z M291,151.402v24.116l-70,31.114v-24.116L291,151.402z M291,197.407v14.614h-32.878L291,197.407z M326,40.004h-30
			c-5.51,0-10,4.49-10,10.001c0,5.51,4.49,10.001,10,10.001h30v20.002H186V60.006h30c5.51,0,10-4.491,10-10.001
			c0-5.511-4.49-10.001-10-10.001h-30V20.002h140V40.004z M492,60.006H346V40.004h146V60.006z"/>
	</g>
</g>
<g>
	<g>
		<path d="M256,40.004c-5.51,0-10,4.49-10,10.001c0,5.51,4.49,10.001,10,10.001c5.51,0,10-4.491,10-10.001
			C266,44.494,261.51,40.004,256,40.004z"/>
	</g>
</g>
<g>
</g>
<g>
</g>
<g>
</g>
<g>
</g>
<g>
</g>
<g>
</g>
<g>
</g>
<g>
</g>
<g>
</g>
<g>
</g>
<g>
</g>
<g>
</g>
<g>
</g>
<g>
</g>
<g>
</g>
</svg>
