<?xml version="1.0" encoding="iso-8859-1"?>
<!-- Generator: Adobe Illustrator 19.0.0, SVG Export Plug-In . SVG Version: 6.00 Build 0)  -->
<svg version="1.1" id="Capa_1" xmlns="http://www.w3.org/2000/svg" xmlns:xlink="http://www.w3.org/1999/xlink" x="0px" y="0px"
	 viewBox="0 0 512 512" style="enable-background:new 0 0 512 512;" xml:space="preserve">
<g>
	<g>
		<path d="M502,0H170c-5.522,0-10,4.477-10,10v162H10c-5.522,0-10,4.477-10,10v320c0,5.523,4.478,10,10,10h492
			c5.522,0,10-4.477,10-10V10C512,4.477,507.522,0,502,0z M20,192h140v140H20V192z M406,452H296c-5.521,0-10,4.49-10,10
			s4.479,10,10,10h110v20H106v-20h110c5.51,0,10-4.49,10-10s-4.49-10-10-10H106v-20h300V452z M492,492h-66v-70
			c0-5.523-4.478-10-10-10H96c-5.522,0-10,4.477-10,10v70H20V352h472V492z M351.286,192l49.5,60H271.214l49.5-60H351.286z M326,172
			V60h20v112H326z M306,178.407c0,0-63.499,76.968-63.713,77.228C236.976,262.073,241.677,272,250,272c0,0,170.83,0,171.994,0
			c8.239,0,12.959-10.013,7.72-16.364L366,178.407V60h86v272H220V60h86V178.407z M492,332h-20V50c0-5.523-4.478-10-10-10H210
			c-5.522,0-10,4.477-10,10v282h-20V20h312V332z"/>
	</g>
</g>
<g>
	<g>
		<path d="M90,212H50c-5.522,0-10,4.477-10,10v80c0,5.523,4.478,10,10,10h40c5.522,0,10-4.477,10-10v-80
			C100,216.477,95.522,212,90,212z M80,292H60v-60h20V292z"/>
	</g>
</g>
<g>
	<g>
		<path d="M130,292c-5.521,0-10,4.48-10,10c0,5.52,4.479,10,10,10c5.52,0,10-4.48,10-10C140,296.48,135.52,292,130,292z"/>
	</g>
</g>
<g>
	<g>
		<path d="M130,212c-5.521,0-10,4.48-10,10s4.479,10,10,10c5.52,0,10-4.48,10-10S135.52,212,130,212z"/>
	</g>
</g>
<g>
	<g>
		<path d="M130,252c-5.521,0-10,4.48-10,10c0,5.52,4.479,10,10,10c5.52,0,10-4.48,10-10C140,256.48,135.52,252,130,252z"/>
	</g>
</g>
<g>
	<g>
		<path d="M256,452c-5.51,0-10,4.49-10,10s4.49,10,10,10s10-4.49,10-10S261.51,452,256,452z"/>
	</g>
</g>
<g>
	<g>
		<g>
			<path d="M416,372c-5.521,0-10,4.48-10,10c0,5.52,4.479,10,10,10c5.52,0,10-4.48,10-10C426,376.48,421.52,372,416,372z"/>
			<path d="M136,372c-5.521,0-10,4.48-10,10c0,5.52,4.479,10,10,10c5.52,0,10-4.48,10-10C146,376.48,141.52,372,136,372z"/>
			<path d="M216,372c-5.521,0-10,4.48-10,10c0,5.52,4.479,10,10,10c5.52,0,10-4.48,10-10C226,376.48,221.52,372,216,372z"/>
			<path d="M96,372c-5.521,0-10,4.48-10,10c0,5.52,4.479,10,10,10c5.52,0,10-4.48,10-10C106,376.48,101.52,372,96,372z"/>
			<path d="M176,372c-5.521,0-10,4.48-10,10c0,5.52,4.479,10,10,10c5.52,0,10-4.48,10-10C186,376.48,181.52,372,176,372z"/>
			<path d="M376,372c-5.521,0-10,4.48-10,10c0,5.52,4.479,10,10,10c5.52,0,10-4.48,10-10C386,376.48,381.52,372,376,372z"/>
			<path d="M256,372c-5.521,0-10,4.48-10,10c0,5.52,4.479,10,10,10c5.52,0,10-4.48,10-10C266,376.48,261.52,372,256,372z"/>
			<path d="M336,372c-5.521,0-10,4.48-10,10c0,5.52,4.479,10,10,10c5.52,0,10-4.48,10-10C346,376.48,341.52,372,336,372z"/>
			<path d="M296,372c-5.521,0-10,4.48-10,10c0,5.52,4.479,10,10,10c5.52,0,10-4.48,10-10C306,376.48,301.52,372,296,372z"/>
		</g>
	</g>
</g>
<g>
</g>
<g>
</g>
<g>
</g>
<g>
</g>
<g>
</g>
<g>
</g>
<g>
</g>
<g>
</g>
<g>
</g>
<g>
</g>
<g>
</g>
<g>
</g>
<g>
</g>
<g>
</g>
<g>
</g>
</svg>
