<?xml version="1.0" encoding="iso-8859-1"?>
<!-- Generator: Adobe Illustrator 19.0.0, SVG Export Plug-In . SVG Version: 6.00 Build 0)  -->
<svg version="1.1" id="Capa_1" xmlns="http://www.w3.org/2000/svg" xmlns:xlink="http://www.w3.org/1999/xlink" x="0px" y="0px"
	 viewBox="0 0 512 512" style="enable-background:new 0 0 512 512;" xml:space="preserve">
<g>
	<g>
		<path d="M462,212h-80c-5.523,0-10,4.477-10,10v80c0,5.523,4.477,10,10,10h80c5.523,0,10-4.477,10-10v-80
			C472,216.477,467.523,212,462,212z M452,292h-60v-60h60V292z"/>
	</g>
</g>
<g>
	<g>
		<path d="M462,372c-5.52,0-10,4.48-10,10c0,5.52,4.48,10,10,10c5.52,0,10-4.48,10-10C472,376.48,467.52,372,462,372z"/>
	</g>
</g>
<g>
	<g>
		<path d="M382,372c-5.52,0-10,4.48-10,10c0,5.52,4.48,10,10,10c5.52,0,10-4.48,10-10C392,376.48,387.52,372,382,372z"/>
	</g>
</g>
<g>
	<g>
		<path d="M422,372c-5.52,0-10,4.48-10,10c0,5.52,4.48,10,10,10c5.52,0,10-4.48,10-10C432,376.48,427.52,372,422,372z"/>
	</g>
</g>
<g>
	<g>
		<path d="M502,172h-30V82c0-16.542-13.458-30-30-30c0,0-89.982,0-90,0c1.229,0-1.996-16.084-2.456-17.495
			C343.016,14.506,323.431,0,302,0H50C22.43,0,0,22.43,0,50v452c0,5.523,4.477,10,10,10h492c5.523,0,10-4.477,10-10V182
			C512,176.477,507.523,172,502,172z M392,72h50c5.514,0,10,4.486,10,10v50h-20v-30c0-5.523-4.477-10-10-10h-30V72z M452,152v20h-20
			v-20H452z M352,72h20v20h-20V72z M352,112h60v60h-60V112z M50,20h252c13.038,0,24.159,8.359,28.287,20H21.713
			C25.841,28.359,36.962,20,50,20z M146,177.762v-22.644l60-45.094v22.843L146,177.762z M206,157.847v20.011l-30,30l-15.767-15.767
			L206,157.847z M146,130.1V100h40.05L146,130.1z M126,80V60h100v20H126z M20,60h86v30c0,5.523,4.477,10,10,10h10v82
			c0,2.652,1.054,5.196,2.929,7.071L166,226.143c0,0,0,35.664,0,35.857c0,12.812,20,13.072,20,0.001v-35.857l37.071-37.071
			c1.875-1.875,2.929-4.419,2.929-7.071v-82h10c5.523,0,10-4.477,10-10V60h86v272h-36v-30c0-5.523-4.477-10-10-10H66
			c-5.523,0-10,4.477-10,10v30H20V60z M76,332v-20h200v20H76z M206,352v60h-60v-60H206z M40,492H20v-20h20V492z M492,492H352v-20
			h140V492z M492,452H236c-5.51,0-10,4.49-10,10s4.49,10,10,10h96v20H60v-20h96c5.51,0,10-4.49,10-10s-4.49-10-10-10H20V352h106v70
			c0,5.523,4.477,10,10,10h80c5.523,0,10-4.477,10-10v-70h106v70c0,5.523,4.477,10,10,10h150V452z M492,412H352v-60h140V412z
			 M492,332H352V192h140V332z"/>
	</g>
</g>
<g>
	<g>
		<path d="M196,452c-5.51,0-10,4.49-10,10s4.49,10,10,10s10-4.49,10-10S201.51,452,196,452z"/>
	</g>
</g>
<g>
</g>
<g>
</g>
<g>
</g>
<g>
</g>
<g>
</g>
<g>
</g>
<g>
</g>
<g>
</g>
<g>
</g>
<g>
</g>
<g>
</g>
<g>
</g>
<g>
</g>
<g>
</g>
<g>
</g>
</svg>
