<?xml version="1.0" encoding="iso-8859-1"?>
<!-- Generator: Adobe Illustrator 19.0.0, SVG Export Plug-In . SVG Version: 6.00 Build 0)  -->
<svg version="1.1" id="Capa_1" xmlns="http://www.w3.org/2000/svg" xmlns:xlink="http://www.w3.org/1999/xlink" x="0px" y="0px"
	 viewBox="0 0 512 512" style="enable-background:new 0 0 512 512;" xml:space="preserve">
<g>
	<g>
		<path d="M236,412c-5.51,0-10,4.49-10,10s4.49,10,10,10s10-4.49,10-10S241.51,412,236,412z"/>
	</g>
</g>
<g>
	<g>
		<path d="M429.071,162.929l-40-40C387.196,121.054,384.652,120,382,120H90c-2.652,0-5.196,1.054-7.071,2.929l-40,40
			C41.054,164.804,40,167.348,40,170v92c0,5.523,4.477,10,10,10h372c5.523,0,10-4.477,10-10v-92
			C432,167.348,430.946,164.804,429.071,162.929z M412,252H60v-77.858L94.142,140h283.716L412,174.142V252z"/>
	</g>
</g>
<g>
	<g>
		<path d="M509.071,82.929l-80-80C427.196,1.054,424.652,0,422,0H90c-2.652,0-5.196,1.054-7.071,2.929l-80,80
			C1.054,84.804,0,87.348,0,90v412c0,5.523,4.477,10,10,10h492c5.523,0,10-4.477,10-10V90C512,87.348,510.946,84.804,509.071,82.929
			z M140,20h192v25.858L297.858,80H174.142L140,45.858V20z M86,492H20v-60h66V492z M492,492H386v-60h106V492z M492,412H276
			c-5.51,0-10,4.49-10,10s4.49,10,10,10h90v60H106v-60h90c5.51,0,10-4.49,10-10s-4.49-10-10-10H20V312h116v70
			c0,5.523,4.477,10,10,10h180c5.523,0,10-4.477,10-10v-70h156V412z M156,372v-60h160v60H156z M492,292H20V94.142L94.142,20H120v30
			c0,2.652,1.054,5.196,2.929,7.071l40,40C164.804,98.946,167.348,100,170,100h132c2.652,0,5.196-1.054,7.071-2.929l40-40
			C350.946,55.196,352,52.652,352,50V20h65.858L492,94.142V292z"/>
	</g>
</g>
<g>
	<g>
		<path d="M459,132c-5.52,0-10,4.48-10,10s4.48,10,10,10c5.52,0,10-4.48,10-10S464.52,132,459,132z"/>
	</g>
</g>
<g>
	<g>
		<path d="M459,212c-5.52,0-10,4.48-10,10s4.48,10,10,10c5.52,0,10-4.48,10-10S464.52,212,459,212z"/>
	</g>
</g>
<g>
	<g>
		<path d="M459,172c-5.52,0-10,4.48-10,10s4.48,10,10,10c5.52,0,10-4.48,10-10S464.52,172,459,172z"/>
	</g>
</g>
<g>
	<g>
		<path d="M459,252c-5.52,0-10,4.48-10,10c0,5.52,4.48,10,10,10c5.52,0,10-4.48,10-10C469,256.48,464.52,252,459,252z"/>
	</g>
</g>
<g>
</g>
<g>
</g>
<g>
</g>
<g>
</g>
<g>
</g>
<g>
</g>
<g>
</g>
<g>
</g>
<g>
</g>
<g>
</g>
<g>
</g>
<g>
</g>
<g>
</g>
<g>
</g>
<g>
</g>
</svg>
