<?xml version="1.0" encoding="iso-8859-1"?>
<!-- Generator: Adobe Illustrator 19.0.0, SVG Export Plug-In . SVG Version: 6.00 Build 0)  -->
<svg version="1.1" id="Capa_1" xmlns="http://www.w3.org/2000/svg" xmlns:xlink="http://www.w3.org/1999/xlink" x="0px" y="0px"
	 viewBox="0 0 512 512" style="enable-background:new 0 0 512 512;" xml:space="preserve">
<g>
	<g>
		<path d="M501.98,492H49.998c-5.519,0-10,4.49-10,10s4.48,10,10,10H501.98c5.511,0,9.99-4.49,9.99-10S507.49,492,501.98,492z"/>
	</g>
</g>
<g>
	<g>
		<path d="M10,492c-5.519,0-10,4.49-10,10s4.48,10,10,10c5.511,0,10-4.49,10-10C19.999,496.49,15.51,492,10,492z"/>
	</g>
</g>
<g>
	<g>
		<path d="M502,0H322.008c-5.522,0-10,4.477-10,10v40c0,0.079,0.01,0.156,0.012,0.235c0.003,0.146,0.012,0.291,0.022,0.436
			c0.015,0.232,0.038,0.462,0.069,0.69c0.017,0.125,0.035,0.25,0.057,0.376c0.046,0.265,0.105,0.526,0.172,0.783
			c0.017,0.064,0.024,0.128,0.042,0.192L337.534,142H174.487l25.151-89.289c0.371-1.318,0.447-2.676,0.275-3.998
			c0.032,0.022,0.067,0.04,0.1,0.062V10c0-5.523-4.477-10-10-10H10.02c-5.522,0-10,4.477-10,10v39.182
			c0.013-0.011,0.045,2.358,0.375,3.529l39.998,142c1.214,4.311,5.146,7.289,9.625,7.289h19.999v116c0,27.57,22.429,50,49.998,50
			h85.555c1.401,1.717,2.892,3.375,4.479,4.962c4.818,4.818,10.213,8.714,15.961,11.701V422c0,5.523,4.477,10,10,10h39.998
			c5.522,0,10-4.477,10-10v-37.337c5.749-2.986,11.143-6.883,15.961-11.701c1.588-1.588,3.079-3.246,4.479-4.962h85.555
			c27.569,0,49.998-22.43,49.998-50V202H462c4.478,0,8.411-2.978,9.625-7.289c0,0,39.994-141.985,39.998-142
			C511.871,51.837,512,50.909,512,50V10C512,4.477,507.523,0,502,0z M343.167,162l5.634,20h-52.792c-5.52,0-10,4.49-10,10
			s4.479,10,10,10h85.997v20h-251.99v-20h85.997c5.51,0,10-4.49,10-10s-4.49-10-10-10H163.22l5.634-20H343.167z M20.02,20h159.994
			v20H20.02V20z M57.59,182L23.226,60h153.582l-34.365,122H57.59z M120.016,348c-16.541,0-29.999-13.458-29.999-30V202h19.999v106
			c0,11.028,8.971,20,19.999,20h61.022c0.104,6.906,1.277,13.634,3.443,20H120.016z M266.01,412h-19.999v-20.81
			c6.632,1.025,13.367,1.025,19.999,0V412z M224.192,358.82c-14.471-14.473-17.215-38.482-6.288-55.785l62.062,62.065
			C262.59,376.027,239.307,373.936,224.192,358.82z M294.116,350.965l-62.062-62.064c17.376-10.928,40.659-8.837,55.774,6.279
			C302.403,309.756,305.127,333.53,294.116,350.965z M301.97,281.038c-25.343-25.343-66.577-25.343-91.92,0
			c-7.657,7.658-13.167,16.89-16.231,26.966l-63.803,0.009c0,0-0.001-0.004-0.001-0.013v-66h251.99v66H318.2
			C315.136,297.925,309.627,288.694,301.97,281.038z M392.005,348H317.54c2.166-6.366,3.339-13.094,3.443-20h61.022
			c11.028,0,19.999-8.972,19.999-20V202h19.999v116h0.001C422.004,334.542,408.547,348,392.005,348z M454.43,182h-84.852L335.213,60
			h153.582L454.43,182z M332.007,40V20h159.994v20H332.007z"/>
	</g>
</g>
<g>
	<g>
		<path d="M256.01,182c-5.51,0-10,4.49-10,10c0.001,5.51,4.491,10,10,10c5.51,0,10-4.49,10-10S261.52,182,256.01,182z"/>
	</g>
</g>
<g>
	<g>
		<path d="M294.008,452c-5.52,0-10,4.48-10,10c0,5.52,4.479,10,10,10c5.52,0,10-4.48,10-10C304.008,456.48,299.528,452,294.008,452z
			"/>
	</g>
</g>
<g>
	<g>
		<path d="M254.01,452c-5.52,0-10,4.48-10,10c0,5.52,4.479,10,10,10c5.52,0,10-4.48,10-10C264.01,456.48,259.53,452,254.01,452z"/>
	</g>
</g>
<g>
	<g>
		<path d="M334.007,452c-5.52,0-10,4.48-10,10c0,5.52,4.479,10,10,10c5.519,0,10-4.48,10-10C344.007,456.48,339.527,452,334.007,452
			z"/>
	</g>
</g>
<g>
	<g>
		<path d="M414.004,452c-5.52,0-10,4.48-10,10c0,5.52,4.479,10,10,10c5.519,0,10-4.48,10-10C424.004,456.48,419.524,452,414.004,452
			z"/>
	</g>
</g>
<g>
	<g>
		<path d="M454.002,452c-5.52,0-10,4.48-10,10c0,5.52,4.479,10,10,10c5.52,0,10-4.48,10-10C464.002,456.48,459.522,452,454.002,452z
			"/>
	</g>
</g>
<g>
	<g>
		<path d="M374.005,452c-5.52,0-10,4.48-10,10c0,5.52,4.479,10,10,10c5.52,0,10-4.48,10-10C384.005,456.48,379.525,452,374.005,452z
			"/>
	</g>
</g>
<g>
	<g>
		<path d="M494,452c-5.52,0-10,4.48-10,10c0,5.52,4.479,10,10,10c5.52,0,10-4.48,10-10C504,456.48,499.52,452,494,452z"/>
	</g>
</g>
<g>
</g>
<g>
</g>
<g>
</g>
<g>
</g>
<g>
</g>
<g>
</g>
<g>
</g>
<g>
</g>
<g>
</g>
<g>
</g>
<g>
</g>
<g>
</g>
<g>
</g>
<g>
</g>
<g>
</g>
</svg>
