<?xml version="1.0" encoding="iso-8859-1"?>
<!-- Generator: Adobe Illustrator 19.0.0, SVG Export Plug-In . SVG Version: 6.00 Build 0)  -->
<svg version="1.1" id="Capa_1" xmlns="http://www.w3.org/2000/svg" xmlns:xlink="http://www.w3.org/1999/xlink" x="0px" y="0px"
	 viewBox="0 0 512 512" style="enable-background:new 0 0 512 512;" xml:space="preserve">
<g>
	<g>
		<path d="M290,275c-5.51,0-10,4.49-10,10s4.49,10,10,10s10-4.49,10-10S295.51,275,290,275z"/>
	</g>
</g>
<g>
	<g>
		<path d="M290,315c-5.51,0-10,4.49-10,10v40c0,5.51,4.49,10,10,10s10-4.49,10-10v-40C300,319.49,295.51,315,290,315z"/>
	</g>
</g>
<g>
	<g>
		<path d="M170,275c-5.51,0-10,4.49-10,10s4.49,10,10,10s10-4.49,10-10S175.51,275,170,275z"/>
	</g>
</g>
<g>
	<g>
		<path d="M170,315c-5.51,0-10,4.49-10,10v40c0,5.51,4.49,10,10,10s10-4.49,10-10v-40C180,319.49,175.51,315,170,315z"/>
	</g>
</g>
<g>
	<g>
		<path d="M511.996,421.913c-0.001-0.081-0.01-0.161-0.012-0.242c-0.075-2.298-0.951-4.52-2.462-6.247
			c-0.032-0.036-0.056-0.078-0.088-0.114L476,378.163V134c0-49.626-40.374-90-90-90h-46V20h10c5.523,0,10-4.477,10-10
			s-4.477-10-10-10h-40c-5.523,0-10,4.477-10,10s4.477,10,10,10h10v24H110c-49.626,0-90,40.374-90,90v51.027
			C7.864,194.158,0,208.677,0,225v277c0,5.523,4.477,10,10,10h492c5.523,0,10-4.477,10-10v-80
			C512,421.971,511.996,421.943,511.996,421.913z M479.546,412h-87.093l18-20h51.093L479.546,412z M416,372V224h40v148H416z M40,134
			c0-38.598,31.402-70,70-70h276c38.598,0,70,31.402,70,70v70h-40v-70c0-27.57-22.43-50-50-50h-56c-5.523,0-10,4.477-10,10
			c0,0,0,81.921,0,82.006c0-1.898-18.902-0.176-20.095-0.09c0.161,0,0.095-73.829,0.095-81.917c0-5.523-4.477-10-10-10h-80
			c-5.523,0-10,4.477-10,10c0,0,0,81.912,0,82.003c-0.065-1.654-20-1.104-20,0.003c0-0.001,0-82.006,0-82.006
			c0-5.523-4.477-10-10-10h-40c-27.57,0-50,22.429-50,49.999c0,13.933,0.001,27.864,0.11,41.796
			c-6.862-0.588-13.285-1.181-20.11,0.21V134z M80,492H20V254h60V492z M80,234H20v-9c0-16.542,13.458-30,30-30s30,13.458,30,30V234z
			 M120,492h-20v-20h20V492z M120,225v227h-20V225c0-16.323-7.864-30.842-20-39.973V134c0-16.542,13.458-30,30-30h30v81.027
			C127.864,194.158,120,208.677,120,225z M200,492h-60V254h60V492z M200,234h-60v-9c0-16.542,13.458-30,30-30s30,13.458,30,30V234z
			 M240,492h-20v-20h20V492z M240,225v227h-20V225c0-16.323-7.864-30.842-20-39.973V104h60v81.027
			C247.864,194.158,240,208.677,240,225z M320,492h-60V254h60V492z M320,234h-60v-9c0-16.542,13.458-30,30-30s30,13.458,30,30V234z
			 M360,492h-20v-20h20V492z M362.479,415.424c-1.433,1.642-2.391,4.068-2.463,6.248c-0.003,0.081-0.011,0.16-0.012,0.241
			c0,0.029-0.004,0.057-0.004,0.087v30h-20V225c0-16.323-7.864-30.842-20-39.973V104h46c16.542,0,30,13.458,30,30v244.163
			l-33.433,37.148C362.535,415.347,362.511,415.388,362.479,415.424z M492,492H380v-30v-30h112V492z"/>
	</g>
</g>
<g>
	<g>
		<path d="M50,275c-5.51,0-10,4.49-10,10s4.49,10,10,10s10-4.49,10-10S55.51,275,50,275z"/>
	</g>
</g>
<g>
	<g>
		<path d="M50,315c-5.51,0-10,4.49-10,10v40c0,5.51,4.49,10,10,10s10-4.49,10-10v-40C60,319.49,55.51,315,50,315z"/>
	</g>
</g>
<g>
</g>
<g>
</g>
<g>
</g>
<g>
</g>
<g>
</g>
<g>
</g>
<g>
</g>
<g>
</g>
<g>
</g>
<g>
</g>
<g>
</g>
<g>
</g>
<g>
</g>
<g>
</g>
<g>
</g>
</svg>
