<?xml version="1.0" encoding="iso-8859-1"?>
<!-- Generator: Adobe Illustrator 19.0.0, SVG Export Plug-In . SVG Version: 6.00 Build 0)  -->
<svg version="1.1" id="Capa_1" xmlns="http://www.w3.org/2000/svg" xmlns:xlink="http://www.w3.org/1999/xlink" x="0px" y="0px"
	 viewBox="0 0 512 512" style="enable-background:new 0 0 512 512;" xml:space="preserve">
<g>
	<g>
		<path d="M502,0H10C4.477,0,0,4.477,0,10v170c0,5.523,4.477,10,10,10h163.857L208,224.143V311c0,3.382,1.709,6.535,4.544,8.38
			l38.4,25c1.656,1.079,3.555,1.62,5.457,1.62c1.78,0,3.563-0.475,5.15-1.429l41.601-25C306.159,317.763,308,314.51,308,311v-86.857
			L342.143,190H502c5.522,0,10-4.477,10-10V10C512,4.477,507.522,0,502,0z M288,305.343l-31.388,18.863L228,305.578V230h60V305.343z
			 M293.857,210h-71.715l-20-20h111.715L293.857,210z M492,170H20V20h472V170z"/>
	</g>
</g>
<g>
	<g>
		<path d="M502,412h-40c-5.522,0-10,4.477-10,10v30H326v-48.501c0,0,165.401-64.233,165.504-64.273
			c5.073-1.97,7.673-7.869,5.701-12.942c0,0-14.456-37.224-14.48-37.287c-1.939-4.992-7.971-7.63-12.941-5.702L256,366.317
			c0,0-213.601-82.952-213.783-83.023c-5.021-1.95-11.002,0.706-12.942,5.702c0,0-14.467,37.253-14.48,37.287
			c-1.95,5.022,0.718,11.007,5.702,12.942L186,403.499V452H60v-30c0-5.523-4.477-10-10-10H10c-5.523,0-10,4.477-10,10v80
			c0,5.523,4.477,10,10,10h492c5.522,0,10-4.477,10-10v-80C512,416.477,507.522,412,502,412z M37.058,324.202l7.24-18.644
			l208.082,80.809c2.329,0.904,4.911,0.904,7.24,0l208.082-80.809l7.24,18.644l-215.321,83.62c-2.32,0.9-4.924,0.901-7.241,0
			L37.058,324.202z M306,411.265V452H206v-40.735l39.14,15.2c3.477,1.35,7.13,2.035,10.86,2.035c3.729,0,7.383-0.685,10.86-2.035
			L306,411.265z M20,432h20v20H20V432z M492,492H20v-20h472V492z M492,452h-20v-20h20V452z"/>
	</g>
</g>
<g>
	<g>
		<path d="M133.891,56.109c-21.445-21.444-56.337-21.444-77.782,0c-21.444,21.445-21.444,56.337,0,77.782
			C66.832,144.613,80.916,149.974,95,149.974s28.168-5.361,38.891-16.083C155.335,112.446,155.335,77.554,133.891,56.109z
			 M119.749,119.748c-13.646,13.646-35.851,13.646-49.497,0c-13.648-13.646-13.648-35.85-0.001-49.497
			C77.075,63.428,86.037,60.016,95,60.016c5.736,0,11.468,1.405,16.643,4.199L87.929,87.929c-3.905,3.905-3.905,10.237,0,14.142
			c3.746,3.746,10.297,3.846,14.143,0l23.714-23.714C132.947,91.618,130.939,108.559,119.749,119.748z"/>
	</g>
</g>
<g>
	<g>
		<path d="M263.891,56.109c-21.444-21.444-56.336-21.444-77.782,0c-21.444,21.445-21.444,56.337,0,77.782
			c10.723,10.722,24.807,16.083,38.891,16.083s28.168-5.361,38.891-16.083C285.335,112.446,285.335,77.554,263.891,56.109z
			 M249.749,119.748c-13.646,13.646-35.851,13.646-49.497,0c-11.19-11.19-13.197-28.13-6.037-41.391
			c0,0,23.672,23.672,23.714,23.714c3.71,3.71,10.329,3.813,14.143,0c3.905-3.905,3.905-10.237,0-14.143l-23.714-23.714
			c5.175-2.794,10.907-4.199,16.643-4.199c8.962,0.001,17.924,3.413,24.748,10.236C263.396,83.897,263.396,106.102,249.749,119.748z
			"/>
	</g>
</g>
<g>
	<g>
		<path d="M422,40c-5.51,0-10,4.49-10,10v50c0,5.51,4.49,10,10,10s10-4.49,10-10V50C432,44.49,427.51,40,422,40z"/>
	</g>
</g>
<g>
	<g>
		<path d="M422,130c-5.51,0-10,4.49-10,10s4.49,10,10,10s10-4.49,10-10S427.51,130,422,130z"/>
	</g>
</g>
<g>
	<g>
		<path d="M382,40c-5.51,0-10,4.49-10,10v50c0,5.51,4.49,10,10,10s10-4.49,10-10V50C392,44.49,387.51,40,382,40z"/>
	</g>
</g>
<g>
	<g>
		<path d="M382,130c-5.51,0-10,4.49-10,10s4.49,10,10,10s10-4.49,10-10S387.51,130,382,130z"/>
	</g>
</g>
<g>
	<g>
		<path d="M342,130c-5.51,0-10,4.49-10,10s4.49,10,10,10s10-4.49,10-10S347.51,130,342,130z"/>
	</g>
</g>
<g>
	<g>
		<path d="M342,40c-5.51,0-10,4.49-10,10v50c0,5.51,4.49,10,10,10s10-4.49,10-10V50C352,44.49,347.51,40,342,40z"/>
	</g>
</g>
<g>
</g>
<g>
</g>
<g>
</g>
<g>
</g>
<g>
</g>
<g>
</g>
<g>
</g>
<g>
</g>
<g>
</g>
<g>
</g>
<g>
</g>
<g>
</g>
<g>
</g>
<g>
</g>
<g>
</g>
</svg>
