<?xml version="1.0" encoding="iso-8859-1"?>
<!-- Generator: Adobe Illustrator 19.0.0, SVG Export Plug-In . SVG Version: 6.00 Build 0)  -->
<svg version="1.1" id="Capa_1" xmlns="http://www.w3.org/2000/svg" xmlns:xlink="http://www.w3.org/1999/xlink" x="0px" y="0px"
	 viewBox="0 0 512 512" style="enable-background:new 0 0 512 512;" xml:space="preserve">
<g>
	<g>
		<path d="M502,20H386V10c0-5.523-4.478-10-10-10H216c-5.522,0-10,4.477-10,10v10H10C4.478,20,0,24.477,0,30v40
			c0,5.523,4.478,10,10,10h196v10c0,5.523,4.478,10,10,10h44v12.035l-107.83,55.039C151.452,167.03,150.73,167,150,167
			c-19.299,0-35,15.701-35,35c0,1.574,0.115,3.122,0.317,4.642l-48.421,22.239C63.308,230.496,61,234.065,61,238v64
			c0,5.523,4.478,10,10,10c5.522,0,10-4.477,10-10v-57.534l42.541-19.594C129.964,232.292,139.44,237,150,237
			s20.036-4.708,26.459-12.128L221,244.466V302c0,5.523,4.478,10,10,10c5.522,0,10-4.477,10-10v-64c0-3.935-2.308-7.504-5.896-9.119
			l-37.649-16.492l128.854-61.523c3.478-1.66,5.691-5.17,5.691-9.024V100h44c5.522,0,10-4.477,10-10V80h116c5.522,0,10-4.477,10-10
			V30C512,24.477,507.522,20,502,20z M206,60H20V40h186V60z M150,217c-8.271,0-15-6.729-15-15s6.729-15,15-15s15,6.729,15,15
			S158.271,217,150,217z M312,135.536L312,135.536l-127.455,60.855c-1.16-7.168-4.506-13.61-9.329-18.625l99.33-50.701
			c3.348-1.708,5.454-5.149,5.454-8.907V100h32V135.536z M366,40h-30c-5.51,0-10,4.49-10,10s4.49,10,10,10h30v20H226V60h30
			c5.51,0,10-4.49,10-10s-4.49-10-10-10h-30V20h140V40z M492,60H386V40h106V60z"/>
	</g>
</g>
<g>
	<g>
		<path d="M296,40c-5.51,0-10,4.49-10,10s4.49,10,10,10s10-4.49,10-10S301.51,40,296,40z"/>
	</g>
</g>
<g>
	<g>
		<path d="M502,392h-30.726c-4.869-33.876-34.072-60-69.274-60h-41v-70c0-5.523-4.478-10-10-10h-80c-5.522,0-10,4.477-10,10v70h-60
			v-70c0-5.523-4.478-10-10-10h-80c-5.522,0-10,4.477-10,10v70.598c-31.078,4.01-55.837,28.464-60.284,59.402H10
			c-5.522,0-10,4.477-10,10v100c0,5.523,4.478,10,10,10h492c5.522,0,10-4.477,10-10V402C512,396.477,507.522,392,502,392z M281,272
			h60v60h-60V272z M121,272h60v60h-60V272z M110,352h292c27.57,0,50,22.43,50,50s-22.43,50-50,50H110c-27.57,0-50-22.43-50-50
			S82.43,352,110,352z M492,492H20v-80h20.726c4.868,33.876,34.072,60,69.274,60h292c35.203,0,64.406-26.124,69.274-60H492V492z"/>
	</g>
</g>
<g>
	<g>
		<path d="M396.525,373c-7.678,0-14.688,2.902-20,7.663c-5.312-4.761-12.322-7.663-20-7.663c-7.678,0-14.688,2.902-20,7.663
			c-5.312-4.761-12.322-7.663-20-7.663c-7.678,0-14.688,2.902-20,7.663c-5.312-4.761-12.322-7.663-20-7.663
			c-7.678,0-14.688,2.902-20,7.663c-5.312-4.761-12.322-7.663-20-7.663c-7.678,0-14.688,2.902-20,7.663
			c-5.312-4.761-12.322-7.663-20-7.663c-7.678,0-14.688,2.902-20,7.663c-5.312-4.761-12.322-7.663-20-7.663
			c-7.678,0-14.688,2.902-20,7.663c-5.312-4.761-12.322-7.663-20-7.663c-16.542,0-30,13.458-30,30s13.458,30,30,30
			c7.678,0,14.688-2.902,20-7.663c5.312,4.761,12.322,7.663,20,7.663c7.678,0,14.688-2.902,20-7.663
			c5.312,4.761,12.322,7.663,20,7.663c7.678,0,14.688-2.902,20-7.663c5.312,4.761,12.322,7.663,20,7.663
			c7.678,0,14.688-2.902,20-7.663c5.312,4.761,12.322,7.663,20,7.663c7.678,0,14.688-2.902,20-7.663
			c5.312,4.761,12.322,7.663,20,7.663c7.678,0,14.688-2.902,20-7.663c5.312,4.761,12.322,7.663,20,7.663
			c7.678,0,14.688-2.902,20-7.663c5.312,4.761,12.322,7.663,20,7.663c16.542,0,30-13.458,30-30S413.067,373,396.525,373z
			 M116.525,413c-5.514,0-10-4.486-10-10c0-5.514,4.487-10,10-10c5.514,0,10,4.486,10,10C126.525,408.514,122.039,413,116.525,413z
			 M156.525,413c-5.514,0-10-4.486-10-10c0-5.514,4.487-10,10-10c5.514,0,10,4.486,10,10C166.525,408.514,162.039,413,156.525,413z
			 M196.525,413c-5.514,0-10-4.486-10-10c0-5.514,4.487-10,10-10c5.514,0,10,4.486,10,10C206.525,408.514,202.039,413,196.525,413z
			 M236.525,413c-5.514,0-10-4.486-10-10c0-5.514,4.487-10,10-10c5.514,0,10,4.486,10,10C246.525,408.514,242.039,413,236.525,413z
			 M276.525,413c-5.514,0-10-4.486-10-10c0-5.514,4.487-10,10-10c5.514,0,10,4.486,10,10C286.525,408.514,282.039,413,276.525,413z
			 M316.525,413c-5.514,0-10-4.486-10-10c0-5.514,4.487-10,10-10c5.514,0,10,4.486,10,10C326.525,408.514,322.039,413,316.525,413z
			 M356.525,413c-5.514,0-10-4.486-10-10c0-5.514,4.487-10,10-10c5.514,0,10,4.486,10,10C366.525,408.514,362.039,413,356.525,413z
			 M396.525,413c-5.514,0-10-4.486-10-10c0-5.514,4.487-10,10-10c5.514,0,10,4.486,10,10C406.525,408.514,402.039,413,396.525,413z"
			/>
	</g>
</g>
<g>
</g>
<g>
</g>
<g>
</g>
<g>
</g>
<g>
</g>
<g>
</g>
<g>
</g>
<g>
</g>
<g>
</g>
<g>
</g>
<g>
</g>
<g>
</g>
<g>
</g>
<g>
</g>
<g>
</g>
</svg>
