<?xml version="1.0" encoding="iso-8859-1"?>
<!-- Generator: Adobe Illustrator 19.0.0, SVG Export Plug-In . SVG Version: 6.00 Build 0)  -->
<svg version="1.1" id="Capa_1" xmlns="http://www.w3.org/2000/svg" xmlns:xlink="http://www.w3.org/1999/xlink" x="0px" y="0px"
	 viewBox="0 0 512 512" style="enable-background:new 0 0 512 512;" xml:space="preserve">
<g>
	<g>
		<path d="M10,492c-5.51,0-10,4.49-10,10s4.49,10,10,10s10-4.49,10-10S15.51,492,10,492z"/>
	</g>
</g>
<g>
	<g>
		<path d="M501.999,492h-33.856c43.774-49.909,43.874-181.333,43.856-187c0-89.579-48.126-93.803-53.573-93.992
			c-1.471-0.094-34.145-2.51-37.583-21.766c-4.419-24.749-24.436-38.742-34.844-44.464V101c0-5.523-4.477-10-10-10h-40
			c-5.523,0-10,4.477-10,10h-57.322l5.971-41H306c5.523,0,10-4.477,10-10V20h146c5.51,0,10-4.49,10-10s-4.49-10-10-10H10
			C4.49,0,0,4.49,0,10s4.49,10,10,10h106v30c0,5.523,4.477,10,10,10h31.351l5.971,41H90c-49.626,0-90,40.374-90,90v130
			c0,49.626,40.374,90,90,90h236c0,5.523,4.477,10,10,10h40c5.523,0,10-4.477,10-10v-18.295c7.329-0.462,17.187,0.25,23.491,5.274
			c10.045,8.006,10.611,30.408,1.606,39.783C398.277,451.104,372.672,447,356,447c-17.824,0-25.529-3.169-34.449-6.839
			c-26.409-10.863-63.862-16.1-87.449,3.345C228.344,448.251,223.798,452,205,452c-31.21,0-48.402,23.082-55.201,40H50
			c-5.51,0-10,4.49-10,10s4.49,10,10,10h451.999c5.51,0,10-4.49,10-10S507.509,492,501.999,492z M136,40V20h160v20H136z
			 M232.017,213.957C227.037,212.053,221.641,211,216,211s-11.038,1.053-16.018,2.957L177.562,60h76.876L232.017,213.957z M241,256
			c0,13.785-11.215,25-25,25c-13.785,0-25-11.215-25-25c0-13.785,11.215-25,25-25C229.785,231,241,242.215,241,256z
			 M181.665,226.958C175.02,234.802,171,244.938,171,256c0,24.813,20.187,45,45,45s45-20.187,45-45
			c0-11.062-4.02-21.198-10.665-29.042l4.267-29.301C273.504,210.203,286,231.663,286,256c0,38.598-31.402,70-70,70
			c-38.598,0-70-31.402-70-70c0-24.337,12.497-45.791,31.399-58.334L181.665,226.958z M326,391H90c-38.598,0-70-31.402-70-70V191
			c0-38.598,31.402-70,70-70h76.234l8.052,55.29C145.611,191.355,126,221.422,126,256c0,49.626,40.374,90,90,90
			c49.626,0,90-40.374,90-90c0-34.579-19.609-64.654-48.285-79.719l8.05-55.281H326V391z M366,401h-20V111h20V401z M426.999,492
			H172.127c5.425-9.148,15.519-20,32.873-20c24.024,0,33.155-5.916,41.823-13.062c17.557-14.473,47.916-8.179,67.118-0.28
			C323.913,462.759,334.223,467,356,467c21.524,0,40.113,0,54.477-5.546c29.755-11.49,36.32-59.441,11.389-79.186
			c-11.098-8.789-25.665-10.045-35.865-9.559V345.56c13.993,0.021,35.181,2.686,42.457,14.638c2.718,4.464,9.126,6.154,13.742,3.344
			c4.718-2.872,6.214-9.024,3.343-13.741c-12.918-21.223-42.955-24.292-59.542-24.26V265.6c5.173,0.006,15.087,0.409,24.171,2.97
			c12.833,3.618,18.407,11.286,24.619,22.639c2.541,4.645,8.93,6.517,13.57,3.991c4.84-2.64,6.63-8.73,3.99-13.57
			c-4.545-8.337-9.692-17.545-17.468-23.246c-8.059-5.908-17.842-9.176-27.591-10.954c-6.597-1.191-13.76-1.794-21.29-1.823v-76.769
			c6.501,5.353,13.254,13.271,15.156,23.92c6.329,35.444,54.329,38.134,56.369,38.231c0.158,0.007,0.317,0.011,0.476,0.011
			c0.07,0,7.469,0.454,15.095,7.733c8.624,8.232,18.905,26.412,18.905,66.299c0.121,37.411-7.037,141.999-41.152,176.225
			C443.642,488.486,435.841,492,426.999,492z"/>
	</g>
</g>
<g>
	<g>
		<path d="M501.999,0c-5.51,0-10,4.49-10,10s4.49,10,10,10s10-4.49,10-10S507.509,0,501.999,0z"/>
	</g>
</g>
<g>
	<g>
		<path d="M94,145c-27.57,0-50,22.43-50,50c0,5.523,4.477,10,10,10s10-4.477,10-10c0-16.542,13.458-30,30-30c5.523,0,10-4.477,10-10
			S99.523,145,94,145z"/>
	</g>
</g>
<g>
	<g>
		<path d="M94,347c-16.542,0-30-13.458-30-30c0-5.523-4.477-10-10-10s-10,4.477-10,10c0,27.57,22.43,50,50,50
			c5.523,0,10-4.477,10-10S99.523,347,94,347z"/>
	</g>
</g>
<g>
	<g>
		<circle cx="461" cy="322" r="10"/>
	</g>
</g>
<g>
</g>
<g>
</g>
<g>
</g>
<g>
</g>
<g>
</g>
<g>
</g>
<g>
</g>
<g>
</g>
<g>
</g>
<g>
</g>
<g>
</g>
<g>
</g>
<g>
</g>
<g>
</g>
<g>
</g>
</svg>
