<?xml version="1.0" encoding="iso-8859-1"?>
<!-- Generator: Adobe Illustrator 19.0.0, SVG Export Plug-In . SVG Version: 6.00 Build 0)  -->
<svg version="1.1" id="Capa_1" xmlns="http://www.w3.org/2000/svg" xmlns:xlink="http://www.w3.org/1999/xlink" x="0px" y="0px"
	 viewBox="0 0 512 512" style="enable-background:new 0 0 512 512;" xml:space="preserve">
<g>
	<g>
		<path d="M316,92.559V62c0-5.523-4.477-10-10-10h-20V10c0-5.523-4.477-10-10-10h-40c-5.523,0-10,4.477-10,10v42h-20
			c-5.523,0-10,4.477-10,10v30.559c-44.937,4.991-80,43.196-80,89.441v320c0,5.523,4.477,10,10,10h260c5.523,0,10-4.477,10-10V182
			C396,135.754,360.937,97.549,316,92.559z M246,20h20v32h-20V20z M216,72h80v20h-80V72z M376,452h-80c-5.51,0-10,4.49-10,10
			c0,5.52,4.49,10,10,10h80v20H136v-20h80c5.51,0,10-4.48,10-10c0-5.51-4.49-10-10-10h-80V182c0-38.598,31.402-70,70-70h100
			c38.598,0,70,31.402,70,70V452z"/>
	</g>
</g>
<g>
	<g>
		<path d="M256,452c-5.51,0-10,4.49-10,10c0,5.52,4.49,10,10,10s10-4.48,10-10C266,456.49,261.51,452,256,452z"/>
	</g>
</g>
<g>
	<g>
		<path d="M256,144c-33.084,0-60,26.916-60,60s26.916,60,60,60s60-26.916,60-60S289.084,144,256,144z M256,244
			c-22.056,0-40-17.944-40-40c0-22.056,17.944-40,40-40c22.056,0,40,17.944,40,40C296,226.056,278.056,244,256,244z"/>
	</g>
</g>
<g>
	<g>
		<path d="M256,290c-33.084,0-60,26.916-60,60s26.916,60,60,60s60-26.916,60-60S289.084,290,256,290z M256,390
			c-22.056,0-40-17.944-40-40c0-22.056,17.944-40,40-40c22.056,0,40,17.944,40,40C296,372.056,278.056,390,256,390z"/>
	</g>
</g>
<g>
</g>
<g>
</g>
<g>
</g>
<g>
</g>
<g>
</g>
<g>
</g>
<g>
</g>
<g>
</g>
<g>
</g>
<g>
</g>
<g>
</g>
<g>
</g>
<g>
</g>
<g>
</g>
<g>
</g>
</svg>
