<?xml version="1.0" encoding="iso-8859-1"?>
<!-- Generator: Adobe Illustrator 19.0.0, SVG Export Plug-In . SVG Version: 6.00 Build 0)  -->
<svg version="1.1" id="Capa_1" xmlns="http://www.w3.org/2000/svg" xmlns:xlink="http://www.w3.org/1999/xlink" x="0px" y="0px"
	 viewBox="0 0 512 512" style="enable-background:new 0 0 512 512;" xml:space="preserve">
<g>
	<g>
		<path d="M502,27.89H383.997c-2.08-0.182-4.174-0.285-6.281-0.285c-23.04,0-44.752,11.183-58.08,29.914l-8.09,11.371H260
			c-5.522,0-10,4.477-10,10v70h-47c-5.522,0-10,4.477-10,10v70h-47c-5.522,0-10,4.477-10,10v70H89c-5.522,0-10,4.477-10,10v76.828
			l-2.737,3.847C65.39,414.845,61.055,433.4,63.998,451.89H10c-5.522,0-10,4.477-10,10v40c0,5.523,4.478,10,10,10h402
			c5.522,0,10-4.477,10-10V159.238l13.738-19.308c10.816-15.202,15.157-33.645,12.304-52.041H502c5.522,0,10-4.477,10-10v-40
			C512,32.367,507.522,27.89,502,27.89z M270,88.89h27.315L270,127.279V88.89z M213,168.89h27.393L213,207.389V168.89z M156,248.89
			h27.471L156,287.499V248.89z M99,328.89h27.549L99,367.609V328.89z M20,491.89v-20h50.273c3.617,7.447,8.513,14.206,14.538,20H20z
			 M402,226.719l-71.09,100.97c-3.17,4.51-2.091,10.76,2.42,13.94c1.7,1.19,3.689,1.82,5.75,1.82c3.25,0,6.319-1.59,8.189-4.25
			L402,261.462V491.89H239.774l61.436-87.27c1.54-2.19,2.13-4.84,1.68-7.47c-0.46-2.63-1.91-4.93-4.1-6.46
			c-1.69-1.2-3.681-1.83-5.75-1.83c-3.25,0-6.311,1.59-8.181,4.25l-69.555,98.78h-31.496c3.126-3.011,5.998-6.32,8.555-9.914
			L402,187.347V226.719z M419.441,128.335L176.068,470.381c-9.584,13.469-25.201,21.509-41.778,21.509h-0.005
			c-10.659-0.001-20.904-3.273-29.628-9.463C93.499,474.51,86.1,462.731,83.819,449.26c-2.276-13.451,0.827-26.982,8.739-38.101
			L335.932,69.114c9.583-13.468,25.203-21.509,41.784-21.509c10.657,0,20.902,3.272,29.627,9.463
			C418.5,64.984,425.9,76.763,428.18,90.234C430.456,103.685,427.354,117.216,419.441,128.335z M492,67.89h-50.14
			c-3.572-7.438-8.419-14.195-14.387-20H492V67.89z"/>
	</g>
</g>
<g>
	<g>
		<path d="M321.819,357.98c-1.699-1.19-3.68-1.83-5.75-1.83c-3.25,0-6.31,1.59-8.189,4.25c-1.53,2.18-2.13,4.84-1.67,7.47
			c0.46,2.629,1.91,4.919,4.1,6.46c1.69,1.2,3.681,1.83,5.74,1.83c3.26,0,6.32-1.59,8.19-4.25
			C327.41,367.4,326.33,361.15,321.819,357.98z"/>
	</g>
</g>
<g>
	<g>
		<path d="M168.977,430.888c-1.355-8.005-5.75-15.003-12.376-19.705c-5.176-3.673-11.259-5.614-17.592-5.614
			c-9.833,0-19.102,4.775-24.791,12.773c-4.704,6.61-6.55,14.656-5.196,22.654c1.354,8.005,5.75,15.004,12.377,19.706
			c5.176,3.672,11.259,5.613,17.591,5.613c9.833,0,19.102-4.775,24.793-12.773C168.486,446.932,170.331,438.886,168.977,430.888z
			 M147.486,441.947c-1.946,2.735-5.123,4.369-8.497,4.369c-2.162,0-4.243-0.666-6.018-1.924c-2.266-1.608-3.768-3.998-4.23-6.731
			c-0.461-2.726,0.168-5.468,1.772-7.723c1.945-2.735,5.121-4.368,8.495-4.368c2.162,0,4.243,0.666,6.018,1.924
			c2.266,1.608,3.769,3.999,4.23,6.731C149.719,436.952,149.089,439.694,147.486,441.947z"/>
	</g>
</g>
<g>
	<g>
		<path d="M216.233,364.47c-1.354-8.005-5.75-15.002-12.376-19.703c-5.176-3.673-11.259-5.614-17.592-5.614
			c-9.833,0-19.101,4.775-24.792,12.773c-4.703,6.611-6.548,14.658-5.194,22.656c1.354,8.005,5.75,15.003,12.377,19.704
			c5.175,3.672,11.258,5.613,17.591,5.613c9.833,0,19.102-4.775,24.792-12.773C215.742,380.515,217.587,372.469,216.233,364.47z
			 M194.742,375.531c-1.945,2.735-5.121,4.368-8.495,4.368c-2.162,0-4.243-0.666-6.019-1.925c-2.265-1.607-3.768-3.998-4.229-6.73
			c-0.462-2.727,0.167-5.47,1.771-7.724c1.945-2.735,5.121-4.368,8.495-4.368c2.162,0,4.243,0.666,6.019,1.925
			c2.265,1.607,3.768,3.998,4.229,6.73C196.976,370.534,196.347,373.277,194.742,375.531z"/>
	</g>
</g>
<g>
	<g>
		<path d="M263.491,298.057c-1.354-8.007-5.75-15.005-12.377-19.707c-5.176-3.672-11.259-5.613-17.591-5.613
			c-9.833,0-19.101,4.775-24.793,12.773c-4.703,6.611-6.548,14.657-5.194,22.656c1.354,8.005,5.75,15.002,12.376,19.704
			c5.176,3.673,11.259,5.614,17.592,5.614c9.833,0,19.102-4.775,24.791-12.772C262.999,314.101,264.845,306.056,263.491,298.057z
			 M241.999,309.115c-1.945,2.735-5.121,4.368-8.495,4.368c-2.162,0-4.243-0.666-6.018-1.925c-2.266-1.607-3.768-3.998-4.23-6.73
			c-0.462-2.727,0.168-5.469,1.771-7.723c1.946-2.735,5.123-4.368,8.497-4.368c2.162,0,4.243,0.666,6.018,1.924
			c2.266,1.608,3.768,3.998,4.23,6.731C244.232,304.118,243.604,306.86,241.999,309.115z"/>
	</g>
</g>
<g>
	<g>
		<path d="M310.748,231.636c-1.354-8.004-5.75-15.001-12.376-19.702c-5.176-3.673-11.259-5.614-17.592-5.614
			c-9.833,0-19.102,4.775-24.791,12.772c-4.704,6.611-6.55,14.657-5.196,22.655c1.354,8.005,5.75,15.003,12.377,19.705
			c5.176,3.672,11.259,5.613,17.592,5.613c9.832,0,19.1-4.775,24.792-12.773C310.257,247.681,312.102,239.635,310.748,231.636z
			 M289.258,242.698c-1.946,2.735-5.123,4.368-8.496,4.368c-2.163,0-4.244-0.666-6.019-1.925c-2.266-1.607-3.768-3.998-4.23-6.73
			c-0.461-2.726,0.168-5.469,1.772-7.723c1.945-2.735,5.121-4.368,8.495-4.368c2.162,0,4.243,0.666,6.018,1.925
			c2.266,1.607,3.768,3.998,4.23,6.73C291.49,237.702,290.86,240.444,289.258,242.698z"/>
	</g>
</g>
<g>
	<g>
		<path d="M358.005,165.219c-1.355-8.004-5.751-15.002-12.376-19.702c-5.176-3.673-11.259-5.614-17.592-5.614
			c-9.833,0-19.102,4.775-24.791,12.772c-4.704,6.611-6.55,14.657-5.196,22.655c1.354,8.005,5.751,15.004,12.377,19.705
			c5.176,3.673,11.259,5.614,17.592,5.614c9.833,0,19.101-4.775,24.792-12.773C357.514,181.264,359.36,173.218,358.005,165.219z
			 M336.514,176.282c-1.945,2.735-5.121,4.368-8.495,4.368c-2.162,0-4.243-0.666-6.019-1.925c-2.266-1.607-3.768-3.998-4.23-6.731
			c-0.461-2.726,0.168-5.468,1.772-7.723c1.945-2.735,5.121-4.368,8.495-4.368c2.162,0,4.243,0.666,6.019,1.925
			c2.265,1.607,3.768,3.997,4.229,6.729C338.747,171.284,338.118,174.027,336.514,176.282z"/>
	</g>
</g>
<g>
	<g>
		<path d="M405.263,98.806c-1.355-8.006-5.75-15.004-12.377-19.706c-5.176-3.672-11.259-5.613-17.591-5.613
			c-9.833,0-19.102,4.775-24.793,12.773c-4.703,6.61-6.548,14.656-5.194,22.654c1.354,8.005,5.75,15.003,12.376,19.705
			c5.176,3.673,11.259,5.614,17.592,5.614c9.833,0,19.101-4.775,24.791-12.772C404.771,114.85,406.617,106.805,405.263,98.806z
			 M383.771,109.865c-1.945,2.735-5.121,4.368-8.495,4.368c-2.162,0-4.243-0.666-6.018-1.924c-2.266-1.608-3.769-3.999-4.23-6.731
			c-0.462-2.727,0.168-5.469,1.771-7.722c1.946-2.735,5.123-4.369,8.497-4.369c2.162,0,4.243,0.666,6.018,1.924
			c2.266,1.608,3.768,3.998,4.23,6.731C386.004,104.868,385.375,107.611,383.771,109.865z"/>
	</g>
</g>
<g>
	<g>
		<path d="M372,411.89h-40c-5.522,0-10,4.477-10,10v40c0,5.523,4.478,10,10,10h40c5.522,0,10-4.477,10-10v-40
			C382,416.367,377.522,411.89,372,411.89z M362,451.89h-20v-20h20V451.89z"/>
	</g>
</g>
<g>
	<g>
		<path d="M66,268.89c-5.521,0-10,4.48-10,10c0,5.52,4.479,10,10,10c5.52,0,10-4.48,10-10C76,273.37,71.52,268.89,66,268.89z"/>
	</g>
</g>
<g>
	<g>
		<path d="M106,268.89c-5.521,0-10,4.48-10,10c0,5.52,4.479,10,10,10c5.52,0,10-4.48,10-10C116,273.37,111.52,268.89,106,268.89z"/>
	</g>
</g>
<g>
	<g>
		<path d="M106,228.89c-5.521,0-10,4.48-10,10c0,5.52,4.479,10,10,10c5.52,0,10-4.48,10-10C116,233.37,111.52,228.89,106,228.89z"/>
	</g>
</g>
<g>
	<g>
		<path d="M163,188.89c-5.521,0-10,4.48-10,10c0,5.52,4.479,10,10,10c5.52,0,10-4.48,10-10C173,193.37,168.52,188.89,163,188.89z"/>
	</g>
</g>
<g>
	<g>
		<path d="M123,188.89c-5.521,0-10,4.48-10,10c0,5.52,4.479,10,10,10c5.52,0,10-4.48,10-10C133,193.37,128.52,188.89,123,188.89z"/>
	</g>
</g>
<g>
	<g>
		<path d="M163,148.89c-5.521,0-10,4.48-10,10c0,5.52,4.479,10,10,10c5.52,0,10-4.48,10-10C173,153.37,168.52,148.89,163,148.89z"/>
	</g>
</g>
<g>
	<g>
		<path d="M220,108.89c-5.521,0-10,4.48-10,10c0,5.52,4.479,10,10,10c5.52,0,10-4.48,10-10C230,113.37,225.52,108.89,220,108.89z"/>
	</g>
</g>
<g>
	<g>
		<path d="M180,108.89c-5.521,0-10,4.48-10,10c0,5.52,4.479,10,10,10c5.52,0,10-4.48,10-10C190,113.37,185.52,108.89,180,108.89z"/>
	</g>
</g>
<g>
	<g>
		<path d="M220,68.89c-5.521,0-10,4.48-10,10c0,5.52,4.479,10,10,10c5.52,0,10-4.48,10-10C230,73.37,225.52,68.89,220,68.89z"/>
	</g>
</g>
<g>
	<g>
		<path d="M295.939,31.7c-3.97-3.84-10.3-3.73-14.13,0.24c-3.84,3.98-3.729,10.31,0.24,14.14c1.941,1.879,4.451,2.81,6.951,2.81
			c2.62,0,5.229-1.02,7.189-3.05C300.03,41.86,299.919,35.53,295.939,31.7z"/>
	</g>
</g>
<g>
	<g>
		<path d="M323.729,2.919c-3.97-3.84-10.3-3.73-14.14,0.25c-3.84,3.97-3.73,10.3,0.25,14.14c1.941,1.871,4.441,2.8,6.941,2.8
			c2.619,0,5.239-1.02,7.199-3.05C327.809,13.089,327.7,6.759,323.729,2.919z"/>
	</g>
</g>
<g>
</g>
<g>
</g>
<g>
</g>
<g>
</g>
<g>
</g>
<g>
</g>
<g>
</g>
<g>
</g>
<g>
</g>
<g>
</g>
<g>
</g>
<g>
</g>
<g>
</g>
<g>
</g>
<g>
</g>
</svg>
