<?xml version="1.0" encoding="iso-8859-1"?>
<!-- Generator: Adobe Illustrator 19.0.0, SVG Export Plug-In . SVG Version: 6.00 Build 0)  -->
<svg version="1.1" id="Capa_1" xmlns="http://www.w3.org/2000/svg" xmlns:xlink="http://www.w3.org/1999/xlink" x="0px" y="0px"
	 viewBox="0 0 512 512" style="enable-background:new 0 0 512 512;" xml:space="preserve">
<g>
	<g>
		<path d="M511.995,232.008c0-0.003,0.005-0.005,0.005-0.008v-40c0-0.001-0.003-0.003-0.003-0.004
			c-0.001-2.375-0.846-4.723-2.471-6.581l-105-120c-1.847-2.11-4.496-3.349-7.299-3.412c-2.8-0.068-5.506,1.053-7.446,3.078
			l-69.507,72.53L187.11,2.968c-1.913-1.934-4.53-3.01-7.252-2.967c-2.721,0.039-5.308,1.185-7.166,3.173l-170,182
			c-1.745,1.869-2.66,4.289-2.68,6.748C0.011,191.949,0,191.973,0,192v40c0,0.019,0.007,0.041,0.008,0.06
			c0.007,1.145,0.202,2.294,0.609,3.397L65.659,412H30c-5.523,0-10,4.478-10,10v20H10c-5.523,0-10,4.478-10,10
			c0,5.522,4.477,10,10,10h10v20c0,5.522,4.477,10,10,10h31.72c4.128,11.639,15.243,20,28.28,20c7.678,0,14.688-2.902,20-7.664
			c5.312,4.761,12.322,7.664,20,7.664c13.036,0,24.152-8.361,28.28-20h195.44c4.128,11.639,15.243,20,28.28,20
			c7.678,0,14.688-2.902,20-7.664c5.312,4.761,12.322,7.664,20,7.664c13.036,0,24.152-8.361,28.28-20H482c5.523,0,10-4.478,10-10
			v-20h10c5.523,0,10-4.478,10-10c0-5.522-4.477-10-10-10h-10v-20c0-5.522-4.477-10-10-10h-35.659l65.042-176.543
			C511.796,234.337,511.994,233.17,511.995,232.008z M396.665,86.803L479.963,182H364.175l-29.833-30.165L396.665,86.803z
			 M180.206,24.429L336.046,182h-81.397l-52.027-56.757c-1.894-2.066-4.568-3.243-7.372-3.243s-5.478,1.177-7.372,3.243L135.851,182
			H33.025L180.206,24.429z M227.518,182h-64.535l32.268-35.201L227.518,182z M24.341,242H70v70c0,5.522,4.477,10,10,10
			s10-4.478,10-10v-70h36v170H86.973L24.341,242z M90,492c-5.514,0-10-4.486-10-10c0-5.514,4.486-10,10-10s10,4.486,10,10
			C100,487.514,95.514,492,90,492z M130,492c-5.514,0-10-4.486-10-10c0-5.514,4.486-10,10-10c5.514,0,10,4.486,10,10
			C140,487.514,135.514,492,130,492z M382,492c-5.514,0-10-4.486-10-10c0-5.514,4.486-10,10-10c5.514,0,10,4.486,10,10
			C392,487.514,387.514,492,382,492z M422,492c-5.514,0-10-4.486-10-10c0-5.514,4.486-10,10-10c5.514,0,10,4.486,10,10
			C432,487.514,427.514,492,422,492z M472,432v40h-21.72c-4.128-11.639-15.243-20-28.28-20c-7.678,0-14.688,2.902-20,7.664
			c-5.312-4.761-12.322-7.664-20-7.664c-13.036,0-24.152,8.361-28.28,20H158.28c-4.128-11.639-15.243-20-28.28-20
			c-7.678,0-14.688,2.902-20,7.664C104.688,454.903,97.678,452,90,452c-13.036,0-24.152,8.361-28.28,20H40v-40H472z M192,358
			c5.523,0,10-4.478,10-10V242h44v63c0,5.522,4.477,10,10,10c5.523,0,10-4.478,10-10v-63h44v106c0,5.522,4.477,10,10,10
			s10-4.478,10-10V242h36v170h-25.969l-77.096-74.205c-3.872-3.727-9.997-3.727-13.869,0L171.969,412H146V242h36v106
			C182,353.523,186.477,358,192,358z M311.19,412H200.81L256,358.88L311.19,412z M425.027,412H386V242h36v70c0,5.522,4.477,10,10,10
			s10-4.478,10-10v-70h45.659L425.027,412z M492,222H20v-20h472V222z"/>
	</g>
</g>
<g>
	<g>
		<path d="M204.571,78.47c0,0-12.986-15.054-13-15.07c-3.827-4.437-10.867-4.561-14.87-0.31l-47.94,51.14
			c-3.77,4.03-3.57,10.369,0.459,14.14c3.891,3.642,10.503,3.418,14.13-0.46l40.34-43.03c0,0,5.728,6.637,5.74,6.65
			c3.508,4.065,10.049,4.553,14.1,1.04C207.622,89.02,208.115,82.562,204.571,78.47z"/>
	</g>
</g>
<g>
	<g>
		<circle cx="107" cy="152" r="10"/>
	</g>
</g>
<g>
</g>
<g>
</g>
<g>
</g>
<g>
</g>
<g>
</g>
<g>
</g>
<g>
</g>
<g>
</g>
<g>
</g>
<g>
</g>
<g>
</g>
<g>
</g>
<g>
</g>
<g>
</g>
<g>
</g>
</svg>
