<?xml version="1.0" encoding="iso-8859-1"?>
<!-- Generator: Adobe Illustrator 19.0.0, SVG Export Plug-In . SVG Version: 6.00 Build 0)  -->
<svg version="1.1" id="Capa_1" xmlns="http://www.w3.org/2000/svg" xmlns:xlink="http://www.w3.org/1999/xlink" x="0px" y="0px"
	 viewBox="0 0 512 512" style="enable-background:new 0 0 512 512;" xml:space="preserve">
<g>
	<g>
		<circle cx="245" cy="130" r="10"/>
	</g>
</g>
<g>
	<g>
		<circle cx="296" cy="195" r="10"/>
	</g>
</g>
<g>
	<g>
		<circle cx="211" cy="280" r="10"/>
	</g>
</g>
<g>
	<g>
		<path d="M458.784,32.716c-15.265-15.267-41.354-15.213-56.568,0c-6.959,6.96-11.029,16.033-11.629,25.771l-77.466,77.466
			l-7.071-7.071c-1.305-1.305-2.884-2.163-4.55-2.596V112c0-27.57-22.43-50-50-50h-110V10c0-5.522-4.477-10-10-10h-80
			c-5.523,0-10,4.478-10,10v492c0,5.522,4.477,10,10,10h80c5.523,0,10-4.478,10-10v-70h20v70c0,5.522,4.477,10,10,10h80
			c5.522,0,10-4.478,10-10v-71.006c22.795-4.646,40-24.847,40-48.994V260.711l61.118-61.118c3.905-3.905,3.905-10.237,0-14.143
			l-7.071-7.071l77.466-77.466c9.738-0.6,18.811-4.67,25.771-11.629C466.339,81.729,470.5,71.685,470.5,61
			S466.339,40.271,458.784,32.716z M121.5,492h-60V20h60V492z M201.5,492h-20v-60h20V492z M241.5,492h-20v-60h20V492z M281.5,382
			c0,16.542-13.458,30-30,30h-110V82h110c16.542,0,30,13.458,30,30v27.289l-22.633,22.633c-1.817-1.855-4.344-3.012-7.137-3.012
			c-5.52,0-10,4.489-10,10v10.149l-65.789,65.789c-19.495,19.495-19.495,51.216,0,70.711c9.748,9.747,22.552,14.621,35.355,14.621
			c10.75,0,21.492-3.45,30.433-10.32v5.23c0,5.51,4.48,9.99,10,9.99c5.51,0,10-4.48,10-9.99v-24.608l19.771-19.771V382z
			 M232.51,301.416c-11.696,11.697-30.729,11.697-42.426,0c-11.697-11.696-11.697-30.729,0-42.426l108.895-108.895l7.061,7.061
			c0.003,0.003,0.006,0.007,0.009,0.01l28.284,28.284c0.003,0.003,0.007,0.006,0.01,0.009l7.061,7.061L232.51,301.416z
			 M341.405,164.237l-14.142-14.142l68.772-68.772c1.698,2.867,3.763,5.543,6.181,7.961c2.418,2.418,5.093,4.483,7.961,6.181
			L341.405,164.237z M444.642,75.142c-7.797,7.799-20.486,7.799-28.283,0c-7.798-7.798-7.798-20.485,0-28.283
			c7.594-7.594,20.59-7.695,28.283,0C452.439,54.656,452.439,67.344,444.642,75.142z"/>
	</g>
</g>
<g>
	<g>
		<path d="M274.941,216.561c-1.914-1.919-4.499-2.872-7.082-2.869c-2.583,0.003-5.164,0.962-7.069,2.868
			c0,0-28.214,28.224-28.28,28.29c-3.834,3.835-3.82,10.319-0.001,14.14c3.846,3.848,10.304,3.837,14.141,0.001l28.29-28.29
			C278.83,226.801,278.831,220.461,274.941,216.561z"/>
	</g>
</g>
<g>
	<g>
		<path d="M211.5,372h-40c-5.51,0-10,4.49-10,10s4.49,10,10,10h40c5.51,0,10-4.49,10-10S217.01,372,211.5,372z"/>
	</g>
</g>
<g>
	<g>
		<path d="M211.5,102h-40c-5.51,0-10,4.49-10,10s4.49,10,10,10h40c5.51,0,10-4.49,10-10S217.01,102,211.5,102z"/>
	</g>
</g>
<g>
	<g>
		<circle cx="245" cy="364" r="10"/>
	</g>
</g>
<g>
</g>
<g>
</g>
<g>
</g>
<g>
</g>
<g>
</g>
<g>
</g>
<g>
</g>
<g>
</g>
<g>
</g>
<g>
</g>
<g>
</g>
<g>
</g>
<g>
</g>
<g>
</g>
<g>
</g>
</svg>
