<?xml version="1.0" encoding="iso-8859-1"?>
<!-- Generator: Adobe Illustrator 19.0.0, SVG Export Plug-In . SVG Version: 6.00 Build 0)  -->
<svg version="1.1" id="Capa_1" xmlns="http://www.w3.org/2000/svg" xmlns:xlink="http://www.w3.org/1999/xlink" x="0px" y="0px"
	 viewBox="0 0 512 512" style="enable-background:new 0 0 512 512;" xml:space="preserve">
<g>
	<g>
		<circle cx="316" cy="87" r="10"/>
	</g>
</g>
<g>
	<g>
		<circle cx="196" cy="87" r="10"/>
	</g>
</g>
<g>
	<g>
		<path d="M380.977,184.936c-0.013-2.005-0.606-3.998-1.804-5.698L343.545,128.7C357.063,119.741,366,104.398,366,87V10
			c0-5.522-4.478-10-10-10c-5.522,0-10,4.478-10,10v37.027C337.637,40.735,327.247,37,316,37s-21.637,3.735-30,10.027V10
			c0-5.522-4.478-10-10-10c-5.522,0-10,4.478-10,10v77c0,11.248,3.735,21.637,10.027,30h-40.054C242.265,108.637,246,98.248,246,87
			V10c0-5.522-4.478-10-10-10c-5.522,0-10,4.478-10,10v37.027C217.637,40.735,207.247,37,196,37s-21.637,3.735-30,10.027V10
			c0-5.522-4.478-10-10-10c-5.522,0-10,4.478-10,10v77c0,17.398,8.937,32.741,22.455,41.7l-35.628,50.538
			c-1.198,1.7-1.791,3.693-1.804,5.698C131.015,184.957,131,184.979,131,185v40c0,1.957,0.574,3.871,1.652,5.506l40.889,62
			c1.851,2.806,4.986,4.494,8.348,4.494H226v49.286c0,16.542,13.458,30,30,30c20.875,0,37.857,16.982,37.857,37.856
			C293.857,435.018,276.875,452,256,452s-37.857-16.982-37.857-37.857c0-16.542-13.458-30-30-30s-30,13.458-30,30
			C158.143,468.102,202.041,512,256,512s97.857-43.898,97.857-97.857c0-22.186-7.66-43.932-21.57-61.23
			c-12.004-14.929-28.228-26.068-46.287-31.918V297h44.111c3.361,0,6.497-1.688,8.348-4.494l40.889-62
			c1.078-1.635,1.652-3.549,1.652-5.506v-40C381,184.979,380.985,184.957,380.977,184.936z M316,57c16.542,0,30,13.458,30,30
			s-13.458,30-30,30s-30-13.458-30-30S299.458,57,316,57z M166,87c0-16.542,13.458-30,30-30s30,13.458,30,30s-13.458,30-30,30
			S166,103.542,166,87z M187.074,137h137.852l26.789,38h-191.43L187.074,137z M333.857,414.143c0,42.93-34.926,77.857-77.857,77.857
			c-42.931,0-77.857-34.927-77.857-77.857c0-5.514,4.486-10,10-10c5.514,0,10,4.486,10,10C198.143,446.045,224.098,472,256,472
			s57.857-25.955,57.857-57.857c0-31.902-25.955-57.857-57.857-57.857c-5.514,0-10-4.486-10-10V297h20v31.582
			c0,4.646,3.2,8.681,7.725,9.737C309.13,346.594,333.857,377.773,333.857,414.143z M361,215h-64c-5.521,0-10,4.49-10,10
			s4.479,10,10,10h55.426l-27.698,42H187.272l-27.698-42H217c5.51,0,10-4.49,10-10s-4.49-10-10-10h-66v-20h210V215z"/>
	</g>
</g>
<g>
	<g>
		<path d="M257,215c-5.51,0-10,4.49-10,10s4.49,10,10,10s10-4.49,10-10S262.51,215,257,215z"/>
	</g>
</g>
<g>
</g>
<g>
</g>
<g>
</g>
<g>
</g>
<g>
</g>
<g>
</g>
<g>
</g>
<g>
</g>
<g>
</g>
<g>
</g>
<g>
</g>
<g>
</g>
<g>
</g>
<g>
</g>
<g>
</g>
</svg>
