<?xml version="1.0" encoding="iso-8859-1"?>
<!-- Generator: Adobe Illustrator 19.0.0, SVG Export Plug-In . SVG Version: 6.00 Build 0)  -->
<svg version="1.1" id="Capa_1" xmlns="http://www.w3.org/2000/svg" xmlns:xlink="http://www.w3.org/1999/xlink" x="0px" y="0px"
	 viewBox="0 0 512 512" style="enable-background:new 0 0 512 512;" xml:space="preserve">
<g>
	<g>
		<circle cx="325" cy="298" r="10"/>
	</g>
</g>
<g>
	<g>
		<circle cx="100" cy="328" r="10"/>
	</g>
</g>
<g>
	<g>
		<path d="M326.33,255.6c-4.75-11.8-11.29-22.79-19.45-32.679c-3.384-4.101-9.985-4.724-14.081-1.361
			c-4.224,3.468-4.805,9.885-1.35,14.09c6.851,8.3,12.351,17.529,16.331,27.41c2.038,5.058,7.956,7.573,13.01,5.55
			C325.899,266.55,328.38,260.72,326.33,255.6z"/>
	</g>
</g>
<g>
	<g>
		<path d="M145.99,207.47c-1.909-2.318-4.813-3.525-7.72-3.539c-2.271-0.011-4.544,0.706-6.35,2.189
			c-12.53,10.33-22.75,22.76-30.39,36.96c-7.381,13.72-12.061,28.54-13.921,44.04c-0.659,5.47,3.25,10.46,8.73,11.12
			c5.335,0.643,10.469-3.283,11.12-8.73c3.229-26.71,16.43-50.84,37.18-67.96C148.899,218.04,149.499,211.73,145.99,207.47z"/>
	</g>
</g>
<g>
	<g>
		<path d="M502,167.5h-10V10c0-5.522-4.478-10-10-10H191c-5.522,0-10,4.478-10,10v70h-30c-5.522,0-10,4.478-10,10v57.089
			C82.081,173.818,41,233.201,41,302c0,20.742,3.74,40.626,10.572,59.02L31.421,492H10c-5.522,0-10,4.478-10,10
			c0,5.522,4.478,10,10,10h29.987c0.009,0,0.04,0,0.04,0H70c5.522,0,10-4.478,10-10c0-5.522-4.478-10-10-10H51.656l15.345-99.747
			c28.44,45.213,77.564,76.154,133.998,79.445V492h-20c-5.522,0-10,4.478-10,10c0,5.522,4.478,10,10,10h60c5.522,0,10-4.478,10-10
			c0-5.522-4.478-10-10-10h-20v-20.302c55-3.207,103.058-32.677,131.791-76.027L360.2,492H341c-5.522,0-10,4.478-10,10
			c0,5.522,4.478,10,10,10h60c5.522,0,10-4.478,10-10c0-5.522-4.478-10-10-10h-20.74l-10.035-130.449
			C377.184,343.009,381,322.943,381,302c0-68.799-41.081-128.182-100-154.911V90c0-5.522-4.478-10-10-10h-30V60h191v107.5h-10
			c-5.522,0-10,4.478-10,10v130c0,5.522,4.478,10,10,10h10V502c0,5.522,4.478,10,10,10h40c5.522,0,10-4.478,10-10V317.5h10
			c5.522,0,10-4.478,10-10v-130C512,171.978,507.522,167.5,502,167.5z M201,100h20v32.302c-3.31-0.193-6.642-0.302-10-0.302
			c-3.358,0-6.69,0.109-10,0.302V100z M161,100h20v34.651c-6.815,1.219-13.49,2.849-20,4.856V100z M201,451.659
			c-54.388-3.598-100.939-36.31-124.177-82.659h29.582c0.183,0.374,0.381,0.743,0.615,1.109c2.48,3.771,5.2,7.46,8.101,10.971
			c10.649,12.92,23.519,23.37,38.25,31.069c4.701,2.457,10.973,0.586,13.49-4.229c2.561-4.89,0.66-10.94-4.22-13.49
			c-12.1-6.33-22.701-14.89-31.535-25.43H201V451.659z M221,451.659V369h69.912c-4.077,4.856-8.604,9.363-13.552,13.45
			c-5.319,4.38-11.059,8.239-17.059,11.469c-4.683,2.521-6.583,8.88-4.072,13.55c2.5,4.65,8.897,6.566,13.541,4.071
			c7.17-3.86,14-8.46,20.311-13.66c10.069-8.301,18.686-18.052,25.621-28.88h29.477C321.939,415.349,275.388,448.061,221,451.659z
			 M361,302c0,16.41-2.658,32.209-7.55,47h-27.367c1.099-2.697,2.106-5.438,3.017-8.22c1.71-5.24-1.16-10.9-6.399-12.62
			c-5.071-1.665-10.906,1.186-12.611,6.389c-1.634,4.984-3.645,9.808-5.989,14.45H68.55C63.658,334.209,61,318.41,61,302
			c0-82.71,67.29-150,150-150S361,219.29,361,302z M261,100v39.508c-6.51-2.008-13.185-3.638-20-4.856V100H261z M231,40
			c-5.522,0-10,4.478-10,10v30h-20V20h271v147.5h-20V50c0-5.522-4.478-10-10-10H231z M472,492h-20V317.5h20V492z M492,297.5h-60
			v-110h60V297.5z"/>
	</g>
</g>
<g>
</g>
<g>
</g>
<g>
</g>
<g>
</g>
<g>
</g>
<g>
</g>
<g>
</g>
<g>
</g>
<g>
</g>
<g>
</g>
<g>
</g>
<g>
</g>
<g>
</g>
<g>
</g>
<g>
</g>
</svg>
