<?xml version="1.0" encoding="iso-8859-1"?>
<!-- Generator: Adobe Illustrator 19.0.0, SVG Export Plug-In . SVG Version: 6.00 Build 0)  -->
<svg version="1.1" id="Capa_1" xmlns="http://www.w3.org/2000/svg" xmlns:xlink="http://www.w3.org/1999/xlink" x="0px" y="0px"
	 viewBox="0 0 512 512" style="enable-background:new 0 0 512 512;" xml:space="preserve">
<g>
	<g>
		<path d="M476,160h-30V90c0-5.522-4.478-10-10-10h-70V50c0-5.522-4.478-10-10-10h-60V10c0-5.522-4.478-10-10-10h-60
			c-5.523,0-10,4.478-10,10v30h-60c-5.523,0-10,4.478-10,10v30H76c-5.523,0-10,4.478-10,10v70H36c-5.523,0-10,4.478-10,10v60
			c0,5.522,4.477,10,10,10h30v82c0,104.767,85.233,190,190,190s190-85.233,190-190v-82h30c5.522,0,10-4.478,10-10v-60
			C486,164.478,481.522,160,476,160z M66,220H46v-40h20V220z M236,20h40v20h-40V20z M166,60h180v20H166V60z M426,322
			c0,93.738-76.262,170-170,170S86,415.738,86,322V100h340V322z M466,220h-20v-40h20V220z"/>
	</g>
</g>
<g>
	<g>
		<path d="M396,160H116c-5.523,0-10,4.478-10,10v120c0,5.522,4.477,10,10,10h280c5.522,0,10-4.478,10-10V170
			C406,164.478,401.522,160,396,160z M386,280h-93.857l44.929-44.929c3.905-3.905,3.905-10.237,0-14.143
			c-3.906-3.904-10.236-3.904-14.143,0L263.857,280h-83.715l44.929-44.929c3.905-3.905,3.905-10.237,0-14.143
			c-3.905-3.904-10.237-3.904-14.143,0L151.857,280H126V180h179.857l-44.929,44.929c-3.905,3.905-3.905,10.237,0,14.143
			C262.882,241.023,265.44,242,268,242s5.118-0.977,7.071-2.929L334.143,180H386V280z"/>
	</g>
</g>
<g>
	<g>
		<path d="M196,120h-80c-5.523,0-10,4.478-10,10c0,5.522,4.477,10,10,10h80c5.523,0,10-4.478,10-10C206,124.478,201.523,120,196,120
			z"/>
	</g>
</g>
<g>
	<g>
		<path d="M396,120h-80c-5.522,0-10,4.478-10,10c0,5.522,4.478,10,10,10h80c5.522,0,10-4.478,10-10C406,124.478,401.522,120,396,120
			z"/>
	</g>
</g>
<g>
	<g>
		<path d="M116,320c-5.52,0-10,4.479-10,10c0,5.52,4.48,10,10,10s10-4.48,10-10C126,324.479,121.52,320,116,320z"/>
	</g>
</g>
<g>
	<g>
		<path d="M156,320c-5.52,0-10,4.479-10,10c0,5.52,4.48,10,10,10s10-4.48,10-10C166,324.479,161.52,320,156,320z"/>
	</g>
</g>
<g>
	<g>
		<path d="M276,320c-5.521,0-10,4.479-10,10c0,5.52,4.479,10,10,10c5.52,0,10-4.48,10-10C286,324.479,281.52,320,276,320z"/>
	</g>
</g>
<g>
	<g>
		<path d="M356,320c-5.521,0-10,4.479-10,10c0,5.52,4.479,10,10,10c5.52,0,10-4.48,10-10C366,324.479,361.52,320,356,320z"/>
	</g>
</g>
<g>
	<g>
		<path d="M196,320c-5.52,0-10,4.479-10,10c0,5.52,4.48,10,10,10s10-4.48,10-10C206,324.479,201.52,320,196,320z"/>
	</g>
</g>
<g>
	<g>
		<path d="M396,320c-5.521,0-10,4.479-10,10c0,5.52,4.479,10,10,10c5.52,0,10-4.48,10-10C406,324.479,401.52,320,396,320z"/>
	</g>
</g>
<g>
	<g>
		<path d="M236,320c-5.52,0-10,4.479-10,10c0,5.52,4.48,10,10,10s10-4.48,10-10C246,324.479,241.52,320,236,320z"/>
	</g>
</g>
<g>
	<g>
		<path d="M316,320c-5.521,0-10,4.479-10,10c0,5.52,4.479,10,10,10c5.52,0,10-4.48,10-10C326,324.479,321.52,320,316,320z"/>
	</g>
</g>
<g>
</g>
<g>
</g>
<g>
</g>
<g>
</g>
<g>
</g>
<g>
</g>
<g>
</g>
<g>
</g>
<g>
</g>
<g>
</g>
<g>
</g>
<g>
</g>
<g>
</g>
<g>
</g>
<g>
</g>
</svg>
