<?xml version="1.0" encoding="iso-8859-1"?>
<!-- Generator: Adobe Illustrator 19.0.0, SVG Export Plug-In . SVG Version: 6.00 Build 0)  -->
<svg version="1.1" id="Capa_1" xmlns="http://www.w3.org/2000/svg" xmlns:xlink="http://www.w3.org/1999/xlink" x="0px" y="0px"
	 viewBox="0 0 512 512" style="enable-background:new 0 0 512 512;" xml:space="preserve">
<g>
	<g>
		<path d="M502,0H10C4.478,0,0,4.478,0,10v492c0,5.522,4.478,10,10,10h492c5.522,0,10-4.478,10-10V10C512,4.478,507.522,0,502,0z
			 M196,20h120v51.018l-7.678-5.265c-3.56-2.442-8.284-2.323-11.716,0.293l-15.508,11.815L261.29,65.514
			c-3.37-2.102-7.667-2.008-10.945,0.239l-17.678,12.122l-17.679-12.122c-1.704-1.169-3.68-1.753-5.655-1.753
			c-1.975,0-3.951,0.584-5.655,1.753L196,71.018V20z M492,452H312V282h180V452z M492,262H302c-5.522,0-10,4.478-10,10v190
			c0,5.522,4.478,10,10,10h190v20H20V20h156c0,0,0,69.917,0,70c0,7.861,9.176,12.689,15.655,8.247l17.678-12.122l17.679,12.122
			c3.408,2.338,7.902,2.338,11.311,0l17.938-12.301l20.116,12.54c3.525,2.198,8.044,1.986,11.351-0.532l15.248-11.617
			c0,0,17.356,11.901,17.369,11.91C326.765,102.649,336,97.919,336,90V20h156V262z"/>
	</g>
</g>
<g>
	<g>
		<path d="M462,412c-5.51,0-10,4.479-10,10c0,5.51,4.49,10,10,10s10-4.49,10-10C472,416.479,467.51,412,462,412z"/>
	</g>
</g>
<g>
	<g>
		<path d="M462,302c-5.51,0-10,4.49-10,10v70c0,5.51,4.49,10,10,10s10-4.49,10-10v-70C472,306.49,467.51,302,462,302z"/>
	</g>
</g>
<g>
	<g>
		<path d="M422,302c-5.522,0-10,4.478-10,10v110c0,5.522,4.478,10,10,10c5.522,0,10-4.478,10-10V312
			C432,306.478,427.522,302,422,302z"/>
	</g>
</g>
<g>
	<g>
		<path d="M382,342c-5.51,0-10,4.49-10,10v70c0,5.51,4.49,10,10,10s10-4.49,10-10v-70C392,346.49,387.51,342,382,342z"/>
	</g>
</g>
<g>
	<g>
		<path d="M382,302c-5.51,0-10,4.49-10,10s4.49,10,10,10s10-4.49,10-10S387.51,302,382,302z"/>
	</g>
</g>
<g>
	<g>
		<path d="M342,302c-5.522,0-10,4.478-10,10v110c0,5.522,4.478,10,10,10c5.522,0,10-4.478,10-10V312
			C352,306.478,347.522,302,342,302z"/>
	</g>
</g>
<g>
	<g>
		<path d="M172,319v-47c0-5.522-4.478-10-10-10H62c-5.522,0-10,4.478-10,10v47c0,21.592,11.582,41.328,30,51.963V412H62
			c-5.522,0-10,4.478-10,10v40c0,5.522,4.478,10,10,10h100c5.522,0,10-4.478,10-10v-40c0-5.522-4.478-10-10-10h-20v-41.037
			C160.418,360.328,172,340.592,172,319z M132,432h20v20H72v-20h20c5.522,0,10-4.478,10-10v-57.172c0-3.975-2.354-7.571-5.995-9.163
			C81.423,349.292,72,334.899,72,319v-37h80v37c0,15.899-9.423,30.292-24.005,36.665c-3.642,1.592-5.995,5.188-5.995,9.163V422
			C122,427.522,126.478,432,132,432z"/>
	</g>
</g>
<g>
</g>
<g>
</g>
<g>
</g>
<g>
</g>
<g>
</g>
<g>
</g>
<g>
</g>
<g>
</g>
<g>
</g>
<g>
</g>
<g>
</g>
<g>
</g>
<g>
</g>
<g>
</g>
<g>
</g>
</svg>
