<?xml version="1.0" encoding="iso-8859-1"?>
<!-- Generator: Adobe Illustrator 19.0.0, SVG Export Plug-In . SVG Version: 6.00 Build 0)  -->
<svg version="1.1" id="Capa_1" xmlns="http://www.w3.org/2000/svg" xmlns:xlink="http://www.w3.org/1999/xlink" x="0px" y="0px"
	 viewBox="0 0 512 512" style="enable-background:new 0 0 512 512;" xml:space="preserve">
<g>
	<g>
		<path d="M502,0H10C4.477,0,0,4.478,0,10v452c0,5.522,4.477,10,10,10h6v30c0,5.522,4.477,10,10,10h80c5.523,0,10-4.478,10-10v-30
			h280v30c0,5.522,4.477,10,10,10h80c5.523,0,10-4.478,10-10v-30h6c5.523,0,10-4.478,10-10V10C512,4.478,507.523,0,502,0z M96,492
			H36v-20h60V492z M160,452h-54H26h-6V312h140V452z M160,292H20V192h140V292z M160,172H20V20h140V172z M332,452H180V312h152V452z
			 M332,292H180V192h152V292z M332,172H180V20h152V172z M476,492h-60v-20h60V492z M492,452h-6h-80h-54V312h140V452z M492,292H352
			V192h140V292z M492,172H352V20h140V172z"/>
	</g>
</g>
<g>
	<g>
		<path d="M70,40c-16.542,0-30,13.458-30,30s13.458,30,30,30s30-13.458,30-30S86.542,40,70,40z M70,80c-5.514,0-10-4.486-10-10
			s4.486-10,10-10s10,4.486,10,10S75.514,80,70,80z"/>
	</g>
</g>
<g>
	<g>
		<path d="M230,40c-16.542,0-30,13.458-30,30s13.458,30,30,30s30-13.458,30-30S246.542,40,230,40z M230,80c-5.514,0-10-4.486-10-10
			s4.486-10,10-10c5.514,0,10,4.486,10,10S235.514,80,230,80z"/>
	</g>
</g>
<g>
	<g>
		<path d="M402,40c-16.542,0-30,13.458-30,30s13.458,30,30,30s30-13.458,30-30S418.542,40,402,40z M402,80c-5.514,0-10-4.486-10-10
			s4.486-10,10-10c5.514,0,10,4.486,10,10S407.514,80,402,80z"/>
	</g>
</g>
<g>
	<g>
		<path d="M50,412c-5.52,0-10,4.479-10,10c0,5.52,4.48,10,10,10s10-4.48,10-10C60,416.479,55.52,412,50,412z"/>
	</g>
</g>
<g>
	<g>
		<path d="M90,412c-5.52,0-10,4.479-10,10c0,5.52,4.48,10,10,10s10-4.48,10-10C100,416.479,95.52,412,90,412z"/>
	</g>
</g>
<g>
	<g>
		<path d="M130,412c-5.52,0-10,4.479-10,10c0,5.52,4.48,10,10,10s10-4.48,10-10C140,416.479,135.52,412,130,412z"/>
	</g>
</g>
<g>
	<g>
		<path d="M130,372H50c-5.523,0-10,4.478-10,10c0,5.522,4.477,10,10,10h80c5.523,0,10-4.478,10-10C140,376.478,135.523,372,130,372z
			"/>
	</g>
</g>
<g>
	<g>
		<path d="M90,332H50c-5.51,0-10,4.479-10,10c0,5.51,4.49,10,10,10h40c5.51,0,10-4.49,10-10C100,336.479,95.51,332,90,332z"/>
	</g>
</g>
<g>
	<g>
		<path d="M130,332c-5.51,0-10,4.479-10,10c0,5.51,4.49,10,10,10s10-4.49,10-10C140,336.479,135.51,332,130,332z"/>
	</g>
</g>
<g>
	<g>
		<path d="M302,412h-92c-5.523,0-10,4.478-10,10c0,5.522,4.477,10,10,10h92c5.523,0,10-4.478,10-10C312,416.478,307.523,412,302,412
			z"/>
	</g>
</g>
<g>
	<g>
		<path d="M230,372h-20c-5.523,0-10,4.478-10,10c0,5.522,4.477,10,10,10h20c5.523,0,10-4.478,10-10C240,376.478,235.523,372,230,372
			z"/>
	</g>
</g>
<g>
	<g>
		<path d="M302,372h-20c-5.523,0-10,4.478-10,10c0,5.522,4.477,10,10,10h20c5.523,0,10-4.478,10-10C312,376.478,307.523,372,302,372
			z"/>
	</g>
</g>
<g>
	<g>
		<path d="M302,332h-92c-5.523,0-10,4.478-10,10c0,5.522,4.477,10,10,10h92c5.523,0,10-4.478,10-10C312,336.478,307.523,332,302,332
			z"/>
	</g>
</g>
<g>
	<g>
		<path d="M462,412c-5.52,0-10,4.479-10,10c0,5.52,4.48,10,10,10c5.52,0,10-4.48,10-10C472,416.479,467.52,412,462,412z"/>
	</g>
</g>
<g>
	<g>
		<path d="M382,412c-5.52,0-10,4.479-10,10c0,5.52,4.48,10,10,10c5.52,0,10-4.48,10-10C392,416.479,387.52,412,382,412z"/>
	</g>
</g>
<g>
	<g>
		<path d="M422,412c-5.52,0-10,4.479-10,10c0,5.52,4.48,10,10,10c5.52,0,10-4.48,10-10C432,416.479,427.52,412,422,412z"/>
	</g>
</g>
<g>
	<g>
		<path d="M462,372h-80c-5.523,0-10,4.478-10,10c0,5.522,4.477,10,10,10h80c5.523,0,10-4.478,10-10C472,376.478,467.523,372,462,372
			z"/>
	</g>
</g>
<g>
	<g>
		<path d="M462,332h-40c-5.51,0-10,4.479-10,10c0,5.51,4.49,10,10,10h40c5.51,0,10-4.49,10-10C472,336.479,467.51,332,462,332z"/>
	</g>
</g>
<g>
	<g>
		<path d="M382,332c-5.51,0-10,4.479-10,10c0,5.51,4.49,10,10,10s10-4.49,10-10C392,336.479,387.51,332,382,332z"/>
	</g>
</g>
<g>
	<g>
		<path d="M130,252c-5.52,0-10,4.479-10,10c0,5.52,4.48,10,10,10s10-4.48,10-10C140,256.479,135.52,252,130,252z"/>
	</g>
</g>
<g>
	<g>
		<path d="M50,252c-5.52,0-10,4.479-10,10c0,5.52,4.48,10,10,10s10-4.48,10-10C60,256.479,55.52,252,50,252z"/>
	</g>
</g>
<g>
	<g>
		<path d="M90,252c-5.52,0-10,4.479-10,10c0,5.52,4.48,10,10,10s10-4.48,10-10C100,256.479,95.52,252,90,252z"/>
	</g>
</g>
<g>
	<g>
		<path d="M130,212H50c-5.523,0-10,4.478-10,10c0,5.522,4.477,10,10,10h80c5.523,0,10-4.478,10-10C140,216.478,135.523,212,130,212z
			"/>
	</g>
</g>
<g>
	<g>
		<path d="M282,252h-52c-5.523,0-10,4.478-10,10c0,5.522,4.477,10,10,10h52c5.523,0,10-4.478,10-10C292,256.478,287.523,252,282,252
			z"/>
	</g>
</g>
<g>
	<g>
		<path d="M302,212h-92c-5.523,0-10,4.478-10,10c0,5.522,4.477,10,10,10h92c5.523,0,10-4.478,10-10C312,216.478,307.523,212,302,212
			z"/>
	</g>
</g>
<g>
	<g>
		<path d="M462,252c-5.52,0-10,4.479-10,10c0,5.52,4.48,10,10,10c5.52,0,10-4.48,10-10C472,256.479,467.52,252,462,252z"/>
	</g>
</g>
<g>
	<g>
		<path d="M382,252c-5.52,0-10,4.479-10,10c0,5.52,4.48,10,10,10c5.52,0,10-4.48,10-10C392,256.479,387.52,252,382,252z"/>
	</g>
</g>
<g>
	<g>
		<path d="M422,252c-5.52,0-10,4.479-10,10c0,5.52,4.48,10,10,10c5.52,0,10-4.48,10-10C432,256.479,427.52,252,422,252z"/>
	</g>
</g>
<g>
	<g>
		<path d="M462,212h-80c-5.523,0-10,4.478-10,10c0,5.522,4.477,10,10,10h80c5.523,0,10-4.478,10-10C472,216.478,467.523,212,462,212
			z"/>
	</g>
</g>
<g>
	<g>
		<path d="M130,132H50c-5.523,0-10,4.478-10,10c0,5.522,4.477,10,10,10h80c5.523,0,10-4.478,10-10C140,136.478,135.523,132,130,132z
			"/>
	</g>
</g>
<g>
	<g>
		<path d="M302,132h-92c-5.523,0-10,4.478-10,10c0,5.522,4.477,10,10,10h92c5.523,0,10-4.478,10-10C312,136.478,307.523,132,302,132
			z"/>
	</g>
</g>
<g>
	<g>
		<path d="M462,132h-80c-5.523,0-10,4.478-10,10c0,5.522,4.477,10,10,10h80c5.523,0,10-4.478,10-10C472,136.478,467.523,132,462,132
			z"/>
	</g>
</g>
<g>
	<g>
		<path d="M135,40c-5.52,0-10,4.479-10,10c0,5.52,4.48,10,10,10s10-4.48,10-10C145,44.479,140.52,40,135,40z"/>
	</g>
</g>
<g>
	<g>
		<path d="M135,80c-5.52,0-10,4.479-10,10c0,5.52,4.48,10,10,10s10-4.48,10-10C145,84.479,140.52,80,135,80z"/>
	</g>
</g>
<g>
	<g>
		<path d="M302,80c-5.52,0-10,4.479-10,10c0,5.52,4.48,10,10,10c5.52,0,10-4.48,10-10C312,84.479,307.52,80,302,80z"/>
	</g>
</g>
<g>
	<g>
		<path d="M302,40c-5.52,0-10,4.479-10,10c0,5.52,4.48,10,10,10c5.52,0,10-4.48,10-10C312,44.479,307.52,40,302,40z"/>
	</g>
</g>
<g>
	<g>
		<path d="M462,80c-5.52,0-10,4.479-10,10c0,5.52,4.48,10,10,10c5.52,0,10-4.48,10-10C472,84.479,467.52,80,462,80z"/>
	</g>
</g>
<g>
	<g>
		<path d="M462,40c-5.52,0-10,4.479-10,10c0,5.52,4.48,10,10,10c5.52,0,10-4.48,10-10C472,44.479,467.52,40,462,40z"/>
	</g>
</g>
<g>
</g>
<g>
</g>
<g>
</g>
<g>
</g>
<g>
</g>
<g>
</g>
<g>
</g>
<g>
</g>
<g>
</g>
<g>
</g>
<g>
</g>
<g>
</g>
<g>
</g>
<g>
</g>
<g>
</g>
</svg>
