<?xml version="1.0" encoding="iso-8859-1"?>
<!-- Generator: Adobe Illustrator 19.0.0, SVG Export Plug-In . SVG Version: 6.00 Build 0)  -->
<svg version="1.1" id="Capa_1" xmlns="http://www.w3.org/2000/svg" xmlns:xlink="http://www.w3.org/1999/xlink" x="0px" y="0px"
	 viewBox="0 0 512 512" style="enable-background:new 0 0 512 512;" xml:space="preserve">
<g>
	<g>
		<path d="M511.523,346.932l-31.516-97.503v-59.9c0-37.313-13.365-73.547-37.633-102.03c-25.336-29.739-55.706-55.871-92.152-70.83
			C312.754,1.291,275.505,0.004,240.566,0.004c-36.687,0-85.281,13.182-126.821,34.401c-33.828,17.281-65.7,40.881-87.386,72.485
			C9.589,131.332,0,160.303,0,190.005v120.002c0,5.522,4.477,10,10,10h90.691v26.454L8.62,446.786
			c-11.539,11.769-11.462,30.755,0.211,42.43l13.964,13.964c5.878,5.878,13.599,8.816,21.321,8.816
			c7.721,0,15.443-2.939,21.321-8.816l138.823-138.824h161.435c18.376,0,35.086-12.733,44.9-28.695c0,0,88.752,23.987,88.803,24
			C506.78,361.657,513.936,354.398,511.523,346.932z M423.743,96.531c1.139,1.297,2.276,2.611,3.408,3.94
			c21.188,24.867,32.857,56.496,32.857,89.059v17.333l-47.122-12.735C423.179,160.315,424.418,121.962,423.743,96.531z
			 M240.566,20.004c28.632,0,58.83,0.884,88.632,10.305l-43.791,49.534c-13.31-5.683-43.509-16.84-75.404-16.84
			c-67.773,0-125.572,26.324-162.164,48.444C94.912,50.552,190.15,20.004,240.566,20.004z M20,220.005h70.001v40.001H20V220.005z
			 M365.696,344.355H200.119c-2.652,0-5.196,1.054-7.071,2.929L51.296,489.037c-3.959,3.958-10.401,3.958-14.358,0l-13.964-13.964
			c-3.948-3.948-3.957-10.381-0.019-14.339c0.095-0.096,0.188-0.192,0.278-0.291l94.826-103.325
			c1.693-1.845,2.632-4.258,2.632-6.762v-30.349h231.986l37.366,10.099C383.322,338.359,374.094,344.355,365.696,344.355z
			 M356.615,300.354c-0.851-0.23-1.728-0.347-2.609-0.347H20v-19.999h270.004c5.51,0,10-4.49,10-10c0-5.521-4.49-10-10-10h-18
			v-50.002c0-5.522-4.477-10-10-10h-60.001c-5.523,0-10,4.478-10,10v50.002h-82.001v-50.002c0-5.522-4.477-10-10-10H20v-10
			c0-13.673,2.219-27.051,6.599-39.807c22.874-17.9,94.051-67.195,183.404-67.195c37.052,0,73.176,17.769,73.529,17.944
			c4.054,2.026,8.963,1.075,11.964-2.321l53.609-60.641c18.621,8.544,36.175,20.576,53.4,36.59
			c1.475,16.547,5.327,77.079-11.863,122.918c-1.994,5.318,1.063,11.628,6.754,13.165l62.611,16.923v23.425
			c0,1.044,0.164,2.082,0.485,3.075l11.434,35.376c0,0-98.998-29.016-99.111-29.049c-5.148-1.509-10.865,1.548-12.41,6.79
			c-1.55,5.29,1.5,10.851,6.79,12.41l112.171,32.868l7.457,23.069L356.615,300.354z M212.003,260.006v-40.001h40.001v40.001H212.003
			z"/>
	</g>
</g>
<g>
	<g>
		<path d="M330.005,260.007c-5.51,0-10,4.479-10,10c0,5.51,4.49,10,10,10c5.51,0,10-4.49,10-10
			C340.005,264.487,335.515,260.007,330.005,260.007z"/>
	</g>
</g>
<g>
</g>
<g>
</g>
<g>
</g>
<g>
</g>
<g>
</g>
<g>
</g>
<g>
</g>
<g>
</g>
<g>
</g>
<g>
</g>
<g>
</g>
<g>
</g>
<g>
</g>
<g>
</g>
<g>
</g>
</svg>
