<?xml version="1.0" encoding="iso-8859-1"?>
<!-- Generator: Adobe Illustrator 19.0.0, SVG Export Plug-In . SVG Version: 6.00 Build 0)  -->
<svg version="1.1" id="Capa_1" xmlns="http://www.w3.org/2000/svg" xmlns:xlink="http://www.w3.org/1999/xlink" x="0px" y="0px"
	 viewBox="0 0 512 512" style="enable-background:new 0 0 512 512;" xml:space="preserve">
<g>
	<g>
		<path d="M453.051,23.8c-1.885-2.9,0.686-6.078,1.519-6.984l-0.103,0.106C463,1.913,446-4.088,440.198,2.906
			c-5.115,5.21-12.518,18.56-3.873,31.861c3.18,4.809,0.73,9.738,0.44,10.285l0.087-0.153C430,55.922,445,65.924,454.147,54.944
			C457.533,49.113,461.102,35.978,453.051,23.8z"/>
	</g>
</g>
<g>
	<g>
		<path d="M407.051,23.8c-1.885-2.9,0.686-6.078,1.519-6.984l-0.103,0.106C417,1.913,400-4.088,394.198,2.906
			c-5.115,5.21-12.518,18.56-3.873,31.861c3.18,4.809,0.73,9.738,0.44,10.285l0.087-0.153C384,55.922,399,65.924,408.147,54.944
			C411.533,49.113,415.102,35.978,407.051,23.8z"/>
	</g>
</g>
<g>
	<g>
		<path d="M290.051,23.8c-1.885-2.9,0.686-6.078,1.519-6.984l-0.103,0.106C300,1.913,283-4.088,277.198,2.906
			c-5.115,5.21-12.518,18.56-3.873,31.861c3.18,4.809,0.73,9.738,0.44,10.285l0.087-0.153C267,55.922,282,65.924,291.147,54.944
			C294.533,49.113,298.102,35.978,290.051,23.8z"/>
	</g>
</g>
<g>
	<g>
		<path d="M186.051,23.8c-1.885-2.9,0.686-6.078,1.519-6.984l-0.103,0.106C196,1.913,179-4.088,173.198,2.906
			c-5.115,5.21-12.518,18.56-3.873,31.861c3.18,4.809,0.73,9.738,0.44,10.285l0.087-0.153C163,55.922,178,65.924,187.147,54.944
			C190.533,49.113,194.102,35.978,186.051,23.8z"/>
	</g>
</g>
<g>
	<g>
		<path d="M392.33,411.983c-5.521,0-10,4.491-10,10.002c0,5.511,4.479,10.002,10,10.002c5.51,0,10-4.491,10-10.002
			C402.33,416.474,397.84,411.983,392.33,411.983z"/>
	</g>
</g>
<g>
	<g>
		<path d="M439.534,331.969h-40c-5.522,0-10,4.479-10,10.002s4.477,10.002,10,10.002h40c5.522,0,10-4.479,10-10.002
			S445.056,331.969,439.534,331.969z"/>
	</g>
</g>
<g>
	<g>
		<path d="M403.319,291.962c-5.51,0-10,4.491-10,10.002c0,5.511,4.49,10.002,10,10.002c5.521,0,10-4.491,10-10.002
			C413.319,296.453,408.84,291.962,403.319,291.962z"/>
	</g>
</g>
<g>
	<g>
		<path d="M509.966,501.167l-24.35-292.05c-0.002-0.026-11.663-120.156-11.663-120.156c-0.497-5.125-4.805-9.035-9.953-9.035h-80
			c-5.148,0-9.456,3.91-9.953,9.035l-11.938,122.988h-40.837l-9.3-122.777c-0.396-5.216-4.742-9.246-9.972-9.246h-40
			c-5.229,0-9.576,4.03-9.972,9.246l-9.3,122.777h-21.457l-9.3-122.777c-0.396-5.216-4.742-9.246-9.972-9.246h-40
			c-5.229,0-9.576,4.03-9.972,9.246l-9.3,122.777H82c-5.522,0-10,4.478-10,10.001v110.019H12c-5.522,0-10,4.479-10,10.002v160.027
			C2,507.522,6.477,512,12,512h488c2.797,0,5.466-1.171,7.359-3.23C509.253,506.712,510.198,503.955,509.966,501.167z
			 M393.076,99.93h61.848l1.942,20.003h-65.732L393.076,99.93z M389.192,139.937h69.615l5.825,60.01h-81.266L389.192,139.937z
			 M271.271,99.93h21.457l1.516,20.003h-24.488L271.271,99.93z M268.241,139.937h27.518l1.516,20.003h-30.549L268.241,139.937z
			 M265.211,179.943h33.578l2.425,32.006h-38.428L265.211,179.943z M171.271,99.93h21.457l1.516,20.003h-24.488L171.271,99.93z
			 M168.241,139.937h27.518l1.516,20.003h-30.549L168.241,139.937z M165.211,179.943h33.578l2.425,32.006h-38.428L165.211,179.943z
			 M334.924,491.996H22V351.973h326.516L334.924,491.996z M92,331.969V231.952h268.167l-9.709,100.017H92z M355.017,491.998v-0.002
			l1.942-20.003h70.8c5.522,0,10-4.478,10-10.001s-4.478-10.002-10-10.002H358.9l17.476-180.03H424c5.522,0,10-4.479,10-10.002
			s-4.478-10.002-10-10.002h-45.681l3.107-32.005h85.023l6.004,72.012h-29.134c-5.51,0-10,4.491-10,10.002
			c0,5.511,4.49,10.002,10,10.002h30.802l8.339,100.017h-50.13c-5.521,0-10,4.491-10,10.002c0,5.511,4.479,10.002,10,10.002h51.798
			l5.003,60.01H355.017z"/>
	</g>
</g>
<g>
	<g>
		<path d="M112,371.976H52c-5.522,0-10,4.479-10,10.002v40.007c0,5.523,4.477,10.002,10,10.002h60c5.522,0,10-4.479,10-10.002
			v-40.007C122,376.455,117.522,371.976,112,371.976z M102,411.983H62V391.98h40V411.983z"/>
	</g>
</g>
<g>
	<g>
		<path d="M112,451.99H52c-5.522,0-10,4.479-10,10.002s4.477,10.001,10,10.001h60c5.522,0,10-4.478,10-10.001
			S117.522,451.99,112,451.99z"/>
	</g>
</g>
<g>
	<g>
		<path d="M212,371.976h-60c-5.522,0-10,4.479-10,10.002v40.007c0,5.523,4.477,10.002,10,10.002h60c5.522,0,10-4.479,10-10.002
			v-40.007C222,376.455,217.522,371.976,212,371.976z M202,411.983h-40V391.98h40V411.983z"/>
	</g>
</g>
<g>
	<g>
		<path d="M212,251.955h-60c-5.522,0-10,4.479-10,10.002v40.007c0,5.523,4.478,10.002,10,10.002h60c5.522,0,10-4.479,10-10.002
			v-40.007C222,256.434,217.522,251.955,212,251.955z M202,291.962h-40v-20.003h40V291.962z"/>
	</g>
</g>
<g>
	<g>
		<path d="M312,251.955h-60c-5.522,0-10,4.479-10,10.002v40.007c0,5.523,4.478,10.002,10,10.002h60c5.522,0,10-4.479,10-10.002
			v-40.007C322,256.434,317.522,251.955,312,251.955z M302,291.962h-40v-20.003h40V291.962z"/>
	</g>
</g>
<g>
	<g>
		<path d="M212,451.99h-60c-5.522,0-10,4.479-10,10.002s4.477,10.001,10,10.001h60c5.522,0,10-4.478,10-10.001
			S217.522,451.99,212,451.99z"/>
	</g>
</g>
<g>
	<g>
		<path d="M312,371.976h-60c-5.522,0-10,4.479-10,10.002v40.007c0,5.523,4.477,10.002,10,10.002h60c5.522,0,10-4.479,10-10.002
			v-40.007C322,376.455,317.522,371.976,312,371.976z M302,411.983h-40V391.98h40V411.983z"/>
	</g>
</g>
<g>
	<g>
		<path d="M312,451.99h-60c-5.522,0-10,4.479-10,10.002s4.477,10.001,10,10.001h60c5.522,0,10-4.478,10-10.001
			S317.522,451.99,312,451.99z"/>
	</g>
</g>
<g>
</g>
<g>
</g>
<g>
</g>
<g>
</g>
<g>
</g>
<g>
</g>
<g>
</g>
<g>
</g>
<g>
</g>
<g>
</g>
<g>
</g>
<g>
</g>
<g>
</g>
<g>
</g>
<g>
</g>
</svg>
