<?xml version="1.0" encoding="iso-8859-1"?>
<!-- Generator: Adobe Illustrator 19.0.0, SVG Export Plug-In . SVG Version: 6.00 Build 0)  -->
<svg version="1.1" id="Capa_1" xmlns="http://www.w3.org/2000/svg" xmlns:xlink="http://www.w3.org/1999/xlink" x="0px" y="0px"
	 viewBox="0 0 512 512" style="enable-background:new 0 0 512 512;" xml:space="preserve">
<g>
	<g>
		<path d="M341.79,58.904c-1.016-2.374-2.89-4.389-5.38-5.382c-47.142-18.803-98.784-18.125-145.415,1.912
			c-5.074,2.181-7.42,8.062-5.239,13.136c0,0,47.32,110.118,47.378,110.252c2.075,4.828,8.314,7.311,13.135,5.239
			c12.272-5.273,25.86-5.452,38.267-0.503c4.817,1.921,11.075-0.771,12.994-5.583c0,0,44.395-111.288,44.463-111.46
			C342.968,64.07,342.817,61.304,341.79,58.904z M282.398,161.932c-11.406-2.772-23.231-2.616-34.558,0.454l-7.959-18.521
			c16.319-4.986,33.541-5.213,49.987-0.657L282.398,161.932z M297.315,124.537c-21.458-6.408-44.09-6.11-65.37,0.859l-7.923-18.438
			c26.225-8.995,54.276-9.363,80.729-1.062L297.315,124.537z M312.18,87.273c-31.442-10.221-64.913-9.78-96.075,1.263l-7.911-18.41
			c36.094-13.106,74.984-13.617,111.411-1.465L312.18,87.273z"/>
	</g>
</g>
<g>
	<g>
		<path d="M346.267,391.429l-47.378-110.252c-2.18-5.073-8.064-7.417-13.135-5.239c-12.273,5.271-25.861,5.452-38.267,0.503
			c-5.014-2-11.009,0.603-12.995,5.583c0,0-44.417,111.345-44.463,111.46c-2.013,5.047,0.567,10.992,5.583,12.993
			c22.786,9.089,46.62,13.625,70.435,13.625c25.455,0,50.888-5.185,74.98-15.537C346.101,402.384,348.447,396.503,346.267,391.429z
			 M249.625,298.068c11.405,2.771,23.23,2.615,34.558-0.454l7.959,18.521c-16.321,4.985-33.543,5.212-49.987,0.657L249.625,298.068z
			 M234.708,335.463c21.458,6.408,44.09,6.11,65.37-0.859l7.923,18.438c-26.226,8.993-54.277,9.362-80.729,1.062L234.708,335.463z
			 M212.418,391.339l7.425-18.612c31.442,10.22,64.913,9.781,96.075-1.263l7.911,18.41
			C287.736,402.981,248.844,403.491,212.418,391.339z"/>
	</g>
</g>
<g>
	<g>
		<circle cx="35" cy="422" r="10"/>
	</g>
</g>
<g>
	<g>
		<path d="M495.248,463.013c-0.03-0.037-0.062-0.074-0.092-0.111l-62.558-74.309c40.944-42.95,63.423-99.043,63.423-158.593
			c0-61.436-23.925-119.193-67.368-162.635C385.21,23.923,327.45,0,266.011,0S146.813,23.924,103.369,67.365
			C59.925,110.806,36.001,168.564,36.001,230c0,24.332,3.767,48.081,10.999,70.598c-6.185,0.379-13.972,1.73-21.36,6.282
			C14.9,313.497,9.984,325.676,10,338c-0.028,13.119,4.338,26.21,15.19,34.189c5.932,4.247,13.608,7.176,14.621,15.25
			c0.67,5.347,5.465,8.822,10.742,8.696c5.595-0.134,9.758-5.686,9.11-11.075c-1.334-11.094-8.219-19.73-17.571-25.66
			c0,0-12.09-7.399-12.09-21.399c0-13.4,12.927-18.163,24.465-17.435c10.663,24.895,25.777,47.907,44.959,68.028l-62.558,74.309
			c-0.03,0.037-0.062,0.074-0.092,0.111c-7.297,8.926-8.821,21.424-3.881,31.839C37.832,505.269,48.473,512,60.002,512H472.02
			c11.53,0,22.17-6.731,27.108-17.147C504.069,484.437,502.545,471.938,495.248,463.013z M56.002,230
			c0-115.794,94.21-210,210.009-210S476.02,114.206,476.02,230c0,55.248-21.457,105.571-56.463,143.103L329.451,266.07
			c0,0,100.026,39.898,100.052,39.909c5.007,1.997,10.968-0.505,12.994-5.583c18.805-47.141,18.125-98.78-1.912-145.408
			c-2.18-5.074-8.06-7.417-13.136-5.239l-110.257,47.376c-5.074,2.181-7.42,8.062-5.24,13.136
			c5.014,11.669,5.411,24.529,1.184,36.43l-17.4-20.668c-1.953-14.665-14.534-26.017-29.724-26.017s-27.771,11.353-29.724,26.017
			l-17.399,20.667c-4.071-11.446-3.862-23.828,0.68-35.214c1.979-4.961-0.476-10.957-5.583-12.993c0,0-111.362-44.42-111.465-44.461
			c-5.013-2-11.007,0.603-12.994,5.583c-18.805,47.141-18.125,98.78,1.912,145.408c2.064,4.804,8.309,7.313,13.137,5.24
			l95.262-40.933l-87.372,103.784C77.459,335.571,56.002,285.248,56.002,230z M266.011,259.995c9.26,0,17.552-4.22,23.059-10.835
			l116.131,137.944C368.117,419.994,319.36,440,266.011,440s-102.106-20.006-139.189-52.896L242.953,249.16
			C248.459,255.775,256.751,259.995,266.011,259.995z M256.016,230c0-5.512,4.484-9.995,9.996-9.995
			c5.512,0,9.996,4.483,9.996,9.995c0,5.512-4.484,9.995-9.996,9.995C260.5,239.995,256.016,235.512,256.016,230z M333.629,211.829
			l18.522-7.959c4.985,16.317,5.211,33.541,0.658,49.984l-18.725-7.469C336.854,234.981,336.699,223.157,333.629,211.829z
			 M370.62,195.935l18.439-7.923c8.995,26.225,9.364,54.274,1.062,80.726l-18.641-7.436
			C377.888,239.846,377.591,217.214,370.62,195.935z M407.48,180.096l18.412-7.911c13.107,36.092,13.618,74.98,1.465,111.406
			l-18.613-7.425C418.966,244.724,418.526,211.259,407.48,180.096z M198.394,248.171l-18.522,7.959
			c-4.985-16.317-5.21-33.542-0.657-49.984l18.725,7.469C195.168,225.019,195.324,236.843,198.394,248.171z M161.403,264.065
			l-18.439,7.923c-8.995-26.225-9.364-54.274-1.062-80.726l18.641,7.436C154.134,220.153,154.432,242.785,161.403,264.065z
			 M124.542,279.904l-18.412,7.911c-13.107-36.092-13.618-74.98-1.465-111.406l18.613,7.425
			C113.056,215.276,113.497,248.741,124.542,279.904z M481.056,486.285c-1.646,3.472-5.193,5.715-9.036,5.715H60.002
			c-3.843,0-7.39-2.243-9.037-5.716c-1.638-3.454-1.144-7.595,1.256-10.566l61.649-73.229C155.915,439.67,209.397,460,266.011,460
			c56.614,0,110.097-20.33,152.141-57.511l61.649,73.229C482.201,478.689,482.695,482.83,481.056,486.285z"/>
	</g>
</g>
<g>
</g>
<g>
</g>
<g>
</g>
<g>
</g>
<g>
</g>
<g>
</g>
<g>
</g>
<g>
</g>
<g>
</g>
<g>
</g>
<g>
</g>
<g>
</g>
<g>
</g>
<g>
</g>
<g>
</g>
</svg>
