<?xml version="1.0" encoding="iso-8859-1"?>
<!-- Generator: Adobe Illustrator 19.0.0, SVG Export Plug-In . SVG Version: 6.00 Build 0)  -->
<svg version="1.1" id="Capa_1" xmlns="http://www.w3.org/2000/svg" xmlns:xlink="http://www.w3.org/1999/xlink" x="0px" y="0px"
	 viewBox="0 0 512 512" style="enable-background:new 0 0 512 512;" xml:space="preserve">
<g>
	<g>
		<path d="M502,309.99h-46l0.001-169.564c22.146-33.904,41.621-68.483,54.091-107.053c1.515-4.687-0.608-9.78-5.005-12.003
			c0,0-36.096-18.239-36.256-18.32c-5.316-2.686-12.329,0.312-14.071,5.993c-7.848,25.595-18.405,47.863-31.922,70.935H88.854
			C75.101,56.94,64.084,34.623,56.241,9.045C54.448,3.196,47.619,0.294,42.17,3.05L5.914,21.37
			c-4.397,2.223-6.52,7.316-5.005,12.002C13.24,71.52,33.827,106.923,56,140.558V309.99H10c-5.523,0-10,4.478-10,10V500
			c0,5.523,4.477,10,10,10h492c5.523,0,10-4.478,10-10V319.99C512,314.468,507.523,309.99,502,309.99z M410.662,99.978v0.001
			c-6.779,10.715-14.358,22.01-22.608,33.265c-20.15,27.491-50.062,56.06-80.055,73.623c1.935-5.611,3.001-11.624,3.001-17.884
			c0-30.329-24.673-55.003-55-55.003c-30.327,0-55,24.674-55,55.003c0,6.266,1.068,12.284,3.006,17.899
			c-29.874-17.477-59.649-45.855-79.712-73.164c-8.361-11.38-16.114-22.851-23.082-33.74H410.662z M291,188.984
			c0,19.3-15.701,35.002-35,35.002s-35-15.702-35-35.002c0-19.3,15.701-35.002,35-35.002S291,169.684,291,188.984z M49.858,94.397
			c-2.603-4.46-30.878-57.451-27.287-59.034l18.027-9.11c13.16,42.919,41.266,83.497,67.578,119.308
			c17.577,23.924,41.556,47.787,65.789,65.47c20.602,15.034,51.558,32.955,82.034,32.955c30.558,0,61.589-18.012,82.24-33.121
			c24.283-17.768,48.319-41.749,65.945-65.797c14.796-20.186,28.969-40.891,41.329-62.672c2.324-4.095,28.81-54.332,24.887-56.143
			l18.027,9.11c-14.138,43.728-41.155,84.753-68.114,121.531C371.896,222.952,308.935,263.988,256,263.988
			S140.104,222.952,91.684,156.893C76.864,136.674,62.502,116.062,49.858,94.397z M379.358,230.635
			c20.178-17.122,39.369-37.846,56.642-61.32V309.99h-21.548c4.174-7.747,6.548-16.601,6.548-26.001
			C421,258.267,403.25,236.62,379.358,230.635z M401,283.989c0,19.3-15.701,35.002-35,35.002s-35-15.702-35-35.002
			c0-19.3,15.701-35.002,35-35.002S401,264.689,401,283.989z M335.903,329.991c8.654,5.682,18.993,9,30.097,9
			c11.104,0,21.443-3.319,30.097-9h49.281c-4.938,39.41-38.653,70.004-79.378,70.004s-74.441-30.593-79.378-70.004H335.903z
			 M97.548,309.99H76V169.314c17.273,23.474,36.464,44.198,56.642,61.32C108.75,236.62,91,258.267,91,283.989
			C91,293.389,93.374,302.243,97.548,309.99z M115.903,329.991c8.654,5.682,18.993,9,30.097,9s21.443-3.319,30.097-9h49.281
			c-4.938,39.41-38.653,70.004-79.378,70.004s-74.441-30.593-79.378-70.004H115.903z M146,318.99c-19.299,0-35-15.702-35-35.002
			c0-19.3,15.701-35.002,35-35.002s35,15.702,35,35.002S165.299,318.99,146,318.99z M110,489.999H20v-20.001h90V489.999z
			 M492,489.999h-90v-20.001h90V489.999z M492,449.997H296c-5.51,0-10,4.49-10,10.001c0,5.511,4.49,10,10,10h86v20.001H130v-20.001
			h86c5.51,0,10-4.49,10-10s-4.49-10.001-10-10.001H20V329.991h26.499c5.033,50.465,47.736,90.005,99.501,90.005
			c55.14,0,100-44.862,100-100.005c0-5.523-4.477-10-10-10h-41.548c4.174-7.747,6.548-16.601,6.548-26.001
			c0-4.036-0.449-7.968-1.279-11.759c19.334,7.747,38.373,11.759,56.279,11.759s36.945-4.012,56.279-11.759
			c-0.829,3.791-1.279,7.723-1.279,11.759c0,9.4,2.374,18.254,6.548,26.001H276c-5.523,0-10,4.478-10,10
			c0,55.143,44.86,100.005,100,100.005c51.765,0,94.468-39.539,99.501-90.005H492V449.997z"/>
	</g>
</g>
<g>
	<g>
		<path d="M256,449.997c-5.51,0-10,4.49-10,10.001c0,5.511,4.49,10,10,10s10-4.49,10-10S261.51,449.997,256,449.997z"/>
	</g>
</g>
<g>
</g>
<g>
</g>
<g>
</g>
<g>
</g>
<g>
</g>
<g>
</g>
<g>
</g>
<g>
</g>
<g>
</g>
<g>
</g>
<g>
</g>
<g>
</g>
<g>
</g>
<g>
</g>
<g>
</g>
</svg>
