<?xml version="1.0" encoding="iso-8859-1"?>
<!-- Generator: Adobe Illustrator 19.0.0, SVG Export Plug-In . SVG Version: 6.00 Build 0)  -->
<svg version="1.1" id="Capa_1" xmlns="http://www.w3.org/2000/svg" xmlns:xlink="http://www.w3.org/1999/xlink" x="0px" y="0px"
	 viewBox="0 0 512 512" style="enable-background:new 0 0 512 512;" xml:space="preserve">
<g>
	<g>
		<path d="M502,0H10C4.477,0,0,4.478,0,10v40c0,5.522,4.477,10,10,10h110v10c0,16.542,13.458,30,30,30h76v40.103
			c-14.542,5.105-25,18.965-25,35.23v92.08L72.156,322.768C68.542,324.275,66,327.84,66,332v170c0,5.522,4.477,10,10,10h360
			c5.523,0,10-4.478,10-10V332c0-4.16-2.542-7.725-6.156-9.232L311,267.413v-92.08c0-16.265-10.458-30.125-25-35.23V100h76
			c16.542,0,30-13.458,30-30V60h110c5.523,0,10-4.478,10-10V10C512,4.478,507.523,0,502,0z M120,30v10H20V20h101.701
			C120.586,23.166,120,26.533,120,30z M333.801,20C332.637,23.266,332,26.794,332,30.479V40H180v-9.521
			c0-3.685-0.637-7.213-1.802-10.479H333.801z M221,245.233h70V264h-70V245.233z M426,492H86V342h340V492z M387.392,322H124.608
			l88.448-38h85.888L387.392,322z M290.999,175.333V225H221v-49.667c0-9.558,7.776-17.333,17.333-17.333h35.333
			C283.224,158,290.999,165.775,290.999,175.333z M372,70c0,5.514-4.486,10-10,10h-86c-5.523,0-10,4.478-10,10v48h-20V90
			c0-5.522-4.477-10-10-10h-86c-5.514,0-10-4.486-10-10V30c0-2.738,1.086-5.295,3.057-7.197c1.97-1.9,4.571-2.907,7.316-2.796
			c5.308,0.188,9.626,4.887,9.626,10.473V50c0,5.522,4.477,10,10,10h172c5.523,0,10-4.478,10-10V30.479
			c0-5.586,4.318-10.284,9.625-10.473c2.742-0.113,5.347,0.895,7.317,2.796C370.914,24.705,372,27.262,372,30V70z M492,40H392V30
			c0-3.467-0.586-6.834-1.701-10H492V40z"/>
	</g>
</g>
<g>
	<g>
		<path d="M116,362c-5.51,0-10,4.49-10,10v50c0,5.51,4.49,10,10,10s10-4.49,10-10v-50C126,366.49,121.51,362,116,362z"/>
	</g>
</g>
<g>
	<g>
		<path d="M116,452c-5.51,0-10,4.49-10,10s4.49,10,10,10s10-4.49,10-10S121.51,452,116,452z"/>
	</g>
</g>
<g>
	<g>
		<path d="M156,362c-5.523,0-10,4.478-10,10v90c0,5.522,4.477,10,10,10s10-4.478,10-10v-90C166,366.478,161.523,362,156,362z"/>
	</g>
</g>
<g>
	<g>
		<path d="M196,362c-5.523,0-10,4.478-10,10v90c0,5.522,4.477,10,10,10s10-4.478,10-10v-90C206,366.478,201.523,362,196,362z"/>
	</g>
</g>
<g>
	<g>
		<path d="M236,402c-5.51,0-10,4.49-10,10v50c0,5.51,4.49,10,10,10s10-4.49,10-10v-50C246,406.49,241.51,402,236,402z"/>
	</g>
</g>
<g>
	<g>
		<path d="M236,362c-5.51,0-10,4.49-10,10s4.49,10,10,10s10-4.49,10-10S241.51,362,236,362z"/>
	</g>
</g>
<g>
	<g>
		<path d="M276,362c-5.523,0-10,4.478-10,10v90c0,5.522,4.477,10,10,10s10-4.478,10-10v-90C286,366.478,281.523,362,276,362z"/>
	</g>
</g>
<g>
	<g>
		<path d="M316,362c-5.523,0-10,4.478-10,10v90c0,5.522,4.477,10,10,10s10-4.478,10-10v-90C326,366.478,321.523,362,316,362z"/>
	</g>
</g>
<g>
	<g>
		<path d="M356,362c-5.523,0-10,4.478-10,10v90c0,5.522,4.477,10,10,10s10-4.478,10-10v-90C366,366.478,361.523,362,356,362z"/>
	</g>
</g>
<g>
	<g>
		<path d="M396,362c-5.51,0-10,4.49-10,10v50c0,5.51,4.49,10,10,10s10-4.49,10-10v-50C406,366.49,401.51,362,396,362z"/>
	</g>
</g>
<g>
	<g>
		<path d="M396,452c-5.51,0-10,4.49-10,10s4.49,10,10,10s10-4.49,10-10S401.51,452,396,452z"/>
	</g>
</g>
<g>
	<g>
		<path d="M256,178c-5.523,0-10,4.478-10,10v7c0,5.522,4.477,10,10,10s10-4.478,10-10v-7C266,182.478,261.523,178,256,178z"/>
	</g>
</g>
<g>
</g>
<g>
</g>
<g>
</g>
<g>
</g>
<g>
</g>
<g>
</g>
<g>
</g>
<g>
</g>
<g>
</g>
<g>
</g>
<g>
</g>
<g>
</g>
<g>
</g>
<g>
</g>
<g>
</g>
</svg>
