<?xml version="1.0" encoding="iso-8859-1"?>
<!-- Generator: Adobe Illustrator 19.0.0, SVG Export Plug-In . SVG Version: 6.00 Build 0)  -->
<svg version="1.1" id="Capa_1" xmlns="http://www.w3.org/2000/svg" xmlns:xlink="http://www.w3.org/1999/xlink" x="0px" y="0px"
	 viewBox="0 0 512 512" style="enable-background:new 0 0 512 512;" xml:space="preserve">
<g>
	<g>
		<path d="M502,0h-40c-5.522,0-10,4.478-10,10v72h-25V26c0-5.522-4.478-10-10-10H287c-5.522,0-10,4.478-10,10v16h-76V10
			c0-5.522-4.477-10-10-10H90c-5.523,0-10,4.478-10,10v72H60V10c0-5.522-4.477-10-10-10H10C4.477,0,0,4.478,0,10v492
			c0,5.522,4.477,10,10,10h40c5.523,0,10-4.478,10-10v-30h392v30c0,5.522,4.478,10,10,10h40c5.522,0,10-4.478,10-10V10
			C512,4.478,507.522,0,502,0z M40,492H20V20h20V492z M297,52V36h110v46H297V52z M201,62h76v20h-76V62z M100,20h81v21h-81V20z
			 M100,61h81v21h-81V61z M452,452H60v-20h392V452z M122,372h-22v-30h92v40v30h-92v-20h22c5.51,0,10-4.49,10-10S127.51,372,122,372z
			 M212,412v-20h70v20H212z M302,412v-30v-16h110v46H302z M452,412h-20v-56c0-5.522-4.478-10-10-10H292c-5.522,0-10,4.478-10,10v16
			h-70v-40c0-5.522-4.477-10-10-10H90c-5.523,0-10,4.478-10,10v80H60V302h392V412z M452,282H60v-20h392V282z M100,242v-60h92v30v30
			H100z M212,242v-20h80v20H212z M352,242v-46h60v46H352z M452,242h-20v-56c0-5.522-4.478-10-10-10h-80c-5.522,0-10,4.478-10,10v56
			h-20v-30c0-5.522-4.478-10-10-10h-90v-30c0-5.522-4.477-10-10-10H90c-5.523,0-10,4.478-10,10v70H60V142h392V242z M452,122H60v-20
			h392V122z M492,492h-20V20h20V492z"/>
	</g>
</g>
<g>
	<g>
		<path d="M162,372c-5.51,0-10,4.49-10,10s4.49,10,10,10s10-4.49,10-10S167.51,372,162,372z"/>
	</g>
</g>
<g>
</g>
<g>
</g>
<g>
</g>
<g>
</g>
<g>
</g>
<g>
</g>
<g>
</g>
<g>
</g>
<g>
</g>
<g>
</g>
<g>
</g>
<g>
</g>
<g>
</g>
<g>
</g>
<g>
</g>
</svg>
