<?xml version="1.0" encoding="iso-8859-1"?>
<!-- Generator: Adobe Illustrator 19.0.0, SVG Export Plug-In . SVG Version: 6.00 Build 0)  -->
<svg version="1.1" id="Capa_1" xmlns="http://www.w3.org/2000/svg" xmlns:xlink="http://www.w3.org/1999/xlink" x="0px" y="0px"
	 viewBox="0 0 512 512" style="enable-background:new 0 0 512 512;" xml:space="preserve">
<g>
	<g>
		<circle cx="256" cy="147" r="10"/>
	</g>
</g>
<g>
	<g>
		<path d="M256,452c-5.51,0-10,4.49-10,10s4.49,10,10,10s10-4.49,10-10S261.51,452,256,452z"/>
	</g>
</g>
<g>
	<g>
		<path d="M502,312H361v-70h63c5.522,0,10-4.478,10-10v-40c0-5.522-4.478-10-10-10h-63V10c0-5.522-4.478-10-10-10H161
			c-5.522,0-10,4.478-10,10v127H10c-5.522,0-10,4.478-10,10v355c0,5.522,4.478,10,10,10h492c5.522,0,10-4.478,10-10V322
			C512,316.478,507.522,312,502,312z M171,20h170v162h-42.605c7.87-9.516,12.605-21.715,12.605-35c0-30.327-24.673-55-55-55
			c-26.911,0-49.354,19.433-54.072,45H171V20z M291,147c0,19.299-15.701,35-35,35s-35-15.701-35-35s15.701-35,35-35
			S291,127.701,291,147z M20,157h181.928c4.718,25.567,27.161,45,54.072,45h158v20H256c-28.641,0-52.227,22.009-54.762,50H20V157z
			 M298.395,242H341v70h-42.623c7.877-9.514,12.623-21.709,12.623-35C311,263.715,306.265,251.516,298.395,242z M256,267
			c-5.522,0-10,4.478-10,10v33.537c-14.44-4.314-25-17.712-25-33.537c0-19.299,15.701-35,35-35s35,15.701,35,35
			c0,15.824-10.56,29.223-25,33.537V277C266,271.478,261.522,267,256,267z M213.623,312H180v-20h23.088
			C205.196,299.423,208.828,306.208,213.623,312z M160,292v20h-20v-20H160z M120,292v20h-20v-20H120z M80,292v20H60v-20H80z M20,292
			h20v20H20V292z M110,492H20v-20h90V492z M492,492h-90v-20h90V492z M492,452H296c-5.51,0-10,4.49-10,10s4.49,10,10,10h86v20H130
			v-20h86c5.51,0,10-4.49,10-10s-4.49-10-10-10H20V332h226v25c0,5.522,4.478,10,10,10c5.522,0,10-4.478,10-10v-25h65v70
			c0,5.522,4.478,10,10,10h151V452z M492,392H351v-60h141V392z"/>
	</g>
</g>
<g>
	<g>
		<path d="M381.5,352c-5.521,0-10,4.479-10,10c0,5.52,4.479,10,10,10c5.52,0,10-4.48,10-10C391.5,356.479,387.02,352,381.5,352z"/>
	</g>
</g>
<g>
	<g>
		<path d="M461.5,352c-5.521,0-10,4.479-10,10c0,5.52,4.479,10,10,10c5.52,0,10-4.48,10-10C471.5,356.479,467.02,352,461.5,352z"/>
	</g>
</g>
<g>
	<g>
		<path d="M421.5,352c-5.521,0-10,4.479-10,10c0,5.52,4.479,10,10,10c5.52,0,10-4.48,10-10C431.5,356.479,427.02,352,421.5,352z"/>
	</g>
</g>
<g>
</g>
<g>
</g>
<g>
</g>
<g>
</g>
<g>
</g>
<g>
</g>
<g>
</g>
<g>
</g>
<g>
</g>
<g>
</g>
<g>
</g>
<g>
</g>
<g>
</g>
<g>
</g>
<g>
</g>
</svg>
