<?xml version="1.0" encoding="iso-8859-1"?>
<!-- Generator: Adobe Illustrator 19.0.0, SVG Export Plug-In . SVG Version: 6.00 Build 0)  -->
<svg version="1.1" id="Capa_1" xmlns="http://www.w3.org/2000/svg" xmlns:xlink="http://www.w3.org/1999/xlink" x="0px" y="0px"
	 viewBox="0 0 512 512" style="enable-background:new 0 0 512 512;" xml:space="preserve">
<g>
	<g>
		<path d="M502,183.465h-37.817L411.81,145.52c-1.706-1.236-3.76-1.902-5.867-1.902H106.308c-2.107,0-4.161,0.666-5.867,1.902
			l-52.373,37.946H10c-5.522,0-10,4.478-10,10v60c0,5.522,4.478,10,10,10h31.308v15.978c0,8.047,1.338,16.064,3.976,23.831
			c13.015,38.334,56.328,65.107,105.329,65.107c49.685,0,81.692-12.843,97.887-39.319c2.109-3.448,3.915-4.445,8.048-4.445
			c3.933,0,5.034,1.562,7.338,4.661c16.219,26.312,48.202,39.104,97.753,39.104c48.999,0,92.312-26.772,105.331-65.109
			c2.637-7.771,3.974-15.787,3.974-23.829v-15.978H502c5.522,0,10-4.478,10-10v-60C512,187.943,507.522,183.465,502,183.465z
			 M41.308,243.465H20v-40h21.308V243.465z M450.942,279.443c0,5.852-0.98,11.706-2.912,17.4
			c-10.306,30.345-45.831,51.538-86.393,51.538c-42.258,0-68.729-9.79-80.93-29.929c-5.636-9.303-14.261-13.959-25.113-13.96
			c-10.85,0-18.751,5.135-24.192,14.19c-12.224,19.983-38.65,29.698-80.791,29.698c-40.563,0-76.089-21.192-86.392-51.538
			c-1.933-5.691-2.913-11.546-2.913-17.4v-80.873l48.242-34.953H402.7l48.242,34.953V279.443z M492,243.465h-21.058v-40H492V243.465
			z"/>
	</g>
</g>
<g>
	<g>
		<path d="M423.422,218.627l-43.863-33c-1.733-1.305-3.843-2.01-6.012-2.01h-234c-2.138,0-4.219,0.685-5.938,1.954l-44.707,33
			c-2.555,1.886-4.062,4.871-4.062,8.046v17.904c0,5.046,0.596,22.882,8.258,40.521c10.912,25.12,31.125,38.811,58.454,39.593
			c0.033,0.001,0.065,0.001,0.097,0.001c32.237,0.484,61.049-18.341,78.154-45c4.826-2.053,19.75-5.383,25.903-5.383
			c6.286,0,21.493,3.57,26.912,5.653c16.374,25.348,45.876,44.77,76.593,44.77c27.537,0,48.08-13.453,59.406-38.904
			c8.546-19.202,8.793-39.05,8.793-41.25v-17.904C427.41,223.475,425.933,220.516,423.422,218.627z M146.175,304.187
			c-7.675-0.984-14.245-3.492-19.795-7.523l28.742-47.903c2.841-4.735,1.306-10.878-3.431-13.72
			c-4.735-2.84-10.879-1.306-13.72,3.431l-25.052,41.753c-0.512-1.02-1.007-2.067-1.479-3.152
			c-6.283-14.464-6.602-29.653-6.602-32.552v-12.856l37.998-28.048h58.69L146.175,304.187z M312.178,284.311
			c0.008,0.007,1.994-3.449,2.178-3.993c0.587-1.732,0.664-3.621,0.26-5.402c-0.6-2.6-2.17-4.82-4.439-6.24
			c-3.292-2.06-7.666-1.983-10.878,0.174c-0.549-0.857-1.05-1.766-1.678-2.568c-1.522-1.941-3.607-4.602-19.754-8.561
			c-3.318-0.813-14.727-3.469-22.161-3.469c-9.656,0-19.729,2.338-28.906,5.248c-4.781,1.515-10.2,3.438-12.955,7.942
			c-8.768,14.334-24.184,29.45-43.887,35.013l54.399-98.838h145.848l7.299,5.491l-48.234,87.637
			C323.187,293.455,317.386,289.217,312.178,284.311z M407.41,244.521c0,0.704-0.08,17.424-7.064,33.118
			c-8.097,18.192-21.552,27.036-41.135,27.036c-3.631,0-7.273-0.349-10.903-1.04l12.229-22.22l33.112-60.161l13.761,10.353V244.521z
			"/>
	</g>
</g>
<g>
	<g>
		<circle cx="326.55" cy="243.619" r="10"/>
	</g>
</g>
<g>
</g>
<g>
</g>
<g>
</g>
<g>
</g>
<g>
</g>
<g>
</g>
<g>
</g>
<g>
</g>
<g>
</g>
<g>
</g>
<g>
</g>
<g>
</g>
<g>
</g>
<g>
</g>
<g>
</g>
</svg>
