<?xml version="1.0" encoding="iso-8859-1"?>
<!-- Generator: Adobe Illustrator 19.0.0, SVG Export Plug-In . SVG Version: 6.00 Build 0)  -->
<svg version="1.1" id="Capa_1" xmlns="http://www.w3.org/2000/svg" xmlns:xlink="http://www.w3.org/1999/xlink" x="0px" y="0px"
	 viewBox="0 0 512 512" style="enable-background:new 0 0 512 512;" xml:space="preserve">
<g>
	<g>
		<path d="M502,174h-30v-21C472,68.636,403.364,0,319,0H193C108.636,0,40,68.636,40,153v21H10c-5.523,0-10,4.478-10,10v213
			c0,5.522,4.477,10,10,10h30v10c0,52.383,42.617,95,95,95h80c5.523,0,10-4.478,10-10V292c0-5.522-4.477-10-10-10h-80
			c-30.454,0-57.603,14.407-75,36.759V254h30c5.523,0,10-4.478,10-10v-91c0-51.28,41.72-93,93-93h126c51.28,0,93,41.72,93,93v91
			c0,5.522,4.478,10,10,10h30v64.76C434.603,296.407,407.453,282,377,282h-80c-5.522,0-10,4.478-10,10v210c0,5.522,4.478,10,10,10
			h80c52.383,0,95-42.617,95-95v-10h30c5.522,0,10-4.478,10-10V184C512,178.478,507.522,174,502,174z M40,387H20V194h20V387z
			 M185,302h20v190h-20V302z M125,302.687V357c0,5.51,4.49,10,10,10s10-4.49,10-10v-55h20v190h-20v-55c0-5.521-4.49-10-10-10
			s-10,4.479-10,10v54.313c-36.641-4.907-65-36.35-65-74.313v-40C60,339.037,88.359,307.593,125,302.687z M327,492h-20V302h20V492z
			 M452,417c0,37.963-28.358,69.407-65,74.313V437c0-5.51-4.49-10-10-10s-10,4.49-10,10v55h-20V302h20v55c0,5.51,4.49,10,10,10
			s10-4.49,10-10v-54.313c36.642,4.906,65,36.35,65,74.313V417z M452,234h-20v-81c0-62.309-50.691-113-113-113H193
			C130.691,40,80,90.691,80,153v81H60v-81c0-73.337,59.664-133,133-133h126c73.337,0,133,59.663,133,133V234z M492,387h-20V194h20
			V387z"/>
	</g>
</g>
<g>
	<g>
		<path d="M135,387c-5.51,0-10,4.49-10,10s4.49,10,10,10s10-4.49,10-10S140.51,387,135,387z"/>
	</g>
</g>
<g>
	<g>
		<path d="M377,387c-5.51,0-10,4.49-10,10s4.49,10,10,10s10-4.49,10-10S382.51,387,377,387z"/>
	</g>
</g>
<g>
</g>
<g>
</g>
<g>
</g>
<g>
</g>
<g>
</g>
<g>
</g>
<g>
</g>
<g>
</g>
<g>
</g>
<g>
</g>
<g>
</g>
<g>
</g>
<g>
</g>
<g>
</g>
<g>
</g>
</svg>
