<?xml version="1.0" encoding="iso-8859-1"?>
<!-- Generator: Adobe Illustrator 19.0.0, SVG Export Plug-In . SVG Version: 6.00 Build 0)  -->
<svg version="1.1" id="Capa_1" xmlns="http://www.w3.org/2000/svg" xmlns:xlink="http://www.w3.org/1999/xlink" x="0px" y="0px"
	 viewBox="0 0 512 512" style="enable-background:new 0 0 512 512;" xml:space="preserve">
<g>
	<g>
		<path d="M256.499,412c-5.499,0-9.98,4.49-9.98,10s4.481,10,9.98,10c5.499,0,9.98-4.49,9.98-10S261.999,412,256.499,412z"/>
	</g>
</g>
<g>
	<g>
		<path d="M502.02,191h-1.996v-10c0-5.522-4.469-10-9.981-10h-9.98v-20h14.971c5.512,0,9.98-4.478,9.98-10c0-5.522-4.469-10-9.98-10
			h-49.903c-5.512,0-9.981,4.478-9.981,10c0,5.522,4.469,10,9.981,10h14.971v20h-9.981c-5.512,0-9.98,4.478-9.98,10v10H415.19
			c-5.512,0-9.98,4.478-9.98,10v5h-19.961c0,0,0-4.989,0-5c0-7.487-8.479-12.401-14.955-8.669L332.681,214h-35.262v-41.331
			c0,0,21.593-37.627,21.627-37.685C322.6,128.791,317.97,120,310.395,120h-4.99V10c0-5.522-4.469-10-9.98-10H215.58
			c-5.512,0-9.981,4.478-9.981,10v110c0,0-4.97,0-4.99,0c-7.381,0-12.327,8.582-8.652,14.984l21.627,37.685V214h-41.25
			c0,0-37.549-21.633-37.612-21.669c-6.526-3.76-14.955,1.136-14.955,8.669v5H9.981C4.469,206,0,210.478,0,216v80
			c0,5.522,4.469,10,9.981,10h109.786c0,0,0,4.994,0,5c0,7.396,8.412,12.441,14.955,8.669L172.333,298h41.25v41.331
			c0,0-21.527,37.511-21.626,37.684c-3.676,6.406,1.319,14.985,8.652,14.985h4.99v110c0,5.522,4.469,10,9.981,10h79.844
			c5.512,0,9.98-4.478,9.98-10V392c0,0,4.967,0,4.99,0c7.488,0,12.383-8.486,8.652-14.984l-21.627-37.685V298h35.262
			c0,0,37.59,21.656,37.612,21.669c6.437,3.709,14.955-1.043,14.955-8.669v-5h19.961v5c0,5.522,4.469,10,9.98,10h86.83
			c5.512,0,9.98-4.478,9.98-10V201C512,195.478,507.531,191,502.02,191z M119.766,286H19.961v-60h99.805V286z M159.688,282.215
			l-19.961,11.5v-75.43l19.961,11.5V282.215z M225.559,20h19.961v20c0,5.522,4.469,10,9.981,10c5.512,0,9.98-4.478,9.98-10V20
			h19.961v100h-59.883V20z M293.143,140l-11.478,20h-52.327l-11.478-20H293.143z M285.443,492h-19.961v-30c0-5.51-4.481-10-9.98-10
			s-9.981,4.49-9.981,10v30H225.56V392h59.883V492z M217.86,372l11.478-20h52.327l11.477,20H217.86z M331.353,278h-43.914
			c-5.512,0-9.98,4.478-9.98,10v44h-43.914v-44c0-5.522-4.469-10-9.98-10h-43.914v-44h43.914c5.512,0,9.98-4.478,9.98-10v-44h43.914
			v44c0,5.522,4.469,10,9.98,10h43.914V278z M365.287,293.715l-19.961-11.5v-52.43l19.961-11.5V293.715z M405.209,286h-19.961v-60
			h19.961V286z M492.039,301h-66.869v-90h24.951c5.512,0,9.981-4.478,9.981-10v-10h19.961v10c0,5.522,4.469,10,9.98,10h1.996V301z"
			/>
	</g>
</g>
<g>
</g>
<g>
</g>
<g>
</g>
<g>
</g>
<g>
</g>
<g>
</g>
<g>
</g>
<g>
</g>
<g>
</g>
<g>
</g>
<g>
</g>
<g>
</g>
<g>
</g>
<g>
</g>
<g>
</g>
</svg>
