<?xml version="1.0" encoding="utf-8"?>
<!-- Generator: Adobe Illustrator 14.0.0, SVG Export Plug-In . SVG Version: 6.00 Build 43363)  -->
<!DOCTYPE svg PUBLIC "-//W3C//DTD SVG 1.1//EN" "http://www.w3.org/Graphics/SVG/1.1/DTD/svg11.dtd">
<svg version="1.1" id="Layer_1" xmlns="http://www.w3.org/2000/svg" xmlns:xlink="http://www.w3.org/1999/xlink" x="0px" y="0px"
	 width="483px" height="512px" viewBox="0 0 483 512" enable-background="new 0 0 483 512" xml:space="preserve">
<path d="M293.64,232c-5.52,0-10,4.477-10,10s4.48,10,10,10h0.051c5.523,0,9.977-4.477,9.977-10S299.164,232,293.64,232z"/>
<path d="M70,40.031c-16.543,0-30,13.457-30,30s13.457,30,30,30s30-13.457,30-30S86.543,40.031,70,40.031z M70,80.031
	c-5.516,0-10-4.484-10-10c0-5.512,4.484-10,10-10s10,4.488,10,10C80,75.547,75.515,80.031,70,80.031z"/>
<path d="M150,100.031c16.543,0,30-13.457,30-30s-13.457-30-30-30s-30,13.457-30,30S133.457,100.031,150,100.031z M150,60.031
	c5.516,0,10,4.488,10,10c0,5.516-4.484,10-10,10s-10-4.484-10-10C140,64.52,144.484,60.031,150,60.031z"/>
<path d="M230,100.031c16.543,0,30-13.457,30-30s-13.457-30-30-30s-30,13.457-30,30S213.457,100.031,230,100.031z M230,60.031
	c5.516,0,10,4.488,10,10c0,5.516-4.484,10-10,10s-10-4.484-10-10C220,64.52,224.484,60.031,230,60.031z"/>
<path d="M310,100.031c16.543,0,30-13.457,30-30s-13.457-30-30-30s-30,13.457-30,30S293.457,100.031,310,100.031z M310,60.031
	c5.516,0,10,4.488,10,10c0,5.516-4.484,10-10,10s-10-4.484-10-10C300,64.52,304.484,60.031,310,60.031z"/>
<path d="M340,202.031v-72c0-5.523-4.477-10-10-10H50c-5.523,0-10,4.477-10,10v72c0,5.523,4.477,10,10,10h280
	C335.523,212.031,340,207.555,340,202.031z M320,192.031h-20v-28.695c0-5.523-4.477-10-10-10s-10,4.477-10,10v28.695h-20v-28.695
	c0-5.523-4.477-10-10-10s-10,4.477-10,10v28.695H60v-52h260V192.031z"/>
<path d="M118,272H54c-5.523,0-10,4.477-10,10v48c0,5.523,4.477,10,10,10h64c5.523,0,10-4.477,10-10v-48
	C128,276.477,123.523,272,118,272z M108,320H64v-28h44V320z"/>
<path d="M222,272h-64c-5.523,0-10,4.477-10,10v48c0,5.523,4.477,10,10,10h64c5.523,0,10-4.477,10-10v-48
	C232,276.477,227.523,272,222,272z M212,320h-44v-28h44V320z"/>
<path d="M118,360H54c-5.523,0-10,4.477-10,10v48c0,5.523,4.477,10,10,10h64c5.523,0,10-4.477,10-10v-48
	C128,364.477,123.523,360,118,360z M108,408H64v-28h44V408z"/>
<path d="M222,360h-64c-5.523,0-10,4.477-10,10v48c0,5.523,4.477,10,10,10h64c5.523,0,10-4.477,10-10v-48
	C232,364.477,227.523,360,222,360z M212,408h-44v-28h44V408z"/>
<path d="M326,360h-64c-5.523,0-10,4.477-10,10v48c0,5.523,4.477,10,10,10h64c5.523,0,10-4.477,10-10v-48
	C336,364.477,331.523,360,326,360z M316,408h-44v-28h44V408z"/>
<path d="M326,272h-64c-5.523,0-10,4.477-10,10v48c0,5.523,4.477,10,10,10h64c5.523,0,10-4.477,10-10v-48
	C336,276.477,331.523,272,326,272z M316,320h-44v-28h44V320z"/>
<path d="M473,192h-64c-5.523,0-10,4.477-10,10v48c0,5.523,4.477,10,10,10h64c5.523,0,10-4.477,10-10v-48
	C483,196.476,478.523,192,473,192z M463,240h-44v-28h44V240z"/>
<path d="M380,10c0-5.523-4.477-10-10-10H10C4.476,0,0,4.477,0,10v492c0,5.523,4.477,10,10,10h432c5.523,0,10-4.477,10-10V257
	c0-5.523-4.477-10-10-10s-10,4.477-10,10v235h-50.5 M360,352.922V492H20V252h230c5.523,0,10-4.477,10-10s-4.477-10-10-10H20V20h340
	v150.391c0,0.633,0.066,1.254,0.18,1.855"/>
</svg>
